<?xml version="1.0" encoding="UTF-8"?>
<!--Generator: Apple Native CoreSVG 341-->
<!DOCTYPE svg
PUBLIC "-//W3C//DTD SVG 1.1//EN"
       "http://www.w3.org/Graphics/SVG/1.1/DTD/svg11.dtd">
<svg version="1.1" xmlns="http://www.w3.org/2000/svg" xmlns:xlink="http://www.w3.org/1999/xlink" viewBox="0 0 1206.05 1206.56">
 <g>
  <rect height="1206.56" opacity="0" width="1206.05" x="0" y="0"/>
  <path d="M898.926 1206.06C1001.95 1206.06 1075.2 1177.74 1138.67 1108.41C1142.58 1103.53 1146.48 1099.62 1150.39 1094.74C1188.48 1053.72 1206.05 1013.68 1206.05 975.107C1206.05 933.115 1182.62 892.099 1131.35 856.943L975.098 750.498C929.688 719.248 888.672 716.806 831.543 744.15L732.91 792.002C712.891 801.767 695.801 801.767 675.781 789.072C647.461 771.982 582.031 719.736 528.809 666.513C476.074 612.314 430.176 555.185 410.645 521.005C401.855 504.892 402.832 492.685 413.574 475.107L471.191 384.775C495.605 346.201 501.465 296.396 471.68 254.404L348.145 75.2047C312.5 23.9352 272.461 0.497671 230.957 0.00939002C192.871-0.478891 152.344 18.0758 111.328 55.6735C106.934 59.5797 102.539 63.486 97.6562 67.8805C28.8086 130.38 0 203.623 0 306.162C0 484.873 113.77 700.693 309.57 896.494C504.883 1091.32 720.215 1206.06 898.926 1206.06ZM899.414 1124.03C738.77 1126.47 536.133 1004.4 371.582 840.341C206.055 675.302 79.5898 466.318 82.0312 305.673C83.0078 235.849 107.422 174.814 157.715 129.404C161.133 125.986 164.062 123.545 167.969 120.615C189.453 101.084 211.914 90.8297 231.445 90.8297C250.977 90.8297 267.578 99.1305 280.762 119.15L395.996 290.537C407.227 307.138 406.738 323.252 393.066 346.201L329.59 447.275C305.176 486.826 308.594 519.052 333.984 554.697C366.211 600.595 419.434 668.466 473.145 722.666C526.855 776.377 601.074 838.388 643.066 866.709C678.711 891.123 712.402 896.494 763.672 872.08L871.094 821.298C896.973 809.091 917.969 812.021 939.941 826.67L1087.4 925.791C1106.93 938.486 1115.23 955.088 1115.23 974.619C1115.23 994.638 1105.47 1017.1 1085.45 1038.58C1082.52 1042.49 1080.08 1044.93 1077.15 1048.84C1031.25 1099.62 969.727 1123.06 899.414 1124.03Z" fill="black" fill-opacity="0.85"/>
 </g>
</svg>
