<?xml version="1.0" encoding="UTF-8"?>
<!--Generator: Apple Native CoreSVG 341-->
<!DOCTYPE svg
PUBLIC "-//W3C//DTD SVG 1.1//EN"
       "http://www.w3.org/Graphics/SVG/1.1/DTD/svg11.dtd">
<svg version="1.1" xmlns="http://www.w3.org/2000/svg" xmlns:xlink="http://www.w3.org/1999/xlink" viewBox="0 0 1271.97 1272.95">
 <g>
  <rect height="1272.95" opacity="0" width="1271.97" x="0" y="0"/>
  <path d="M635.742 1271.97C986.816 1271.97 1271.97 987.305 1271.97 636.23C1271.97 285.156 986.816 0 635.742 0C284.668 0 0 285.156 0 636.23C0 987.305 284.668 1271.97 635.742 1271.97ZM635.742 1181.15C334.473 1181.15 90.8203 937.5 90.8203 636.23C90.8203 334.961 334.473 91.3086 635.742 91.3086C937.012 91.3086 1180.66 334.961 1180.66 636.23C1180.66 937.5 937.012 1181.15 635.742 1181.15Z" fill="white"/>
  <path d="M344.238 957.031L926.27 957.031C948.73 957.031 959.473 942.383 959.473 920.898C959.473 852.051 855.957 669.922 635.254 669.922C415.039 669.922 311.523 852.051 311.523 920.898C311.523 942.383 321.777 957.031 344.238 957.031ZM635.254 618.652C724.609 619.141 796.387 543.457 796.387 442.871C796.387 348.145 724.609 270.02 635.254 270.02C545.898 270.02 474.121 348.145 474.121 442.871C474.121 543.457 545.898 618.164 635.254 618.652Z" fill="white"/>
 </g>
</svg>
