<?xml version="1.0" encoding="UTF-8"?>
<!--Generator: Apple Native CoreSVG 341-->
<!DOCTYPE svg
PUBLIC "-//W3C//DTD SVG 1.1//EN"
       "http://www.w3.org/Graphics/SVG/1.1/DTD/svg11.dtd">
<svg version="1.1" xmlns="http://www.w3.org/2000/svg" xmlns:xlink="http://www.w3.org/1999/xlink" viewBox="0 0 761.719 1065.92">
 <g>
  <rect height="1065.92" opacity="0" width="761.719" x="0" y="0"/>
  <path d="M761.719 532.715C761.719 518.555 756.348 506.836 746.094 497.07L244.141 14.1602C234.863 4.88281 223.145 0 209.473 0C182.129 0 160.645 20.5078 160.645 48.3398C160.645 61.5234 166.016 73.7305 174.805 82.5195L642.578 532.715L174.805 982.422C166.016 991.211 160.645 1002.93 160.645 1016.6C160.645 1044.43 182.129 1065.43 209.473 1065.43C223.145 1065.43 234.863 1060.06 244.141 1051.27L746.094 568.359C756.348 558.105 761.719 546.387 761.719 532.715Z" fill="black" fill-opacity="0.85"/>
 </g>
</svg>
