<?xml version="1.0" encoding="UTF-8"?>
<!--Generator: Apple Native CoreSVG 341-->
<!DOCTYPE svg
PUBLIC "-//W3C//DTD SVG 1.1//EN"
       "http://www.w3.org/Graphics/SVG/1.1/DTD/svg11.dtd">
<svg version="1.1" xmlns="http://www.w3.org/2000/svg" xmlns:xlink="http://www.w3.org/1999/xlink" viewBox="0 0 1066.41 647.949">
 <g>
  <rect height="647.949" opacity="0" width="1066.41" x="0" y="0"/>
  <path d="M533.203 647.949C547.363 647.949 560.547 641.602 570.312 630.859L1051.76 129.395C1061.04 120.117 1066.41 108.398 1066.41 94.7266C1066.41 67.3828 1045.41 46.3867 1017.58 46.3867C1004.88 46.3867 992.188 51.2695 982.91 60.0586L503.418 559.082L563.477 559.082L83.0078 60.0586C74.2188 51.2695 62.0117 46.3867 48.8281 46.3867C20.9961 46.3867 0 67.3828 0 94.7266C0 108.398 5.85938 120.117 14.6484 129.883L496.094 631.348C506.836 641.602 519.043 647.949 533.203 647.949Z" fill="black" fill-opacity="0.85"/>
 </g>
</svg>
