<?xml version="1.0" encoding="UTF-8"?>
<!--Generator: Apple Native CoreSVG 341-->
<!DOCTYPE svg
PUBLIC "-//W3C//DTD SVG 1.1//EN"
       "http://www.w3.org/Graphics/SVG/1.1/DTD/svg11.dtd">
<svg version="1.1" xmlns="http://www.w3.org/2000/svg" xmlns:xlink="http://www.w3.org/1999/xlink" viewBox="0 0 1271.97 1272.95">
 <g>
  <rect height="1272.95" opacity="0" width="1271.97" x="0" y="0"/>
  <path d="M635.742 1271.97C986.816 1271.97 1271.97 987.305 1271.97 636.23C1271.97 285.156 986.816 0 635.742 0C284.668 0 0 285.156 0 636.23C0 987.305 284.668 1271.97 635.742 1271.97ZM635.742 1181.15C334.473 1181.15 90.8203 937.5 90.8203 636.23C90.8203 334.961 334.473 91.3086 635.742 91.3086C937.012 91.3086 1180.66 334.961 1180.66 636.23C1180.66 937.5 937.012 1181.15 635.742 1181.15Z" fill="white"/>
  <path d="M365.234 955.078L731.934 772.949C750.977 764.16 764.16 750.488 773.438 731.934L954.59 365.723C974.121 326.172 946.777 296.387 905.273 316.406L539.551 497.559C521.484 506.348 508.789 518.555 498.047 539.551L315.918 906.25C297.363 944.824 326.172 974.121 365.234 955.078ZM635.742 713.379C593.262 713.379 558.594 678.711 558.594 636.23C558.594 593.75 593.262 559.082 635.742 559.082C678.223 559.082 712.891 593.75 712.891 636.23C712.891 678.711 678.223 713.379 635.742 713.379Z" fill="white"/>
 </g>
</svg>
