<?xml version="1.0" encoding="UTF-8"?>
<!--Generator: Apple Native CoreSVG 341-->
<!DOCTYPE svg
PUBLIC "-//W3C//DTD SVG 1.1//EN"
       "http://www.w3.org/Graphics/SVG/1.1/DTD/svg11.dtd">
<svg version="1.1" xmlns="http://www.w3.org/2000/svg" xmlns:xlink="http://www.w3.org/1999/xlink" viewBox="0 0 1473.14 1311.04">
 <g>
  <rect height="1311.04" opacity="0" width="1473.14" x="0" y="0"/>
  <path d="M555.664 1255.37L917.48 1255.37L917.48 846.191C917.48 818.848 899.902 801.27 872.559 801.27L601.074 801.27C573.73 801.27 555.664 818.848 555.664 846.191ZM46.3867 650.879C61.0352 650.879 73.2422 643.066 83.9844 633.789L712.891 105.957C720.215 99.6094 728.516 96.6797 736.328 96.6797C744.629 96.6797 752.93 99.6094 760.254 105.957L1389.16 633.789C1399.9 643.066 1411.62 650.879 1426.76 650.879C1455.57 650.879 1473.14 629.883 1473.14 608.398C1473.14 595.215 1467.77 582.52 1455.57 572.266L807.129 28.3203C784.668 9.27734 760.742 0 736.328 0C712.402 0 688.477 9.27734 666.016 28.3203L17.5781 572.266C5.37109 582.52 0 595.215 0 608.398C0 629.883 17.0898 650.879 46.3867 650.879ZM1152.83 345.215L1296.39 466.309L1296.39 188.477C1296.39 164.062 1280.27 148.438 1255.86 148.438L1193.85 148.438C1169.43 148.438 1152.83 164.062 1152.83 188.477ZM311.523 1310.06L1161.62 1310.06C1247.56 1310.06 1296.39 1261.72 1296.39 1177.25L1296.39 480.957L1209.96 420.898L1209.96 1156.25C1209.96 1200.68 1187.5 1223.63 1143.07 1223.63L329.59 1223.63C285.645 1223.63 263.184 1200.68 263.184 1156.25L263.184 421.875L176.758 480.957L176.758 1177.25C176.758 1262.21 225.586 1310.06 311.523 1310.06Z" fill="white"/>
 </g>
</svg>
