<?xml version="1.0" encoding="UTF-8"?>
<!--Generator: Apple Native CoreSVG 341-->
<!DOCTYPE svg
PUBLIC "-//W3C//DTD SVG 1.1//EN"
       "http://www.w3.org/Graphics/SVG/1.1/DTD/svg11.dtd">
<svg version="1.1" xmlns="http://www.w3.org/2000/svg" xmlns:xlink="http://www.w3.org/1999/xlink" viewBox="0 0 1644.53 1346.19">
 <g>
  <rect height="1346.19" opacity="0" width="1644.53" x="0" y="0"/>
  <path d="M1148.93 260.742L1148.93 520.02L1062.5 520.02L1062.5 260.254C1062.5 149.414 1000 86.9141 889.16 86.9141L360.84 86.9141C249.512 86.9141 187.5 149.414 187.5 260.254L187.5 1085.94C187.5 1197.27 249.512 1259.77 360.84 1259.77L889.16 1259.77C1000 1259.77 1062.5 1197.27 1062.5 1085.94L1062.5 825.684L1148.93 825.684L1148.93 1085.94C1148.93 1253.42 1056.15 1346.19 889.16 1346.19L361.328 1346.19C193.848 1346.19 100.586 1253.42 100.586 1085.94L100.586 260.742C100.586 93.2617 193.848 0.488281 361.328 0.488281L889.16 0.488281C1056.15 0.488281 1148.93 93.2617 1148.93 260.742Z" fill="black" fill-opacity="0.85"/>
  <path d="M634.766 672.852C634.766 695.801 653.809 715.332 676.27 715.332L1332.03 715.332L1487.79 708.984C1507.81 708.008 1524.41 692.383 1524.41 672.852C1524.41 652.832 1507.81 637.207 1487.79 636.23L1332.03 629.883L676.27 629.883C653.809 629.883 634.766 649.414 634.766 672.852ZM1259.77 458.496C1259.77 468.75 1264.16 480.469 1272.95 488.281L1384.28 594.238L1466.8 672.852L1384.28 750.488L1272.95 856.934C1264.16 864.746 1259.77 875.977 1259.77 886.23C1259.77 908.203 1275.88 925.293 1297.85 925.293C1309.08 925.293 1317.87 920.898 1326.17 912.598L1529.3 703.613C1540.04 692.871 1543.46 683.594 1543.46 672.852C1543.46 661.621 1540.04 652.344 1529.3 641.602L1326.17 432.617C1317.87 424.316 1309.08 419.434 1297.85 419.434C1275.88 419.434 1259.77 436.035 1259.77 458.496Z" fill="black" fill-opacity="0.85"/>
 </g>
</svg>
