<?xml version="1.0" encoding="UTF-8"?>
<!--Generator: Apple Native CoreSVG 341-->
<!DOCTYPE svg
PUBLIC "-//W3C//DTD SVG 1.1//EN"
       "http://www.w3.org/Graphics/SVG/1.1/DTD/svg11.dtd">
<svg version="1.1" xmlns="http://www.w3.org/2000/svg" xmlns:xlink="http://www.w3.org/1999/xlink" viewBox="0 0 1177.73 1288.57">
 <g>
  <rect height="1288.57" opacity="0" width="1177.73" x="0" y="0"/>
  <path d="M0 1001.46C0 1041.5 30.7617 1068.36 81.0547 1068.36L367.676 1068.36C372.07 1187.5 462.402 1287.6 588.867 1287.6C715.332 1287.6 805.664 1187.99 810.059 1068.36L1096.19 1068.36C1146.97 1068.36 1177.73 1041.5 1177.73 1001.46C1177.73 938.477 1115.23 882.324 1062.01 826.66C1014.16 775.391 1006.84 670.898 998.535 581.543C990.234 354.004 926.27 201.66 763.672 146.484C744.141 62.9883 678.223 0 588.867 0C499.512 0 433.105 62.9883 414.062 146.484C251.465 201.66 187.5 354.004 179.199 581.543C170.898 670.898 163.574 775.391 115.723 826.66C62.0117 882.324 0 938.477 0 1001.46ZM104.004 986.816L104.004 979.492C112.793 956.543 153.32 915.039 188.477 876.465C241.211 818.848 255.371 718.262 264.648 589.355C274.414 340.332 350.098 250.977 458.984 221.191C476.562 216.797 486.328 208.496 487.305 191.895C491.211 126.465 528.809 79.5898 588.867 79.5898C648.926 79.5898 686.523 126.465 689.941 191.895C691.406 208.496 701.172 216.797 718.75 221.191C827.637 250.977 903.32 340.332 913.086 589.355C922.363 718.262 936.523 818.848 989.258 876.465C1024.41 915.039 1064.94 956.543 1073.73 979.492L1073.73 986.816ZM451.66 1068.36L726.074 1068.36C721.191 1155.76 666.016 1211.91 588.867 1211.91C511.719 1211.91 456.543 1155.76 451.66 1068.36Z" fill="white"/>
 </g>
</svg>
