<?xml version="1.0" encoding="UTF-8"?>
<!--Generator: Apple Native CoreSVG 341-->
<!DOCTYPE svg
PUBLIC "-//W3C//DTD SVG 1.1//EN"
       "http://www.w3.org/Graphics/SVG/1.1/DTD/svg11.dtd">
<svg version="1.1" xmlns="http://www.w3.org/2000/svg" xmlns:xlink="http://www.w3.org/1999/xlink" viewBox="0 0 1200.2 1354.98">
 <g>
  <rect height="1354.98" opacity="0" width="1200.2" x="0" y="0"/>
  <path d="M267.578 1299.8L932.617 1299.8C1043.95 1299.8 1106.45 1239.26 1106.45 1127.93L1106.45 723.145L1114.75 723.145C1169.43 713.867 1200.2 670.898 1200.2 609.375L1200.2 451.172C1200.2 379.883 1160.16 333.984 1087.89 333.984L941.406 333.984C979.004 301.27 1000.98 254.395 1000.98 198.73C1000.98 82.0312 909.668 0 791.992 0C702.637 0 630.859 49.8047 600.098 135.742C569.336 49.8047 497.559 0 408.203 0C290.527 0 199.219 82.0312 199.219 198.73C199.219 254.395 221.191 301.27 258.789 333.984L112.305 333.984C42.9688 333.984 0 379.883 0 451.172L0 609.375C0 670.898 30.7617 713.867 85.4492 723.145L93.75 723.145L93.75 1127.93C93.75 1239.26 156.25 1299.8 267.578 1299.8ZM547.363 1218.75L267.09 1218.75C211.426 1218.75 180.176 1187.99 180.176 1131.84L180.176 726.562L547.363 726.562ZM652.832 1218.75L652.832 726.562L1020.02 726.562L1020.02 1131.84C1020.02 1187.99 988.77 1218.75 933.105 1218.75ZM547.363 645.02L132.324 645.02C100.586 645.02 86.4258 629.883 86.4258 597.656L86.4258 461.914C86.4258 430.176 100.586 415.527 132.324 415.527L547.363 415.527ZM652.832 645.02L652.832 415.527L1068.36 415.527C1100.1 415.527 1113.77 430.176 1113.77 461.914L1113.77 597.656C1113.77 629.883 1100.1 645.02 1068.36 645.02ZM551.758 333.984L460.938 333.984C357.91 333.984 295.898 277.344 295.898 203.125C295.898 135.742 344.727 95.7031 413.086 95.7031C491.699 95.7031 551.758 156.25 551.758 253.418ZM648.438 333.984L648.438 253.418C648.438 156.25 708.496 95.7031 787.109 95.7031C855.469 95.7031 904.297 135.742 904.297 203.125C904.297 277.344 842.285 333.984 739.258 333.984Z" fill="white"/>
 </g>
</svg>
