<?xml version="1.0" encoding="UTF-8"?>
<!--Generator: Apple Native CoreSVG 341-->
<!DOCTYPE svg
PUBLIC "-//W3C//DTD SVG 1.1//EN"
       "http://www.w3.org/Graphics/SVG/1.1/DTD/svg11.dtd">
<svg version="1.1" xmlns="http://www.w3.org/2000/svg" xmlns:xlink="http://www.w3.org/1999/xlink" viewBox="0 0 1220.21 1231.93">
 <g>
  <rect height="1231.93" opacity="0" width="1220.21" x="0" y="0"/>
  <path d="M0 494.141C0 766.113 221.68 987.793 494.141 987.793C604.004 987.793 705.078 951.66 787.109 890.625L1108.89 1212.89C1121.09 1225.59 1138.18 1231.93 1155.76 1231.93C1194.34 1231.93 1220.21 1202.64 1220.21 1166.02C1220.21 1147.95 1213.87 1132.32 1202.15 1120.12L881.836 798.34C948.242 714.844 988.281 608.887 988.281 494.141C988.281 221.68 766.602 0 494.141 0C221.68 0 0 221.68 0 494.141ZM91.3086 494.141C91.3086 271.973 271.973 91.3086 494.141 91.3086C716.309 91.3086 896.484 271.973 896.484 494.141C896.484 715.82 716.309 896.484 494.141 896.484C271.973 896.484 91.3086 715.82 91.3086 494.141Z" fill="white"/>
 </g>
</svg>
