<?xml version="1.0" encoding="UTF-8"?>
<!--Generator: Apple Native CoreSVG 341-->
<!DOCTYPE svg
PUBLIC "-//W3C//DTD SVG 1.1//EN"
       "http://www.w3.org/Graphics/SVG/1.1/DTD/svg11.dtd">
<svg version="1.1" xmlns="http://www.w3.org/2000/svg" xmlns:xlink="http://www.w3.org/1999/xlink" viewBox="0 0 1250.98 1148.93">
 <g>
  <rect height="1148.93" opacity="0" width="1250.98" x="0" y="0"/>
  <path d="M189.941 1148.93L1060.55 1148.93C1187.01 1148.93 1250.98 1085.45 1250.98 960.938L1250.98 189.453C1250.98 64.9414 1187.01 1.46484 1060.55 1.46484L189.941 1.46484C63.9648 1.46484 0 64.4531 0 189.453L0 960.938C0 1085.94 63.9648 1148.93 189.941 1148.93ZM183.105 1062.5C120.605 1062.5 86.4258 1029.3 86.4258 964.844L86.4258 382.324C86.4258 317.383 120.605 284.668 183.105 284.668L1066.89 284.668C1128.91 284.668 1164.06 317.383 1164.06 382.324L1164.06 964.844C1164.06 1029.3 1128.91 1062.5 1066.89 1062.5Z" fill="black" fill-opacity="0.85"/>
  <path d="M655.273 952.148C681.641 952.148 696.289 935.059 696.289 907.227L696.289 440.43C696.289 411.621 680.176 395.02 652.832 395.02C634.277 395.02 620.605 399.902 599.121 415.039L487.793 489.746C476.562 497.559 471.68 505.859 471.68 518.555C471.68 535.156 484.863 549.805 501.465 549.805C508.789 549.805 514.648 548.34 525.391 541.016L611.328 484.375L615.723 484.375L615.723 907.227C615.723 935.059 630.859 952.148 655.273 952.148Z" fill="black" fill-opacity="0.85"/>
 </g>
</svg>
