<?xml version="1.0" encoding="UTF-8"?>
<!--Generator: Apple Native CoreSVG 341-->
<!DOCTYPE svg
PUBLIC "-//W3C//DTD SVG 1.1//EN"
       "http://www.w3.org/Graphics/SVG/1.1/DTD/svg11.dtd">
<svg version="1.1" xmlns="http://www.w3.org/2000/svg" xmlns:xlink="http://www.w3.org/1999/xlink" viewBox="0 0 1250.98 1148.93">
 <g>
  <rect height="1148.93" opacity="0" width="1250.98" x="0" y="0"/>
  <path d="M189.941 1148.93L1060.55 1148.93C1187.01 1148.93 1250.98 1085.45 1250.98 960.938L1250.98 189.453C1250.98 64.9414 1187.01 1.46484 1060.55 1.46484L189.941 1.46484C63.9648 1.46484 0 64.4531 0 189.453L0 960.938C0 1085.94 63.9648 1148.93 189.941 1148.93ZM183.105 1062.5C120.605 1062.5 86.4258 1029.3 86.4258 964.844L86.4258 382.324C86.4258 317.383 120.605 284.668 183.105 284.668L1066.89 284.668C1128.91 284.668 1164.06 317.383 1164.06 382.324L1164.06 964.844C1164.06 1029.3 1128.91 1062.5 1066.89 1062.5Z" fill="black" fill-opacity="0.85"/>
  <path d="M459.473 935.059C480.957 935.059 499.512 916.992 499.512 894.531L499.512 456.055C499.512 428.223 481.445 411.133 453.613 411.133C430.176 411.133 411.621 423.828 398.438 434.082L324.707 492.676C314.941 500 307.617 510.742 307.617 524.902C307.617 541.992 319.336 554.199 336.426 554.199C345.215 554.199 350.586 551.758 355.957 547.363L418.945 496.582L418.945 894.531C418.945 916.992 437.5 935.059 459.473 935.059ZM757.324 940.43C880.371 940.43 915.039 795.898 915.039 673.34C915.039 550.781 880.371 406.25 757.324 406.25C634.277 406.25 599.121 550.781 599.121 673.34C599.121 795.898 634.277 940.43 757.324 940.43ZM757.324 874.512C698.242 874.512 679.688 778.32 679.688 673.34C679.688 568.848 698.242 472.168 757.324 472.168C816.406 472.168 834.961 568.848 834.961 673.34C834.961 778.32 816.406 874.512 757.324 874.512Z" fill="black" fill-opacity="0.85"/>
 </g>
</svg>
