<?xml version="1.0" encoding="UTF-8"?>
<!--Generator: Apple Native CoreSVG 341-->
<!DOCTYPE svg
PUBLIC "-//W3C//DTD SVG 1.1//EN"
       "http://www.w3.org/Graphics/SVG/1.1/DTD/svg11.dtd">
<svg version="1.1" xmlns="http://www.w3.org/2000/svg" xmlns:xlink="http://www.w3.org/1999/xlink" viewBox="0 0 1250.98 1148.93">
 <g>
  <rect height="1148.93" opacity="0" width="1250.98" x="0" y="0"/>
  <path d="M189.941 1148.93L1060.55 1148.93C1187.01 1148.93 1250.98 1085.45 1250.98 960.938L1250.98 189.453C1250.98 64.9414 1187.01 1.46484 1060.55 1.46484L189.941 1.46484C63.9648 1.46484 0 64.4531 0 189.453L0 960.938C0 1085.94 63.9648 1148.93 189.941 1148.93ZM183.105 1062.5C120.605 1062.5 86.4258 1029.3 86.4258 964.844L86.4258 382.324C86.4258 317.383 120.605 284.668 183.105 284.668L1066.89 284.668C1128.91 284.668 1164.06 317.383 1164.06 382.324L1164.06 964.844C1164.06 1029.3 1128.91 1062.5 1066.89 1062.5Z" fill="black" fill-opacity="0.85"/>
  <path d="M503.906 935.059C525.391 935.059 543.457 916.992 543.457 894.531L543.457 456.055C543.457 428.223 525.879 411.133 497.559 411.133C474.609 411.133 456.055 423.828 442.871 434.082L369.141 492.676C359.375 500 352.051 510.742 352.051 524.902C352.051 541.992 363.281 554.199 380.371 554.199C389.16 554.199 394.531 551.758 400.391 547.363L463.379 496.582L463.379 894.531C463.379 916.992 481.445 935.059 503.906 935.059ZM782.715 935.059C804.199 935.059 822.754 916.992 822.754 894.531L822.754 456.055C822.754 428.223 804.688 411.133 776.855 411.133C753.906 411.133 734.863 423.828 721.68 434.082L647.949 492.676C638.184 500 630.859 510.742 630.859 524.902C630.859 541.992 642.578 554.199 659.668 554.199C668.457 554.199 673.828 551.758 679.199 547.363L742.188 496.582L742.188 894.531C742.188 916.992 760.742 935.059 782.715 935.059Z" fill="black" fill-opacity="0.85"/>
 </g>
</svg>
