<?xml version="1.0" encoding="UTF-8"?>
<!--Generator: Apple Native CoreSVG 341-->
<!DOCTYPE svg
PUBLIC "-//W3C//DTD SVG 1.1//EN"
       "http://www.w3.org/Graphics/SVG/1.1/DTD/svg11.dtd">
<svg version="1.1" xmlns="http://www.w3.org/2000/svg" xmlns:xlink="http://www.w3.org/1999/xlink" viewBox="0 0 1250.98 1148.93">
 <g>
  <rect height="1148.93" opacity="0" width="1250.98" x="0" y="0"/>
  <path d="M189.941 1148.93L1060.55 1148.93C1187.01 1148.93 1250.98 1085.45 1250.98 960.938L1250.98 189.453C1250.98 64.9414 1187.01 1.46484 1060.55 1.46484L189.941 1.46484C63.9648 1.46484 0 64.4531 0 189.453L0 960.938C0 1085.94 63.9648 1148.93 189.941 1148.93ZM183.105 1062.5C120.605 1062.5 86.4258 1029.3 86.4258 964.844L86.4258 382.324C86.4258 317.383 120.605 284.668 183.105 284.668L1066.89 284.668C1128.91 284.668 1164.06 317.383 1164.06 382.324L1164.06 964.844C1164.06 1029.3 1128.91 1062.5 1066.89 1062.5Z" fill="black" fill-opacity="0.85"/>
  <path d="M463.867 935.059C485.352 935.059 503.418 916.992 503.418 894.531L503.418 456.055C503.418 428.223 485.84 411.133 457.52 411.133C434.57 411.133 416.016 423.828 402.832 434.082L329.102 492.676C319.336 500 312.012 510.742 312.012 524.902C312.012 541.992 323.242 554.199 340.332 554.199C349.121 554.199 354.492 551.758 360.352 547.363L423.34 496.582L423.34 894.531C423.34 916.992 441.406 935.059 463.867 935.059ZM637.207 928.223L854.98 928.223C874.512 928.223 886.719 915.039 886.719 895.508C886.719 875 874.023 863.281 854.98 863.281L698.242 863.281L698.242 858.887L796.875 729.004C856.934 653.32 876.465 606.934 876.465 552.246C876.465 468.262 822.754 406.25 737.305 406.25C658.691 406.25 600.586 473.633 600.586 539.551C600.586 559.082 612.305 574.219 633.789 574.219C651.855 574.219 663.574 565.43 668.457 547.852C679.688 501.465 697.266 470.703 737.305 470.703C779.785 470.703 801.758 509.766 801.758 555.664C801.758 605.469 770.996 653.809 735.84 700.195L619.629 852.539C609.375 865.723 599.609 879.395 599.609 895.996C599.609 915.039 612.305 928.223 637.207 928.223Z" fill="black" fill-opacity="0.85"/>
 </g>
</svg>
