<?xml version="1.0" encoding="UTF-8"?>
<!--Generator: Apple Native CoreSVG 341-->
<!DOCTYPE svg
PUBLIC "-//W3C//DTD SVG 1.1//EN"
       "http://www.w3.org/Graphics/SVG/1.1/DTD/svg11.dtd">
<svg version="1.1" xmlns="http://www.w3.org/2000/svg" xmlns:xlink="http://www.w3.org/1999/xlink" viewBox="0 0 1250.98 1148.93">
 <g>
  <rect height="1148.93" opacity="0" width="1250.98" x="0" y="0"/>
  <path d="M189.941 1148.93L1060.55 1148.93C1187.01 1148.93 1250.98 1085.45 1250.98 960.938L1250.98 189.453C1250.98 64.9414 1187.01 1.46484 1060.55 1.46484L189.941 1.46484C63.9648 1.46484 0 64.4531 0 189.453L0 960.938C0 1085.94 63.9648 1148.93 189.941 1148.93ZM183.105 1062.5C120.605 1062.5 86.4258 1029.3 86.4258 964.844L86.4258 382.324C86.4258 317.383 120.605 284.668 183.105 284.668L1066.89 284.668C1128.91 284.668 1164.06 317.383 1164.06 382.324L1164.06 964.844C1164.06 1029.3 1128.91 1062.5 1066.89 1062.5Z" fill="black" fill-opacity="0.85"/>
  <path d="M458.008 935.059C479.492 935.059 497.559 916.992 497.559 894.531L497.559 456.055C497.559 428.223 479.98 411.133 452.148 411.133C428.711 411.133 410.156 423.828 396.973 434.082L323.242 492.676C313.477 500 306.152 510.742 306.152 524.902C306.152 541.992 317.383 554.199 334.473 554.199C343.262 554.199 348.633 551.758 354.492 547.363L417.48 496.582L417.48 894.531C417.48 916.992 435.547 935.059 458.008 935.059ZM748.047 938.965C835.449 938.965 902.344 881.836 902.344 788.574C902.344 712.891 858.398 671.387 802.734 665.527L802.734 663.574C859.863 648.438 887.207 597.168 887.207 543.945C887.207 459.473 825.684 409.18 745.605 409.18C681.152 409.18 628.418 445.312 610.84 501.465C607.422 513.672 605.957 524.902 605.957 534.668C605.957 553.223 618.164 567.871 639.648 567.871C659.18 567.871 669.434 559.57 674.805 540.039C684.57 500.488 706.055 473.145 745.605 473.145C790.039 473.145 812.012 508.301 812.012 552.734C812.012 601.562 784.18 637.207 734.863 637.207L716.797 637.207C697.266 637.207 686.035 649.414 686.035 667.48C686.035 685.547 698.242 696.777 716.797 696.777L735.352 696.777C791.992 696.777 823.73 728.027 823.73 786.621C823.73 833.496 798.828 874.023 748.047 874.023C699.219 874.023 675.781 839.844 668.457 808.105C663.574 789.551 651.855 779.297 633.301 779.297C611.816 779.297 597.656 792.48 597.656 814.453C597.656 825.195 599.609 836.914 602.539 847.168C620.605 904.785 680.664 938.965 748.047 938.965Z" fill="black" fill-opacity="0.85"/>
 </g>
</svg>
