<?xml version="1.0" encoding="UTF-8"?>
<!--Generator: Apple Native CoreSVG 341-->
<!DOCTYPE svg
PUBLIC "-//W3C//DTD SVG 1.1//EN"
       "http://www.w3.org/Graphics/SVG/1.1/DTD/svg11.dtd">
<svg version="1.1" xmlns="http://www.w3.org/2000/svg" xmlns:xlink="http://www.w3.org/1999/xlink" viewBox="0 0 1250.98 1148.93">
 <g>
  <rect height="1148.93" opacity="0" width="1250.98" x="0" y="0"/>
  <path d="M189.941 1148.93L1060.55 1148.93C1187.01 1148.93 1250.98 1085.45 1250.98 960.938L1250.98 189.453C1250.98 64.9414 1187.01 1.46484 1060.55 1.46484L189.941 1.46484C63.9648 1.46484 0 64.4531 0 189.453L0 960.938C0 1085.94 63.9648 1148.93 189.941 1148.93ZM183.105 1062.5C120.605 1062.5 86.4258 1029.3 86.4258 964.844L86.4258 382.324C86.4258 317.383 120.605 284.668 183.105 284.668L1066.89 284.668C1128.91 284.668 1164.06 317.383 1164.06 382.324L1164.06 964.844C1164.06 1029.3 1128.91 1062.5 1066.89 1062.5Z" fill="black" fill-opacity="0.85"/>
  <path d="M446.777 935.059C468.262 935.059 486.328 916.992 486.328 894.531L486.328 456.055C486.328 428.223 468.75 411.133 440.918 411.133C417.48 411.133 398.926 423.828 385.742 434.082L312.012 492.676C302.246 500 294.922 510.742 294.922 524.902C294.922 541.992 306.152 554.199 323.242 554.199C332.031 554.199 337.402 551.758 343.262 547.363L406.25 496.582L406.25 894.531C406.25 916.992 424.316 935.059 446.777 935.059ZM811.523 936.035C832.031 936.035 849.121 922.363 849.121 896.484L849.121 823.73L875.977 823.73C896.973 823.73 907.715 810.059 907.715 791.016C907.715 772.949 897.461 759.277 875.977 759.277L849.121 759.277L849.121 470.215C849.121 431.152 823.242 411.133 788.086 411.133C749.512 411.133 731.445 431.152 715.332 465.82L592.773 725.098C583.496 746.094 580.078 760.742 580.078 777.832C580.078 804.688 598.633 823.73 626.465 823.73L773.438 823.73L773.438 896.484C773.438 924.805 793.457 936.035 811.523 936.035ZM774.902 760.742L648.438 760.742L648.438 756.836L772.461 482.91L774.902 482.91Z" fill="black" fill-opacity="0.85"/>
 </g>
</svg>
