<?xml version="1.0" encoding="UTF-8"?>
<!--Generator: Apple Native CoreSVG 341-->
<!DOCTYPE svg
PUBLIC "-//W3C//DTD SVG 1.1//EN"
       "http://www.w3.org/Graphics/SVG/1.1/DTD/svg11.dtd">
<svg version="1.1" xmlns="http://www.w3.org/2000/svg" xmlns:xlink="http://www.w3.org/1999/xlink" viewBox="0 0 1250.98 1148.93">
 <g>
  <rect height="1148.93" opacity="0" width="1250.98" x="0" y="0"/>
  <path d="M189.941 1148.93L1060.55 1148.93C1187.01 1148.93 1250.98 1085.45 1250.98 960.938L1250.98 189.453C1250.98 64.9414 1187.01 1.46484 1060.55 1.46484L189.941 1.46484C63.9648 1.46484 0 64.4531 0 189.453L0 960.938C0 1085.94 63.9648 1148.93 189.941 1148.93ZM183.105 1062.5C120.605 1062.5 86.4258 1029.3 86.4258 964.844L86.4258 382.324C86.4258 317.383 120.605 284.668 183.105 284.668L1066.89 284.668C1128.91 284.668 1164.06 317.383 1164.06 382.324L1164.06 964.844C1164.06 1029.3 1128.91 1062.5 1066.89 1062.5Z" fill="black" fill-opacity="0.85"/>
  <path d="M458.984 935.059C480.469 935.059 498.535 916.992 498.535 894.531L498.535 456.055C498.535 428.223 480.957 411.133 452.637 411.133C429.688 411.133 410.645 423.828 397.461 434.082L323.73 492.676C313.965 500 306.641 510.742 306.641 524.902C306.641 541.992 318.359 554.199 335.449 554.199C344.238 554.199 349.609 551.758 355.469 547.363L417.969 496.582L417.969 894.531C417.969 916.992 436.523 935.059 458.984 935.059ZM747.07 940.43C842.773 940.43 895.02 857.91 895.02 760.742C895.02 674.316 853.516 593.75 772.461 593.75C735.84 593.75 700.684 610.84 683.594 648.926L681.152 648.926L692.383 484.863L843.75 484.863C862.793 484.863 874.512 471.191 874.512 451.66C874.512 433.105 861.816 418.945 843.75 418.945L671.387 418.945C641.602 418.945 628.418 438.477 626.465 467.773L615.234 647.461C614.258 657.715 613.77 667.969 613.77 675.781C613.77 697.266 625 715.82 650.391 715.82C666.504 715.82 675.293 708.496 687.012 692.871C701.66 669.434 719.727 652.832 747.559 652.832C797.363 652.832 817.871 712.891 817.871 762.695C817.871 818.359 796.875 875.488 746.094 875.488C708.008 875.488 685.059 846.191 673.828 809.082C667.48 790.039 655.273 781.738 640.137 781.738C620.117 781.738 606.934 794.922 606.934 814.941C606.934 827.637 610.352 840.82 615.234 852.051C635.742 904.785 688.965 940.43 747.07 940.43Z" fill="black" fill-opacity="0.85"/>
 </g>
</svg>
