<?xml version="1.0" encoding="UTF-8"?>
<!--Generator: Apple Native CoreSVG 341-->
<!DOCTYPE svg
PUBLIC "-//W3C//DTD SVG 1.1//EN"
       "http://www.w3.org/Graphics/SVG/1.1/DTD/svg11.dtd">
<svg version="1.1" xmlns="http://www.w3.org/2000/svg" xmlns:xlink="http://www.w3.org/1999/xlink" viewBox="0 0 1250.98 1148.93">
 <g>
  <rect height="1148.93" opacity="0" width="1250.98" x="0" y="0"/>
  <path d="M189.941 1148.93L1060.55 1148.93C1187.01 1148.93 1250.98 1085.45 1250.98 960.938L1250.98 189.453C1250.98 64.9414 1187.01 1.46484 1060.55 1.46484L189.941 1.46484C63.9648 1.46484 0 64.4531 0 189.453L0 960.938C0 1085.94 63.9648 1148.93 189.941 1148.93ZM183.105 1062.5C120.605 1062.5 86.4258 1029.3 86.4258 964.844L86.4258 382.324C86.4258 317.383 120.605 284.668 183.105 284.668L1066.89 284.668C1128.91 284.668 1164.06 317.383 1164.06 382.324L1164.06 964.844C1164.06 1029.3 1128.91 1062.5 1066.89 1062.5Z" fill="black" fill-opacity="0.85"/>
  <path d="M449.707 935.059C471.191 935.059 489.258 916.992 489.258 894.531L489.258 456.055C489.258 428.223 471.68 411.133 443.359 411.133C420.41 411.133 401.855 423.828 388.672 434.082L314.453 492.676C304.688 500 297.363 510.742 297.363 524.902C297.363 541.992 309.082 554.199 326.172 554.199C334.961 554.199 340.332 551.758 346.191 547.363L409.18 496.582L409.18 894.531C409.18 916.992 427.246 935.059 449.707 935.059ZM751.465 940.43C845.703 940.43 898.438 859.375 898.438 762.207C898.438 677.246 857.422 595.703 773.926 595.703C720.703 595.703 682.129 632.812 668.457 687.988L666.016 687.988C666.016 685.059 666.016 682.617 666.016 680.176C666.016 605.957 675.293 472.656 750.977 472.656C783.203 472.656 803.711 496.094 814.941 526.367C822.754 543.457 833.008 552.246 851.074 552.246C873.535 552.246 883.301 537.598 883.301 519.531C883.301 512.695 882.324 504.883 879.883 496.582C866.211 441.895 813.965 407.715 752.441 407.715C625.977 407.715 590.82 556.641 590.82 681.152C590.82 799.805 627.441 940.43 751.465 940.43ZM750.488 875.488C699.219 875.488 677.246 812.5 677.246 762.695C677.246 712.402 701.66 656.738 750 656.738C800.781 656.738 822.754 714.844 821.777 765.137C821.777 815.918 798.828 875.488 750.488 875.488Z" fill="black" fill-opacity="0.85"/>
 </g>
</svg>
