<?xml version="1.0" encoding="UTF-8"?>
<!--Generator: Apple Native CoreSVG 341-->
<!DOCTYPE svg
PUBLIC "-//W3C//DTD SVG 1.1//EN"
       "http://www.w3.org/Graphics/SVG/1.1/DTD/svg11.dtd">
<svg version="1.1" xmlns="http://www.w3.org/2000/svg" xmlns:xlink="http://www.w3.org/1999/xlink" viewBox="0 0 1250.98 1148.93">
 <g>
  <rect height="1148.93" opacity="0" width="1250.98" x="0" y="0"/>
  <path d="M189.941 1148.93L1060.55 1148.93C1187.01 1148.93 1250.98 1085.45 1250.98 960.938L1250.98 189.453C1250.98 64.9414 1187.01 1.46484 1060.55 1.46484L189.941 1.46484C63.9648 1.46484 0 64.4531 0 189.453L0 960.938C0 1085.94 63.9648 1148.93 189.941 1148.93ZM183.105 1062.5C120.605 1062.5 86.4258 1029.3 86.4258 964.844L86.4258 382.324C86.4258 317.383 120.605 284.668 183.105 284.668L1066.89 284.668C1128.91 284.668 1164.06 317.383 1164.06 382.324L1164.06 964.844C1164.06 1029.3 1128.91 1062.5 1066.89 1062.5Z" fill="black" fill-opacity="0.85"/>
  <path d="M485.84 935.059C507.324 935.059 525.879 916.992 525.879 894.531L525.879 456.055C525.879 428.223 507.812 411.133 479.98 411.133C457.031 411.133 437.988 423.828 424.805 434.082L351.074 492.676C341.309 500 333.984 510.742 333.984 524.902C333.984 541.992 345.703 554.199 362.793 554.199C371.582 554.199 376.953 551.758 382.324 547.363L445.312 496.582L445.312 894.531C445.312 916.992 463.867 935.059 485.84 935.059ZM702.637 936.523C722.656 936.523 731.934 927.734 739.746 907.715L888.672 508.789C894.531 492.188 898.926 478.516 898.926 461.914C898.926 436.035 879.395 418.945 854.004 418.945L648.926 418.945C629.883 418.945 616.699 432.617 616.699 451.66C616.699 470.703 629.883 484.375 648.926 484.375L818.359 484.375L818.359 489.746L672.852 869.141C667.969 881.348 666.016 889.16 666.016 901.855C666.016 918.945 676.758 936.523 702.637 936.523Z" fill="black" fill-opacity="0.85"/>
 </g>
</svg>
