<?xml version="1.0" encoding="UTF-8"?>
<!--Generator: Apple Native CoreSVG 341-->
<!DOCTYPE svg
PUBLIC "-//W3C//DTD SVG 1.1//EN"
       "http://www.w3.org/Graphics/SVG/1.1/DTD/svg11.dtd">
<svg version="1.1" xmlns="http://www.w3.org/2000/svg" xmlns:xlink="http://www.w3.org/1999/xlink" viewBox="0 0 1250.98 1148.93">
 <g>
  <rect height="1148.93" opacity="0" width="1250.98" x="0" y="0"/>
  <path d="M189.941 1148.93L1060.55 1148.93C1187.01 1148.93 1250.98 1085.45 1250.98 960.938L1250.98 189.453C1250.98 64.9414 1187.01 1.46484 1060.55 1.46484L189.941 1.46484C63.9648 1.46484 0 64.4531 0 189.453L0 960.938C0 1085.94 63.9648 1148.93 189.941 1148.93ZM183.105 1062.5C120.605 1062.5 86.4258 1029.3 86.4258 964.844L86.4258 382.324C86.4258 317.383 120.605 284.668 183.105 284.668L1066.89 284.668C1128.91 284.668 1164.06 317.383 1164.06 382.324L1164.06 964.844C1164.06 1029.3 1128.91 1062.5 1066.89 1062.5Z" fill="black" fill-opacity="0.85"/>
  <path d="M458.496 935.059C479.98 935.059 498.047 916.992 498.047 894.531L498.047 456.055C498.047 428.223 480.469 411.133 452.637 411.133C429.199 411.133 410.645 423.828 397.461 434.082L323.73 492.676C313.965 500 306.641 510.742 306.641 524.902C306.641 541.992 317.871 554.199 334.961 554.199C343.75 554.199 349.121 551.758 354.98 547.363L417.969 496.582L417.969 894.531C417.969 916.992 436.035 935.059 458.496 935.059ZM754.883 938.965C851.562 938.965 913.086 875.977 913.086 790.527C913.086 723.633 871.094 671.875 820.312 660.645L820.312 658.691C863.77 645.02 898.926 602.539 898.926 544.922C898.926 465.82 841.797 408.691 754.883 408.691C677.734 408.691 611.816 458.984 611.816 544.434C611.816 605.957 648.438 645.508 690.918 658.691L690.918 660.645C637.207 672.363 597.168 723.633 597.168 790.527C597.168 880.859 664.062 938.965 754.883 938.965ZM755.371 632.812C713.867 632.812 688.477 595.215 688.477 552.246C688.477 507.812 713.379 469.238 755.371 469.238C799.805 469.238 821.777 509.766 821.777 552.246C821.777 597.168 797.363 632.812 755.371 632.812ZM755.371 878.418C705.566 878.418 679.688 834.961 679.688 785.156C679.688 735.352 706.055 693.848 755.371 693.848C802.246 693.848 831.055 732.422 831.055 785.156C831.055 834.473 805.176 878.418 755.371 878.418Z" fill="black" fill-opacity="0.85"/>
 </g>
</svg>
