<?xml version="1.0" encoding="UTF-8"?>
<!--Generator: Apple Native CoreSVG 341-->
<!DOCTYPE svg
PUBLIC "-//W3C//DTD SVG 1.1//EN"
       "http://www.w3.org/Graphics/SVG/1.1/DTD/svg11.dtd">
<svg version="1.1" xmlns="http://www.w3.org/2000/svg" xmlns:xlink="http://www.w3.org/1999/xlink" viewBox="0 0 1250.98 1148.93">
 <g>
  <rect height="1148.93" opacity="0" width="1250.98" x="0" y="0"/>
  <path d="M189.941 1148.93L1060.55 1148.93C1187.01 1148.93 1250.98 1085.45 1250.98 960.938L1250.98 189.453C1250.98 64.9414 1187.01 1.46484 1060.55 1.46484L189.941 1.46484C63.9648 1.46484 0 64.4531 0 189.453L0 960.938C0 1085.94 63.9648 1148.93 189.941 1148.93ZM183.105 1062.5C120.605 1062.5 86.4258 1029.3 86.4258 964.844L86.4258 382.324C86.4258 317.383 120.605 284.668 183.105 284.668L1066.89 284.668C1128.91 284.668 1164.06 317.383 1164.06 382.324L1164.06 964.844C1164.06 1029.3 1128.91 1062.5 1066.89 1062.5Z" fill="black" fill-opacity="0.85"/>
  <path d="M458.496 935.059C479.98 935.059 498.047 916.992 498.047 894.531L498.047 456.055C498.047 428.223 480.469 411.133 452.148 411.133C429.199 411.133 410.645 423.828 397.461 434.082L323.73 492.676C313.965 500 306.641 510.742 306.641 524.902C306.641 541.992 317.871 554.199 334.961 554.199C343.75 554.199 349.121 551.758 354.98 547.363L417.969 496.582L417.969 894.531C417.969 916.992 436.035 935.059 458.496 935.059ZM719.238 752.441C772.949 752.441 811.523 715.332 825.195 660.645L827.637 660.645C827.637 663.086 827.637 665.527 827.637 668.457C827.637 742.188 817.871 874.512 741.699 874.512C710.449 874.512 689.453 852.051 678.223 820.801C669.922 801.758 658.691 793.945 642.09 793.945C619.141 793.945 608.887 809.57 608.887 828.125C608.887 834.961 610.84 842.773 612.793 850.586C626.953 906.25 679.199 939.941 740.723 939.941C867.188 939.941 902.832 793.457 902.832 666.992C902.832 548.828 865.723 407.227 741.699 407.227C648.438 407.227 594.727 488.77 594.727 586.426C594.727 671.387 635.742 752.441 719.238 752.441ZM742.676 690.918C692.383 690.918 670.898 633.789 670.898 583.496C670.898 531.738 694.824 472.168 742.676 472.168C793.945 472.168 816.406 532.227 816.406 583.496C816.406 635.742 791.992 690.918 742.676 690.918Z" fill="black" fill-opacity="0.85"/>
 </g>
</svg>
