<?xml version="1.0" encoding="UTF-8"?>
<!--Generator: Apple Native CoreSVG 341-->
<!DOCTYPE svg
PUBLIC "-//W3C//DTD SVG 1.1//EN"
       "http://www.w3.org/Graphics/SVG/1.1/DTD/svg11.dtd">
<svg version="1.1" xmlns="http://www.w3.org/2000/svg" xmlns:xlink="http://www.w3.org/1999/xlink" viewBox="0 0 1250.98 1148.93">
 <g>
  <rect height="1148.93" opacity="0" width="1250.98" x="0" y="0"/>
  <path d="M189.941 1148.93L1060.55 1148.93C1187.01 1148.93 1250.98 1085.45 1250.98 960.938L1250.98 189.453C1250.98 64.9414 1187.01 1.46484 1060.55 1.46484L189.941 1.46484C63.9648 1.46484 0 64.4531 0 189.453L0 960.938C0 1085.94 63.9648 1148.93 189.941 1148.93ZM183.105 1062.5C120.605 1062.5 86.4258 1029.3 86.4258 964.844L86.4258 382.324C86.4258 317.383 120.605 284.668 183.105 284.668L1066.89 284.668C1128.91 284.668 1164.06 317.383 1164.06 382.324L1164.06 964.844C1164.06 1029.3 1128.91 1062.5 1066.89 1062.5Z" fill="black" fill-opacity="0.85"/>
  <path d="M493.652 939.941L796.387 939.941C816.406 939.941 830.566 926.758 830.566 906.25C830.566 885.254 816.406 872.559 796.387 872.559L568.848 872.559L568.848 868.652L717.285 708.984C771.973 649.902 805.176 604.004 805.176 541.992C805.176 453.613 735.84 395.02 629.883 395.02C546.387 395.02 473.145 445.312 456.055 512.695C454.102 520.508 453.125 527.832 453.125 534.668C453.125 554.688 466.797 567.871 486.816 567.871C505.859 567.871 515.137 556.641 523.438 541.504C536.621 500 572.266 460.449 633.301 460.449C693.359 460.449 732.422 495.117 732.422 547.363C732.422 590.332 700.195 626.953 663.086 666.504L470.215 875C460.938 885.254 457.031 895.02 457.031 905.762C457.031 926.758 470.703 939.941 493.652 939.941Z" fill="black" fill-opacity="0.85"/>
 </g>
</svg>
