<?xml version="1.0" encoding="UTF-8"?>
<!--Generator: Apple Native CoreSVG 341-->
<!DOCTYPE svg
PUBLIC "-//W3C//DTD SVG 1.1//EN"
       "http://www.w3.org/Graphics/SVG/1.1/DTD/svg11.dtd">
<svg version="1.1" xmlns="http://www.w3.org/2000/svg" xmlns:xlink="http://www.w3.org/1999/xlink" viewBox="0 0 1250.98 1148.93">
 <g>
  <rect height="1148.93" opacity="0" width="1250.98" x="0" y="0"/>
  <path d="M189.941 1148.93L1060.55 1148.93C1187.01 1148.93 1250.98 1085.45 1250.98 960.938L1250.98 189.453C1250.98 64.9414 1187.01 1.46484 1060.55 1.46484L189.941 1.46484C63.9648 1.46484 0 64.4531 0 189.453L0 960.938C0 1085.94 63.9648 1148.93 189.941 1148.93ZM183.105 1062.5C120.605 1062.5 86.4258 1029.3 86.4258 964.844L86.4258 382.324C86.4258 317.383 120.605 284.668 183.105 284.668L1066.89 284.668C1128.91 284.668 1164.06 317.383 1164.06 382.324L1164.06 964.844C1164.06 1029.3 1128.91 1062.5 1066.89 1062.5Z" fill="black" fill-opacity="0.85"/>
  <path d="M335.449 928.223L553.711 928.223C573.242 928.223 585.449 915.039 585.449 895.508C585.449 875 572.754 863.281 553.711 863.281L396.484 863.281L396.484 858.887L495.605 729.004C555.176 653.32 575.195 606.934 575.195 552.246C575.195 468.262 520.996 406.25 436.035 406.25C356.934 406.25 298.828 473.633 298.828 539.551C298.828 559.082 311.035 574.219 332.031 574.219C350.586 574.219 361.816 565.43 367.188 547.852C377.93 501.465 395.996 470.703 435.547 470.703C478.516 470.703 500.488 509.766 500.488 555.664C500.488 605.469 469.238 653.809 434.57 700.195L317.871 852.539C307.617 865.723 298.34 879.395 298.34 895.996C298.34 915.039 310.547 928.223 335.449 928.223ZM811.035 940.43C934.082 940.43 968.75 795.898 968.75 673.34C968.75 550.781 934.082 406.25 811.035 406.25C687.988 406.25 653.32 550.781 653.32 673.34C653.32 795.898 687.988 940.43 811.035 940.43ZM811.035 874.512C751.953 874.512 733.398 778.32 733.398 673.34C733.398 568.848 751.953 472.168 811.035 472.168C870.117 472.168 888.672 568.848 888.672 673.34C888.672 778.32 870.117 874.512 811.035 874.512Z" fill="black" fill-opacity="0.85"/>
 </g>
</svg>
