<?xml version="1.0" encoding="UTF-8"?>
<!--Generator: Apple Native CoreSVG 341-->
<!DOCTYPE svg
PUBLIC "-//W3C//DTD SVG 1.1//EN"
       "http://www.w3.org/Graphics/SVG/1.1/DTD/svg11.dtd">
<svg version="1.1" xmlns="http://www.w3.org/2000/svg" xmlns:xlink="http://www.w3.org/1999/xlink" viewBox="0 0 1250.98 1148.93">
 <g>
  <rect height="1148.93" opacity="0" width="1250.98" x="0" y="0"/>
  <path d="M189.941 1148.93L1060.55 1148.93C1187.01 1148.93 1250.98 1085.45 1250.98 960.938L1250.98 189.453C1250.98 64.9414 1187.01 1.46484 1060.55 1.46484L189.941 1.46484C63.9648 1.46484 0 64.4531 0 189.453L0 960.938C0 1085.94 63.9648 1148.93 189.941 1148.93ZM183.105 1062.5C120.605 1062.5 86.4258 1029.3 86.4258 964.844L86.4258 382.324C86.4258 317.383 120.605 284.668 183.105 284.668L1066.89 284.668C1128.91 284.668 1164.06 317.383 1164.06 382.324L1164.06 964.844C1164.06 1029.3 1128.91 1062.5 1066.89 1062.5Z" fill="black" fill-opacity="0.85"/>
  <path d="M379.883 928.223L597.656 928.223C617.188 928.223 629.395 915.039 629.395 895.508C629.395 875 616.699 863.281 597.656 863.281L440.918 863.281L440.918 858.887L539.551 729.004C599.609 653.32 619.141 606.934 619.141 552.246C619.141 468.262 565.43 406.25 479.98 406.25C401.367 406.25 343.262 473.633 343.262 539.551C343.262 559.082 354.98 574.219 376.465 574.219C394.531 574.219 406.25 565.43 411.133 547.852C422.363 501.465 439.941 470.703 479.98 470.703C522.461 470.703 544.434 509.766 544.434 555.664C544.434 605.469 513.672 653.809 478.516 700.195L362.305 852.539C352.051 865.723 342.285 879.395 342.285 895.996C342.285 915.039 354.98 928.223 379.883 928.223ZM836.426 935.059C857.91 935.059 875.977 916.992 875.977 894.531L875.977 456.055C875.977 428.223 858.398 411.133 830.078 411.133C807.129 411.133 788.574 423.828 775.391 434.082L701.66 492.676C691.895 500 684.57 510.742 684.57 524.902C684.57 541.992 695.801 554.199 712.891 554.199C721.68 554.199 727.051 551.758 732.91 547.363L795.898 496.582L795.898 894.531C795.898 916.992 813.965 935.059 836.426 935.059Z" fill="black" fill-opacity="0.85"/>
 </g>
</svg>
