<?xml version="1.0" encoding="UTF-8"?>
<!--Generator: Apple Native CoreSVG 341-->
<!DOCTYPE svg
PUBLIC "-//W3C//DTD SVG 1.1//EN"
       "http://www.w3.org/Graphics/SVG/1.1/DTD/svg11.dtd">
<svg version="1.1" xmlns="http://www.w3.org/2000/svg" xmlns:xlink="http://www.w3.org/1999/xlink" viewBox="0 0 1250.98 1148.93">
 <g>
  <rect height="1148.93" opacity="0" width="1250.98" x="0" y="0"/>
  <path d="M189.941 1148.93L1060.55 1148.93C1187.01 1148.93 1250.98 1085.45 1250.98 960.938L1250.98 189.453C1250.98 64.9414 1187.01 1.46484 1060.55 1.46484L189.941 1.46484C63.9648 1.46484 0 64.4531 0 189.453L0 960.938C0 1085.94 63.9648 1148.93 189.941 1148.93ZM183.105 1062.5C120.605 1062.5 86.4258 1029.3 86.4258 964.844L86.4258 382.324C86.4258 317.383 120.605 284.668 183.105 284.668L1066.89 284.668C1128.91 284.668 1164.06 317.383 1164.06 382.324L1164.06 964.844C1164.06 1029.3 1128.91 1062.5 1066.89 1062.5Z" fill="black" fill-opacity="0.85"/>
  <path d="M345.215 928.223L562.988 928.223C582.52 928.223 594.727 915.039 594.727 895.508C594.727 875 582.031 863.281 562.988 863.281L406.25 863.281L406.25 858.887L505.371 729.004C564.941 653.32 584.961 606.934 584.961 552.246C584.961 468.262 530.762 406.25 445.801 406.25C366.699 406.25 308.594 473.633 308.594 539.551C308.594 559.082 320.312 574.219 341.797 574.219C360.352 574.219 371.582 565.43 376.953 547.852C387.695 501.465 405.762 470.703 445.312 470.703C488.281 470.703 510.254 509.766 510.254 555.664C510.254 605.469 479.004 653.809 443.848 700.195L327.637 852.539C317.383 865.723 308.105 879.395 308.105 895.996C308.105 915.039 320.312 928.223 345.215 928.223ZM698.73 928.223L916.992 928.223C936.523 928.223 948.73 915.039 948.73 895.508C948.73 875 936.035 863.281 916.992 863.281L759.766 863.281L759.766 858.887L858.887 729.004C918.457 653.32 938.477 606.934 938.477 552.246C938.477 468.262 884.277 406.25 799.316 406.25C720.215 406.25 662.598 473.633 662.598 539.551C662.598 559.082 674.316 574.219 695.801 574.219C713.867 574.219 725.098 565.43 730.469 547.852C741.699 501.465 759.277 470.703 798.828 470.703C841.797 470.703 863.77 509.766 863.77 555.664C863.77 605.469 833.008 653.809 797.852 700.195L681.641 852.539C670.898 865.723 661.621 879.395 661.621 895.996C661.621 915.039 674.316 928.223 698.73 928.223Z" fill="black" fill-opacity="0.85"/>
 </g>
</svg>
