<?xml version="1.0" encoding="UTF-8"?>
<!--Generator: Apple Native CoreSVG 341-->
<!DOCTYPE svg
PUBLIC "-//W3C//DTD SVG 1.1//EN"
       "http://www.w3.org/Graphics/SVG/1.1/DTD/svg11.dtd">
<svg version="1.1" xmlns="http://www.w3.org/2000/svg" xmlns:xlink="http://www.w3.org/1999/xlink" viewBox="0 0 1250.98 1148.93">
 <g>
  <rect height="1148.93" opacity="0" width="1250.98" x="0" y="0"/>
  <path d="M189.941 1148.93L1060.55 1148.93C1187.01 1148.93 1250.98 1085.45 1250.98 960.938L1250.98 189.453C1250.98 64.9414 1187.01 1.46484 1060.55 1.46484L189.941 1.46484C63.9648 1.46484 0 64.4531 0 189.453L0 960.938C0 1085.94 63.9648 1148.93 189.941 1148.93ZM183.105 1062.5C120.605 1062.5 86.4258 1029.3 86.4258 964.844L86.4258 382.324C86.4258 317.383 120.605 284.668 183.105 284.668L1066.89 284.668C1128.91 284.668 1164.06 317.383 1164.06 382.324L1164.06 964.844C1164.06 1029.3 1128.91 1062.5 1066.89 1062.5Z" fill="black" fill-opacity="0.85"/>
  <path d="M337.402 928.223L555.664 928.223C575.195 928.223 587.402 915.039 587.402 895.508C587.402 875 574.707 863.281 555.664 863.281L398.438 863.281L398.438 858.887L497.559 729.004C557.129 653.32 577.148 606.934 577.148 552.246C577.148 468.262 522.949 406.25 437.988 406.25C358.887 406.25 301.27 473.633 301.27 539.551C301.27 559.082 312.988 574.219 334.473 574.219C352.539 574.219 363.77 565.43 369.141 547.852C379.883 501.465 397.949 470.703 437.5 470.703C480.469 470.703 502.441 509.766 502.441 555.664C502.441 605.469 471.68 653.809 436.523 700.195L319.824 852.539C309.57 865.723 300.293 879.395 300.293 895.996C300.293 915.039 312.5 928.223 337.402 928.223ZM806.152 938.965C893.555 938.965 960.449 881.836 960.449 788.574C960.449 712.891 916.504 671.387 860.84 665.527L860.84 663.574C917.969 648.438 945.312 597.168 945.312 543.945C945.312 459.473 883.789 409.18 803.711 409.18C739.258 409.18 686.523 445.312 668.945 501.465C665.527 513.672 664.062 524.902 664.062 534.668C664.062 553.223 676.27 567.871 697.754 567.871C717.285 567.871 727.539 559.57 732.91 540.039C742.676 500.488 764.16 473.145 803.711 473.145C848.145 473.145 870.605 508.301 870.605 552.734C870.605 601.562 842.285 637.207 792.969 637.207L774.902 637.207C755.371 637.207 744.141 649.414 744.141 667.48C744.141 685.547 756.348 696.777 774.902 696.777L793.457 696.777C850.098 696.777 881.836 728.027 881.836 786.621C881.836 833.496 856.934 874.023 806.152 874.023C757.324 874.023 733.887 839.844 726.562 808.105C721.68 789.551 709.961 779.297 691.406 779.297C669.922 779.297 655.762 792.48 655.762 814.453C655.762 825.195 657.715 836.914 660.645 847.168C678.711 904.785 738.77 938.965 806.152 938.965Z" fill="black" fill-opacity="0.85"/>
 </g>
</svg>
