<?xml version="1.0" encoding="UTF-8"?>
<!--Generator: Apple Native CoreSVG 341-->
<!DOCTYPE svg
PUBLIC "-//W3C//DTD SVG 1.1//EN"
       "http://www.w3.org/Graphics/SVG/1.1/DTD/svg11.dtd">
<svg version="1.1" xmlns="http://www.w3.org/2000/svg" xmlns:xlink="http://www.w3.org/1999/xlink" viewBox="0 0 1250.98 1148.93">
 <g>
  <rect height="1148.93" opacity="0" width="1250.98" x="0" y="0"/>
  <path d="M189.941 1148.93L1060.55 1148.93C1187.01 1148.93 1250.98 1085.45 1250.98 960.938L1250.98 189.453C1250.98 64.9414 1187.01 1.46484 1060.55 1.46484L189.941 1.46484C63.9648 1.46484 0 64.4531 0 189.453L0 960.938C0 1085.94 63.9648 1148.93 189.941 1148.93ZM183.105 1062.5C120.605 1062.5 86.4258 1029.3 86.4258 964.844L86.4258 382.324C86.4258 317.383 120.605 284.668 183.105 284.668L1066.89 284.668C1128.91 284.668 1164.06 317.383 1164.06 382.324L1164.06 964.844C1164.06 1029.3 1128.91 1062.5 1066.89 1062.5Z" fill="black" fill-opacity="0.85"/>
  <path d="M335.449 928.223L553.223 928.223C572.754 928.223 584.961 915.039 584.961 895.508C584.961 875 572.266 863.281 553.223 863.281L396.484 863.281L396.484 858.887L495.117 729.004C555.176 653.32 575.195 606.934 575.195 552.246C575.195 468.262 520.996 406.25 435.547 406.25C356.934 406.25 298.828 473.633 298.828 539.551C298.828 559.082 310.547 574.219 332.031 574.219C350.098 574.219 361.816 565.43 366.699 547.852C377.93 501.465 395.996 470.703 435.547 470.703C478.027 470.703 500 509.766 500 555.664C500 605.469 469.238 653.809 434.082 700.195L317.871 852.539C307.617 865.723 297.852 879.395 297.852 895.996C297.852 915.039 310.547 928.223 335.449 928.223ZM871.094 936.035C891.602 936.035 908.203 922.363 908.203 896.484L908.203 823.73L935.059 823.73C956.543 823.73 966.797 810.059 966.797 791.016C966.797 772.949 957.031 759.277 935.059 759.277L908.203 759.277L908.203 470.215C908.203 431.152 882.812 411.133 847.656 411.133C809.082 411.133 790.527 431.152 774.902 465.82L652.344 725.098C643.066 746.094 639.648 760.742 639.648 777.832C639.648 804.688 658.203 823.73 686.035 823.73L832.52 823.73L832.52 896.484C832.52 924.805 852.539 936.035 871.094 936.035ZM833.984 760.742L708.008 760.742L708.008 756.836L831.543 482.91L833.984 482.91Z" fill="black" fill-opacity="0.85"/>
 </g>
</svg>
