<?xml version="1.0" encoding="UTF-8"?>
<!--Generator: Apple Native CoreSVG 341-->
<!DOCTYPE svg
PUBLIC "-//W3C//DTD SVG 1.1//EN"
       "http://www.w3.org/Graphics/SVG/1.1/DTD/svg11.dtd">
<svg version="1.1" xmlns="http://www.w3.org/2000/svg" xmlns:xlink="http://www.w3.org/1999/xlink" viewBox="0 0 1250.98 1148.93">
 <g>
  <rect height="1148.93" opacity="0" width="1250.98" x="0" y="0"/>
  <path d="M189.941 1148.93L1060.55 1148.93C1187.01 1148.93 1250.98 1085.45 1250.98 960.938L1250.98 189.453C1250.98 64.9414 1187.01 1.46484 1060.55 1.46484L189.941 1.46484C63.9648 1.46484 0 64.4531 0 189.453L0 960.938C0 1085.94 63.9648 1148.93 189.941 1148.93ZM183.105 1062.5C120.605 1062.5 86.4258 1029.3 86.4258 964.844L86.4258 382.324C86.4258 317.383 120.605 284.668 183.105 284.668L1066.89 284.668C1128.91 284.668 1164.06 317.383 1164.06 382.324L1164.06 964.844C1164.06 1029.3 1128.91 1062.5 1066.89 1062.5Z" fill="black" fill-opacity="0.85"/>
  <path d="M331.055 928.223L549.316 928.223C568.848 928.223 581.055 915.039 581.055 895.508C581.055 875 568.359 863.281 549.316 863.281L392.09 863.281L392.09 858.887L491.211 729.004C550.781 653.32 570.801 606.934 570.801 552.246C570.801 468.262 516.602 406.25 431.641 406.25C352.539 406.25 294.922 473.633 294.922 539.551C294.922 559.082 306.641 574.219 328.125 574.219C346.191 574.219 357.422 565.43 362.793 547.852C373.535 501.465 391.602 470.703 431.152 470.703C474.121 470.703 496.094 509.766 496.094 555.664C496.094 605.469 465.332 653.809 430.176 700.195L313.477 852.539C303.223 865.723 293.945 879.395 293.945 895.996C293.945 915.039 306.152 928.223 331.055 928.223ZM798.34 940.43C894.043 940.43 946.289 857.91 946.289 760.742C946.289 674.316 904.785 593.75 823.242 593.75C787.109 593.75 751.465 610.84 734.863 648.926L732.422 648.926L743.652 484.863L894.531 484.863C914.062 484.863 925.781 471.191 925.781 451.66C925.781 433.105 913.086 418.945 894.531 418.945L722.656 418.945C692.871 418.945 679.688 438.477 677.246 467.773L666.016 647.461C665.527 657.715 665.039 667.969 665.039 675.781C665.039 697.266 676.27 715.82 701.66 715.82C717.773 715.82 726.562 708.496 737.793 692.871C752.93 669.434 770.996 652.832 798.828 652.832C848.633 652.832 869.141 712.891 869.141 762.695C869.141 818.359 847.656 875.488 797.363 875.488C759.277 875.488 735.84 846.191 725.098 809.082C718.75 790.039 706.543 781.738 691.406 781.738C670.898 781.738 658.203 794.922 658.203 814.941C658.203 827.637 661.621 840.82 666.016 852.051C686.523 904.785 740.234 940.43 798.34 940.43Z" fill="black" fill-opacity="0.85"/>
 </g>
</svg>
