<?xml version="1.0" encoding="UTF-8"?>
<!--Generator: Apple Native CoreSVG 341-->
<!DOCTYPE svg
PUBLIC "-//W3C//DTD SVG 1.1//EN"
       "http://www.w3.org/Graphics/SVG/1.1/DTD/svg11.dtd">
<svg version="1.1" xmlns="http://www.w3.org/2000/svg" xmlns:xlink="http://www.w3.org/1999/xlink" viewBox="0 0 1250.98 1148.93">
 <g>
  <rect height="1148.93" opacity="0" width="1250.98" x="0" y="0"/>
  <path d="M189.941 1148.93L1060.55 1148.93C1187.01 1148.93 1250.98 1085.45 1250.98 960.938L1250.98 189.453C1250.98 64.9414 1187.01 1.46484 1060.55 1.46484L189.941 1.46484C63.9648 1.46484 0 64.4531 0 189.453L0 960.938C0 1085.94 63.9648 1148.93 189.941 1148.93ZM183.105 1062.5C120.605 1062.5 86.4258 1029.3 86.4258 964.844L86.4258 382.324C86.4258 317.383 120.605 284.668 183.105 284.668L1066.89 284.668C1128.91 284.668 1164.06 317.383 1164.06 382.324L1164.06 964.844C1164.06 1029.3 1128.91 1062.5 1066.89 1062.5Z" fill="black" fill-opacity="0.85"/>
  <path d="M330.078 928.223L547.852 928.223C567.383 928.223 579.59 915.039 579.59 895.508C579.59 875 566.895 863.281 547.852 863.281L391.113 863.281L391.113 858.887L489.746 729.004C549.805 653.32 569.824 606.934 569.824 552.246C569.824 468.262 515.625 406.25 430.176 406.25C351.562 406.25 293.457 473.633 293.457 539.551C293.457 559.082 305.176 574.219 326.66 574.219C344.727 574.219 356.445 565.43 361.816 547.852C372.559 501.465 390.625 470.703 430.176 470.703C472.656 470.703 494.629 509.766 494.629 555.664C494.629 605.469 463.867 653.809 428.711 700.195L312.5 852.539C302.246 865.723 292.969 879.395 292.969 895.996C292.969 915.039 305.176 928.223 330.078 928.223ZM808.594 940.43C902.832 940.43 955.566 859.375 955.566 762.207C955.566 677.246 914.551 595.703 831.055 595.703C777.832 595.703 739.258 632.812 725.586 687.988L723.145 687.988C723.145 685.059 723.145 682.617 723.145 680.176C723.145 605.957 732.91 472.656 808.105 472.656C840.332 472.656 860.84 496.094 872.07 526.367C879.883 543.457 890.137 552.246 908.691 552.246C930.664 552.246 940.43 537.598 940.43 519.531C940.43 512.695 939.453 504.883 937.012 496.582C923.34 441.895 871.094 407.715 810.059 407.715C683.105 407.715 647.949 556.641 647.949 681.152C647.949 799.805 684.57 940.43 808.594 940.43ZM807.617 875.488C756.348 875.488 734.375 812.5 734.375 762.695C734.375 712.402 758.789 656.738 807.617 656.738C857.91 656.738 879.883 714.844 878.906 765.137C878.906 815.918 855.957 875.488 807.617 875.488Z" fill="black" fill-opacity="0.85"/>
 </g>
</svg>
