<?xml version="1.0" encoding="UTF-8"?>
<!--Generator: Apple Native CoreSVG 341-->
<!DOCTYPE svg
PUBLIC "-//W3C//DTD SVG 1.1//EN"
       "http://www.w3.org/Graphics/SVG/1.1/DTD/svg11.dtd">
<svg version="1.1" xmlns="http://www.w3.org/2000/svg" xmlns:xlink="http://www.w3.org/1999/xlink" viewBox="0 0 1250.98 1148.93">
 <g>
  <rect height="1148.93" opacity="0" width="1250.98" x="0" y="0"/>
  <path d="M189.941 1148.93L1060.55 1148.93C1187.01 1148.93 1250.98 1085.45 1250.98 960.938L1250.98 189.453C1250.98 64.9414 1187.01 1.46484 1060.55 1.46484L189.941 1.46484C63.9648 1.46484 0 64.4531 0 189.453L0 960.938C0 1085.94 63.9648 1148.93 189.941 1148.93ZM183.105 1062.5C120.605 1062.5 86.4258 1029.3 86.4258 964.844L86.4258 382.324C86.4258 317.383 120.605 284.668 183.105 284.668L1066.89 284.668C1128.91 284.668 1164.06 317.383 1164.06 382.324L1164.06 964.844C1164.06 1029.3 1128.91 1062.5 1066.89 1062.5Z" fill="black" fill-opacity="0.85"/>
  <path d="M360.84 928.223L578.613 928.223C598.145 928.223 610.352 915.039 610.352 895.508C610.352 875 597.656 863.281 578.613 863.281L421.875 863.281L421.875 858.887L520.508 729.004C580.566 653.32 600.098 606.934 600.098 552.246C600.098 468.262 546.387 406.25 460.938 406.25C382.324 406.25 324.219 473.633 324.219 539.551C324.219 559.082 335.938 574.219 357.422 574.219C375.488 574.219 387.207 565.43 392.09 547.852C403.32 501.465 420.898 470.703 460.938 470.703C503.418 470.703 525.391 509.766 525.391 555.664C525.391 605.469 494.629 653.809 459.473 700.195L343.262 852.539C333.008 865.723 323.242 879.395 323.242 895.996C323.242 915.039 335.938 928.223 360.84 928.223ZM751.953 936.523C772.461 936.523 781.738 927.734 789.062 907.715L937.988 508.789C943.848 492.188 948.242 478.516 948.242 461.914C948.242 436.035 928.711 418.945 903.32 418.945L698.242 418.945C679.199 418.945 666.016 432.617 666.016 451.66C666.016 470.703 679.199 484.375 698.242 484.375L868.164 484.375L868.164 489.746L722.168 869.141C717.285 881.348 715.332 889.16 715.332 901.855C715.332 918.945 726.074 936.523 751.953 936.523Z" fill="black" fill-opacity="0.85"/>
 </g>
</svg>
