<?xml version="1.0" encoding="UTF-8"?>
<!--Generator: Apple Native CoreSVG 341-->
<!DOCTYPE svg
PUBLIC "-//W3C//DTD SVG 1.1//EN"
       "http://www.w3.org/Graphics/SVG/1.1/DTD/svg11.dtd">
<svg version="1.1" xmlns="http://www.w3.org/2000/svg" xmlns:xlink="http://www.w3.org/1999/xlink" viewBox="0 0 1250.98 1148.93">
 <g>
  <rect height="1148.93" opacity="0" width="1250.98" x="0" y="0"/>
  <path d="M189.941 1148.93L1060.55 1148.93C1187.01 1148.93 1250.98 1085.45 1250.98 960.938L1250.98 189.453C1250.98 64.9414 1187.01 1.46484 1060.55 1.46484L189.941 1.46484C63.9648 1.46484 0 64.4531 0 189.453L0 960.938C0 1085.94 63.9648 1148.93 189.941 1148.93ZM183.105 1062.5C120.605 1062.5 86.4258 1029.3 86.4258 964.844L86.4258 382.324C86.4258 317.383 120.605 284.668 183.105 284.668L1066.89 284.668C1128.91 284.668 1164.06 317.383 1164.06 382.324L1164.06 964.844C1164.06 1029.3 1128.91 1062.5 1066.89 1062.5Z" fill="black" fill-opacity="0.85"/>
  <path d="M327.637 928.223L545.41 928.223C564.941 928.223 577.148 915.039 577.148 895.508C577.148 875 564.453 863.281 545.41 863.281L388.184 863.281L388.184 858.887L487.305 729.004C547.363 653.32 566.895 606.934 566.895 552.246C566.895 468.262 513.184 406.25 427.734 406.25C349.121 406.25 291.016 473.633 291.016 539.551C291.016 559.082 302.734 574.219 324.219 574.219C342.285 574.219 353.516 565.43 358.887 547.852C370.117 501.465 387.695 470.703 427.734 470.703C470.215 470.703 492.188 509.766 492.188 555.664C492.188 605.469 461.426 653.809 426.27 700.195L310.059 852.539C299.805 865.723 290.039 879.395 290.039 895.996C290.039 915.039 302.734 928.223 327.637 928.223ZM802.246 938.965C898.926 938.965 960.938 875.977 960.938 790.527C960.938 723.633 918.457 671.875 867.676 660.645L867.676 658.691C911.133 645.02 946.777 602.539 946.777 544.922C946.777 465.82 889.16 408.691 802.246 408.691C725.098 408.691 659.18 458.984 659.18 544.434C659.18 605.957 696.289 645.508 738.281 658.691L738.281 660.645C685.059 672.363 645.02 723.633 645.02 790.527C645.02 880.859 711.426 938.965 802.246 938.965ZM802.734 632.812C761.23 632.812 735.84 595.215 735.84 552.246C735.84 507.812 760.742 469.238 802.734 469.238C847.168 469.238 869.629 509.766 869.629 552.246C869.629 597.168 844.727 632.812 802.734 632.812ZM802.734 878.418C753.418 878.418 727.051 834.961 727.051 785.156C727.051 735.352 753.418 693.848 802.734 693.848C849.609 693.848 878.418 732.422 878.418 785.156C878.418 834.473 852.539 878.418 802.734 878.418Z" fill="black" fill-opacity="0.85"/>
 </g>
</svg>
