<?xml version="1.0" encoding="UTF-8"?>
<!--Generator: Apple Native CoreSVG 341-->
<!DOCTYPE svg
PUBLIC "-//W3C//DTD SVG 1.1//EN"
       "http://www.w3.org/Graphics/SVG/1.1/DTD/svg11.dtd">
<svg version="1.1" xmlns="http://www.w3.org/2000/svg" xmlns:xlink="http://www.w3.org/1999/xlink" viewBox="0 0 1250.98 1148.93">
 <g>
  <rect height="1148.93" opacity="0" width="1250.98" x="0" y="0"/>
  <path d="M189.941 1148.93L1060.55 1148.93C1187.01 1148.93 1250.98 1085.45 1250.98 960.938L1250.98 189.453C1250.98 64.9414 1187.01 1.46484 1060.55 1.46484L189.941 1.46484C63.9648 1.46484 0 64.4531 0 189.453L0 960.938C0 1085.94 63.9648 1148.93 189.941 1148.93ZM183.105 1062.5C120.605 1062.5 86.4258 1029.3 86.4258 964.844L86.4258 382.324C86.4258 317.383 120.605 284.668 183.105 284.668L1066.89 284.668C1128.91 284.668 1164.06 317.383 1164.06 382.324L1164.06 964.844C1164.06 1029.3 1128.91 1062.5 1066.89 1062.5Z" fill="black" fill-opacity="0.85"/>
  <path d="M333.984 928.223L552.246 928.223C571.777 928.223 583.984 915.039 583.984 895.508C583.984 875 571.289 863.281 552.246 863.281L395.02 863.281L395.02 858.887L494.141 729.004C554.199 653.32 573.73 606.934 573.73 552.246C573.73 468.262 520.02 406.25 434.57 406.25C355.957 406.25 297.852 473.633 297.852 539.551C297.852 559.082 309.57 574.219 331.055 574.219C349.121 574.219 360.352 565.43 365.723 547.852C376.953 501.465 394.531 470.703 434.57 470.703C477.051 470.703 499.023 509.766 499.023 555.664C499.023 605.469 468.262 653.809 433.105 700.195L316.895 852.539C306.641 865.723 296.875 879.395 296.875 895.996C296.875 915.039 309.57 928.223 333.984 928.223ZM773.926 752.441C827.637 752.441 866.211 715.332 879.883 660.645L882.324 660.645C882.324 663.086 882.324 665.527 882.324 668.457C882.324 742.188 872.559 874.512 796.875 874.512C765.137 874.512 744.629 852.051 732.91 820.801C724.609 801.758 713.379 793.945 697.266 793.945C673.828 793.945 664.062 809.57 664.062 828.125C664.062 834.961 665.527 842.773 667.48 850.586C681.641 906.25 733.887 939.941 795.41 939.941C921.875 939.941 957.52 793.457 957.52 666.992C957.52 548.828 920.41 407.227 796.875 407.227C703.125 407.227 649.902 488.77 649.902 586.426C649.902 671.387 690.918 752.441 773.926 752.441ZM797.852 690.918C747.559 690.918 726.074 633.789 726.074 583.496C726.074 531.738 749.512 472.168 797.852 472.168C849.121 472.168 871.094 532.227 871.094 583.496C871.094 635.742 846.68 690.918 797.852 690.918Z" fill="black" fill-opacity="0.85"/>
 </g>
</svg>
