<?xml version="1.0" encoding="UTF-8"?>
<!--Generator: Apple Native CoreSVG 341-->
<!DOCTYPE svg
PUBLIC "-//W3C//DTD SVG 1.1//EN"
       "http://www.w3.org/Graphics/SVG/1.1/DTD/svg11.dtd">
<svg version="1.1" xmlns="http://www.w3.org/2000/svg" xmlns:xlink="http://www.w3.org/1999/xlink" viewBox="0 0 1250.98 1148.93">
 <g>
  <rect height="1148.93" opacity="0" width="1250.98" x="0" y="0"/>
  <path d="M189.941 1148.93L1060.55 1148.93C1187.01 1148.93 1250.98 1085.45 1250.98 960.938L1250.98 189.453C1250.98 64.9414 1187.01 1.46484 1060.55 1.46484L189.941 1.46484C63.9648 1.46484 0 64.4531 0 189.453L0 960.938C0 1085.94 63.9648 1148.93 189.941 1148.93ZM183.105 1062.5C120.605 1062.5 86.4258 1029.3 86.4258 964.844L86.4258 382.324C86.4258 317.383 120.605 284.668 183.105 284.668L1066.89 284.668C1128.91 284.668 1164.06 317.383 1164.06 382.324L1164.06 964.844C1164.06 1029.3 1128.91 1062.5 1066.89 1062.5Z" fill="black" fill-opacity="0.85"/>
  <path d="M629.395 952.148C750.488 952.148 828.125 886.23 828.125 794.922C828.125 726.074 775.391 670.41 704.102 663.574L704.102 659.668C763.672 650.391 809.082 595.703 809.082 534.18C809.082 453.125 735.84 395.02 633.301 395.02C541.016 395.02 469.238 439.453 455.078 507.324C453.613 515.625 452.637 521.484 452.637 529.297C452.637 549.805 467.285 563.477 487.793 563.477C506.348 563.477 517.578 554.688 522.949 536.621C534.668 489.746 574.707 459.961 631.836 459.961C694.336 459.961 733.398 492.188 733.398 542.969C733.398 594.727 689.941 633.301 630.859 633.301L590.82 633.301C571.777 633.301 558.594 645.996 558.594 665.039C558.594 683.105 571.777 696.777 590.82 696.777L634.766 696.777C703.125 696.777 751.953 736.328 751.953 791.992C751.953 849.121 703.125 887.207 630.859 887.207C565.918 887.207 525.879 854.004 512.207 810.547C505.371 791.992 494.141 783.691 476.562 783.691C456.055 783.691 440.918 798.34 440.918 818.848C440.918 826.66 441.895 832.031 443.848 839.844C461.426 906.738 536.133 952.148 629.395 952.148Z" fill="black" fill-opacity="0.85"/>
 </g>
</svg>
