<?xml version="1.0" encoding="UTF-8"?>
<!--Generator: Apple Native CoreSVG 341-->
<!DOCTYPE svg
PUBLIC "-//W3C//DTD SVG 1.1//EN"
       "http://www.w3.org/Graphics/SVG/1.1/DTD/svg11.dtd">
<svg version="1.1" xmlns="http://www.w3.org/2000/svg" xmlns:xlink="http://www.w3.org/1999/xlink" viewBox="0 0 1250.98 1148.93">
 <g>
  <rect height="1148.93" opacity="0" width="1250.98" x="0" y="0"/>
  <path d="M189.941 1148.93L1060.55 1148.93C1187.01 1148.93 1250.98 1085.45 1250.98 960.938L1250.98 189.453C1250.98 64.9414 1187.01 1.46484 1060.55 1.46484L189.941 1.46484C63.9648 1.46484 0 64.4531 0 189.453L0 960.938C0 1085.94 63.9648 1148.93 189.941 1148.93ZM183.105 1062.5C120.605 1062.5 86.4258 1029.3 86.4258 964.844L86.4258 382.324C86.4258 317.383 120.605 284.668 183.105 284.668L1066.89 284.668C1128.91 284.668 1164.06 317.383 1164.06 382.324L1164.06 964.844C1164.06 1029.3 1128.91 1062.5 1066.89 1062.5Z" fill="black" fill-opacity="0.85"/>
  <path d="M434.57 937.988C521.973 937.988 588.867 881.348 588.867 787.598C588.867 711.914 544.922 670.41 489.258 664.551L489.258 662.598C546.387 647.461 573.73 596.68 573.73 542.969C573.73 458.496 512.695 408.203 432.129 408.203C367.676 408.203 315.43 444.824 297.363 500.488C293.945 512.695 292.48 524.414 292.48 534.18C292.48 552.246 304.688 566.895 326.66 566.895C346.191 566.895 356.445 559.082 361.816 539.551C371.094 500 393.066 472.168 432.129 472.168C477.051 472.168 499.023 507.324 499.023 552.246C499.023 600.586 470.703 636.719 421.387 636.719L403.32 636.719C384.277 636.719 372.559 648.438 372.559 666.504C372.559 684.57 385.254 695.801 403.32 695.801L422.363 695.801C478.516 695.801 510.254 727.051 510.254 785.645C510.254 832.52 485.84 873.047 435.059 873.047C385.742 873.047 362.793 838.867 354.98 807.129C350.098 788.574 338.867 778.809 320.312 778.809C298.828 778.809 284.18 791.992 284.18 813.477C284.18 824.219 286.133 836.426 289.551 846.191C307.129 903.809 367.676 937.988 434.57 937.988ZM814.941 939.941C937.988 939.941 972.656 795.41 972.656 672.852C972.656 550.293 937.988 405.762 814.941 405.762C691.895 405.762 657.227 550.293 657.227 672.852C657.227 795.41 691.895 939.941 814.941 939.941ZM814.941 874.023C755.859 874.023 737.305 777.344 737.305 672.852C737.305 567.871 755.859 471.68 814.941 471.68C874.023 471.68 892.578 567.871 892.578 672.852C892.578 777.344 874.023 874.023 814.941 874.023Z" fill="black" fill-opacity="0.85"/>
 </g>
</svg>
