<?xml version="1.0" encoding="UTF-8"?>
<!--Generator: Apple Native CoreSVG 341-->
<!DOCTYPE svg
PUBLIC "-//W3C//DTD SVG 1.1//EN"
       "http://www.w3.org/Graphics/SVG/1.1/DTD/svg11.dtd">
<svg version="1.1" xmlns="http://www.w3.org/2000/svg" xmlns:xlink="http://www.w3.org/1999/xlink" viewBox="0 0 1250.98 1148.93">
 <g>
  <rect height="1148.93" opacity="0" width="1250.98" x="0" y="0"/>
  <path d="M189.941 1148.93L1060.55 1148.93C1187.01 1148.93 1250.98 1085.45 1250.98 960.938L1250.98 189.453C1250.98 64.9414 1187.01 1.46484 1060.55 1.46484L189.941 1.46484C63.9648 1.46484 0 64.4531 0 189.453L0 960.938C0 1085.94 63.9648 1148.93 189.941 1148.93ZM183.105 1062.5C120.605 1062.5 86.4258 1029.3 86.4258 964.844L86.4258 382.324C86.4258 317.383 120.605 284.668 183.105 284.668L1066.89 284.668C1128.91 284.668 1164.06 317.383 1164.06 382.324L1164.06 964.844C1164.06 1029.3 1128.91 1062.5 1066.89 1062.5Z" fill="black" fill-opacity="0.85"/>
  <path d="M480.469 938.965C567.871 938.965 634.277 881.836 634.277 788.574C634.277 712.891 590.82 671.387 535.156 665.527L535.156 663.574C591.797 648.438 619.629 597.168 619.629 543.945C619.629 459.473 558.105 409.18 478.027 409.18C413.574 409.18 360.84 445.312 343.262 501.465C339.844 513.672 338.379 524.902 338.379 534.668C338.379 553.223 350.586 567.871 372.07 567.871C391.602 567.871 401.855 559.57 407.227 540.039C416.992 500.488 438.477 473.145 478.027 473.145C522.461 473.145 544.434 508.301 544.434 552.734C544.434 601.562 516.602 637.207 466.797 637.207L448.73 637.207C429.688 637.207 418.457 649.414 418.457 667.48C418.457 685.547 430.664 696.777 448.73 696.777L467.773 696.777C524.414 696.777 556.152 728.027 556.152 786.621C556.152 833.496 531.25 874.023 480.469 874.023C431.641 874.023 408.203 839.844 400.879 808.105C395.508 789.551 384.277 779.297 365.723 779.297C344.238 779.297 330.078 792.48 330.078 814.453C330.078 825.195 332.031 836.914 334.961 847.168C353.027 904.785 413.086 938.965 480.469 938.965ZM841.797 935.059C863.77 935.059 881.836 916.992 881.836 894.531L881.836 456.055C881.836 428.223 864.258 411.133 835.938 411.133C812.988 411.133 793.945 423.828 780.762 434.082L707.031 492.676C697.266 500 689.941 510.742 689.941 524.902C689.941 541.992 701.66 554.199 718.75 554.199C727.539 554.199 732.91 551.758 738.77 547.363L801.27 496.582L801.27 894.531C801.27 916.992 819.824 935.059 841.797 935.059Z" fill="black" fill-opacity="0.85"/>
 </g>
</svg>
