<?xml version="1.0" encoding="UTF-8"?>
<!--Generator: Apple Native CoreSVG 341-->
<!DOCTYPE svg
PUBLIC "-//W3C//DTD SVG 1.1//EN"
       "http://www.w3.org/Graphics/SVG/1.1/DTD/svg11.dtd">
<svg version="1.1" xmlns="http://www.w3.org/2000/svg" xmlns:xlink="http://www.w3.org/1999/xlink" viewBox="0 0 1250.98 1148.93">
 <g>
  <rect height="1148.93" opacity="0" width="1250.98" x="0" y="0"/>
  <path d="M189.941 1148.93L1060.55 1148.93C1187.01 1148.93 1250.98 1085.45 1250.98 960.938L1250.98 189.453C1250.98 64.9414 1187.01 1.46484 1060.55 1.46484L189.941 1.46484C63.9648 1.46484 0 64.4531 0 189.453L0 960.938C0 1085.94 63.9648 1148.93 189.941 1148.93ZM183.105 1062.5C120.605 1062.5 86.4258 1029.3 86.4258 964.844L86.4258 382.324C86.4258 317.383 120.605 284.668 183.105 284.668L1066.89 284.668C1128.91 284.668 1164.06 317.383 1164.06 382.324L1164.06 964.844C1164.06 1029.3 1128.91 1062.5 1066.89 1062.5Z" fill="black" fill-opacity="0.85"/>
  <path d="M701.66 952.148C726.074 952.148 739.746 936.523 739.746 910.156L739.746 827.148L791.016 827.148C811.523 827.148 825.195 813.477 825.195 793.457C825.195 773.926 812.012 760.254 791.016 760.254L739.746 760.254L739.746 449.219C739.746 416.992 715.332 395.02 678.711 395.02C643.066 395.02 621.094 407.715 600.098 438.965C541.016 527.832 456.543 652.832 407.715 731.934C397.949 748.535 394.043 761.23 394.043 776.367C394.043 807.129 415.039 827.148 448.242 827.148L664.551 827.148L664.551 910.156C664.551 936.035 678.711 952.148 701.66 952.148ZM664.551 760.254L470.215 760.254L470.215 756.348C513.184 682.617 603.516 548.828 660.645 462.891L664.551 462.891Z" fill="black" fill-opacity="0.85"/>
 </g>
</svg>
