<?xml version="1.0" encoding="UTF-8"?>
<!--Generator: Apple Native CoreSVG 341-->
<!DOCTYPE svg
PUBLIC "-//W3C//DTD SVG 1.1//EN"
       "http://www.w3.org/Graphics/SVG/1.1/DTD/svg11.dtd">
<svg version="1.1" xmlns="http://www.w3.org/2000/svg" xmlns:xlink="http://www.w3.org/1999/xlink" viewBox="0 0 1250.98 1148.93">
 <g>
  <rect height="1148.93" opacity="0" width="1250.98" x="0" y="0"/>
  <path d="M189.941 1148.93L1060.55 1148.93C1187.01 1148.93 1250.98 1085.45 1250.98 960.938L1250.98 189.453C1250.98 64.9414 1187.01 1.46484 1060.55 1.46484L189.941 1.46484C63.9648 1.46484 0 64.4531 0 189.453L0 960.938C0 1085.94 63.9648 1148.93 189.941 1148.93ZM183.105 1062.5C120.605 1062.5 86.4258 1029.3 86.4258 964.844L86.4258 382.324C86.4258 317.383 120.605 284.668 183.105 284.668L1066.89 284.668C1128.91 284.668 1164.06 317.383 1164.06 382.324L1164.06 964.844C1164.06 1029.3 1128.91 1062.5 1066.89 1062.5Z" fill="black" fill-opacity="0.85"/>
  <path d="M623.535 952.148C740.723 952.148 820.801 878.418 820.801 766.602C820.801 663.086 746.582 591.309 640.625 591.309C592.285 591.309 542.48 612.793 519.531 645.02L515.625 645.02L530.762 470.703L769.043 470.703C787.109 470.703 799.805 457.52 799.805 438.965C799.805 420.41 787.598 407.227 769.043 407.227L521.973 407.227C489.258 407.227 467.773 425.781 465.332 455.566L448.242 663.574C446.289 692.383 462.891 711.914 491.211 711.914C510.254 711.914 521.484 707.52 541.016 692.383C572.266 663.574 597.168 652.832 631.836 652.832C698.242 652.832 743.652 699.219 743.652 767.578C743.652 836.426 691.895 887.695 623.047 887.695C570.801 887.695 525.879 860.84 507.812 818.848C499.023 802.246 486.816 793.945 471.191 793.945C451.172 793.945 437.012 807.617 437.012 827.148C437.012 835.938 439.453 844.238 442.383 852.051C464.355 912.598 531.25 952.148 623.535 952.148Z" fill="black" fill-opacity="0.85"/>
 </g>
</svg>
