<?xml version="1.0" encoding="UTF-8"?>
<!--Generator: Apple Native CoreSVG 341-->
<!DOCTYPE svg
PUBLIC "-//W3C//DTD SVG 1.1//EN"
       "http://www.w3.org/Graphics/SVG/1.1/DTD/svg11.dtd">
<svg version="1.1" xmlns="http://www.w3.org/2000/svg" xmlns:xlink="http://www.w3.org/1999/xlink" viewBox="0 0 1250.98 1148.93">
 <g>
  <rect height="1148.93" opacity="0" width="1250.98" x="0" y="0"/>
  <path d="M189.941 1148.93L1060.55 1148.93C1187.01 1148.93 1250.98 1085.45 1250.98 960.938L1250.98 189.453C1250.98 64.9414 1187.01 1.46484 1060.55 1.46484L189.941 1.46484C63.9648 1.46484 0 64.4531 0 189.453L0 960.938C0 1085.94 63.9648 1148.93 189.941 1148.93ZM183.105 1062.5C120.605 1062.5 86.4258 1029.3 86.4258 964.844L86.4258 382.324C86.4258 317.383 120.605 284.668 183.105 284.668L1066.89 284.668C1128.91 284.668 1164.06 317.383 1164.06 382.324L1164.06 964.844C1164.06 1029.3 1128.91 1062.5 1066.89 1062.5Z" fill="black" fill-opacity="0.85"/>
  <path d="M630.859 952.148C746.582 952.148 828.125 882.812 828.125 765.625C828.125 656.738 746.094 592.773 651.855 592.773C572.266 592.773 525.391 632.324 503.906 678.711C502.93 678.711 500.977 678.711 500 678.711C500 676.758 500 674.805 500 672.363C500 542.48 556.152 460.449 641.602 460.449C685.059 460.449 714.355 480.469 731.445 505.859C747.07 522.461 756.836 531.738 774.902 531.738C791.992 531.738 805.664 519.531 805.664 500.977C805.664 493.164 804.199 486.328 801.27 479.004C784.668 437.012 722.656 395.02 644.531 395.02C508.789 395.02 425.293 494.629 425.293 687.5C425.293 766.113 438.965 825.195 462.402 864.258C498.535 925.293 561.523 952.148 630.859 952.148ZM627.93 890.137C558.105 890.137 507.812 839.355 507.812 768.555C507.812 700.684 557.617 651.855 628.418 651.855C699.707 651.855 748.535 699.707 748.535 769.531C748.535 842.773 701.172 890.137 627.93 890.137Z" fill="black" fill-opacity="0.85"/>
 </g>
</svg>
