<?xml version="1.0" encoding="UTF-8"?>
<!--Generator: Apple Native CoreSVG 341-->
<!DOCTYPE svg
PUBLIC "-//W3C//DTD SVG 1.1//EN"
       "http://www.w3.org/Graphics/SVG/1.1/DTD/svg11.dtd">
<svg version="1.1" xmlns="http://www.w3.org/2000/svg" xmlns:xlink="http://www.w3.org/1999/xlink" viewBox="0 0 1250.98 1148.93">
 <g>
  <rect height="1148.93" opacity="0" width="1250.98" x="0" y="0"/>
  <path d="M189.941 1148.93L1060.55 1148.93C1187.01 1148.93 1250.98 1085.45 1250.98 960.938L1250.98 189.453C1250.98 64.9414 1187.01 1.46484 1060.55 1.46484L189.941 1.46484C63.9648 1.46484 0 64.4531 0 189.453L0 960.938C0 1085.94 63.9648 1148.93 189.941 1148.93ZM183.105 1062.5C120.605 1062.5 86.4258 1029.3 86.4258 964.844L86.4258 382.324C86.4258 317.383 120.605 284.668 183.105 284.668L1066.89 284.668C1128.91 284.668 1164.06 317.383 1164.06 382.324L1164.06 964.844C1164.06 1029.3 1128.91 1062.5 1066.89 1062.5Z" fill="black" fill-opacity="0.85"/>
  <path d="M547.363 950.684C564.941 950.684 576.66 942.871 587.402 922.852L811.035 497.07C820.801 478.516 823.242 468.262 823.242 456.543C823.242 428.223 800.781 407.227 766.602 407.227L477.051 407.227C458.984 407.227 446.289 420.41 446.289 438.965C446.289 457.52 459.473 470.703 477.051 470.703L735.84 470.703L735.84 475.098L514.16 887.695C508.789 896.973 506.836 904.297 506.836 914.551C506.836 936.035 524.902 950.684 547.363 950.684Z" fill="black" fill-opacity="0.85"/>
 </g>
</svg>
