<?xml version="1.0" encoding="UTF-8"?>
<!--Generator: Apple Native CoreSVG 341-->
<!DOCTYPE svg
PUBLIC "-//W3C//DTD SVG 1.1//EN"
       "http://www.w3.org/Graphics/SVG/1.1/DTD/svg11.dtd">
<svg version="1.1" xmlns="http://www.w3.org/2000/svg" xmlns:xlink="http://www.w3.org/1999/xlink" viewBox="0 0 1250.98 1148.93">
 <g>
  <rect height="1148.93" opacity="0" width="1250.98" x="0" y="0"/>
  <path d="M189.941 1148.93L1060.55 1148.93C1187.01 1148.93 1250.98 1085.45 1250.98 960.938L1250.98 189.453C1250.98 64.9414 1187.01 1.46484 1060.55 1.46484L189.941 1.46484C63.9648 1.46484 0 64.4531 0 189.453L0 960.938C0 1085.94 63.9648 1148.93 189.941 1148.93ZM183.105 1062.5C120.605 1062.5 86.4258 1029.3 86.4258 964.844L86.4258 382.324C86.4258 317.383 120.605 284.668 183.105 284.668L1066.89 284.668C1128.91 284.668 1164.06 317.383 1164.06 382.324L1164.06 964.844C1164.06 1029.3 1128.91 1062.5 1066.89 1062.5Z" fill="black" fill-opacity="0.85"/>
  <path d="M625.977 952.148C747.07 952.148 831.055 887.695 831.055 793.945C831.055 729.004 782.715 674.316 713.379 660.645L713.379 657.227C771.484 640.625 808.594 592.773 808.594 537.109C808.594 453.613 733.398 395.02 626.465 395.02C520.02 395.02 444.824 453.613 444.824 537.109C444.824 592.773 480.957 639.16 540.039 657.227L540.039 660.645C470.215 674.316 422.363 729.492 422.363 794.434C422.363 888.184 504.395 952.148 625.977 952.148ZM626.953 895.02C553.223 895.02 499.512 851.562 499.512 790.527C499.512 731.934 553.711 688.477 626.953 688.477C701.66 688.477 754.395 731.445 754.395 790.527C754.395 851.562 700.684 895.02 626.953 895.02ZM626.465 633.789C564.453 633.789 520.02 595.215 520.02 542.48C520.02 490.234 563.965 452.637 626.465 452.637C689.453 452.637 733.398 490.234 733.398 542.48C733.398 595.215 688.965 633.789 626.465 633.789Z" fill="black" fill-opacity="0.85"/>
 </g>
</svg>
