<?xml version="1.0" encoding="UTF-8"?>
<!--Generator: Apple Native CoreSVG 341-->
<!DOCTYPE svg
PUBLIC "-//W3C//DTD SVG 1.1//EN"
       "http://www.w3.org/Graphics/SVG/1.1/DTD/svg11.dtd">
<svg version="1.1" xmlns="http://www.w3.org/2000/svg" xmlns:xlink="http://www.w3.org/1999/xlink" viewBox="0 0 1250.98 1148.93">
 <g>
  <rect height="1148.93" opacity="0" width="1250.98" x="0" y="0"/>
  <path d="M189.941 1148.93L1060.55 1148.93C1187.01 1148.93 1250.98 1085.45 1250.98 960.938L1250.98 189.453C1250.98 64.9414 1187.01 1.46484 1060.55 1.46484L189.941 1.46484C63.9648 1.46484 0 64.4531 0 189.453L0 960.938C0 1085.94 63.9648 1148.93 189.941 1148.93ZM183.105 1062.5C120.605 1062.5 86.4258 1029.3 86.4258 964.844L86.4258 382.324C86.4258 317.383 120.605 284.668 183.105 284.668L1066.89 284.668C1128.91 284.668 1164.06 317.383 1164.06 382.324L1164.06 964.844C1164.06 1029.3 1128.91 1062.5 1066.89 1062.5Z" fill="black" fill-opacity="0.85"/>
  <path d="M612.305 952.148C750.488 952.148 827.148 851.074 827.148 651.367C827.148 483.887 750 395.02 622.559 395.02C504.883 395.02 426.758 468.75 426.758 580.566C426.758 687.988 508.301 753.906 601.074 753.906C679.688 753.906 728.516 715.332 749.023 666.992L753.418 666.992C754.395 806.152 698.242 886.719 611.816 886.719C568.359 886.719 536.621 867.188 513.184 832.52C504.395 819.824 494.629 810.547 478.027 810.547C458.008 810.547 444.336 824.219 444.336 844.238C444.336 850.586 445.312 855.957 447.754 862.305C460.449 901.855 517.578 952.148 612.305 952.148ZM625 694.824C554.199 694.824 505.371 645.02 505.371 576.172C505.371 504.883 554.199 456.543 625.488 456.543C693.848 456.543 745.605 507.812 745.605 577.637C745.605 644.531 695.312 694.824 625 694.824Z" fill="black" fill-opacity="0.85"/>
 </g>
</svg>
