<?xml version="1.0" encoding="UTF-8"?>
<!--Generator: Apple Native CoreSVG 341-->
<!DOCTYPE svg
PUBLIC "-//W3C//DTD SVG 1.1//EN"
       "http://www.w3.org/Graphics/SVG/1.1/DTD/svg11.dtd">
<svg version="1.1" xmlns="http://www.w3.org/2000/svg" xmlns:xlink="http://www.w3.org/1999/xlink" viewBox="0 0 1303.22 1162.75">
 <g>
  <rect height="1162.75" opacity="0" width="1303.22" x="0" y="0"/>
  <path d="M0 438.062C0 599.195 59.5703 747.633 164.062 858.961C184.57 881.422 214.355 881.422 231.934 861.402C248.535 841.871 243.164 816.48 224.121 794.996C137.207 700.27 87.4023 575.758 87.4023 438.062C87.4023 299.879 137.207 175.367 224.121 81.1289C243.164 59.1562 248.535 33.7656 231.934 14.7226C214.355-5.2969 184.57-5.2969 164.062 17.164C59.5703 128.004 0 276.441 0 438.062ZM1071.78 861.402C1088.87 881.422 1119.14 881.422 1139.65 858.961C1243.65 747.633 1303.22 599.195 1303.22 438.062C1303.22 276.441 1243.65 128.004 1139.65 17.164C1119.14-5.2969 1088.87-5.2969 1071.78 14.7226C1054.69 33.7656 1060.06 59.1562 1079.1 81.1289C1166.5 175.367 1215.82 299.879 1215.82 438.062C1215.82 575.758 1166.5 700.27 1079.1 794.996C1060.06 816.48 1054.69 841.871 1071.78 861.402Z" fill="black" fill-opacity="0.85"/>
  <path d="M259.766 438.062C259.766 529.371 291.504 614.332 347.168 680.25C366.211 704.176 398.438 703.687 416.016 683.668C433.105 664.137 425.781 640.211 408.691 617.262C367.676 569.898 347.168 506.422 347.168 438.062C347.168 369.703 370.117 308.18 408.691 258.863C425.781 235.426 433.105 211.5 416.016 192.457C398.438 172.437 366.211 171.949 347.168 195.875C291.504 261.793 259.766 346.754 259.766 438.062ZM887.207 683.668C905.273 703.687 937.012 704.176 956.543 680.25C1011.72 614.332 1043.95 529.371 1043.95 438.062C1043.95 346.754 1011.72 261.793 956.543 195.875C937.012 171.949 905.273 172.437 887.207 192.457C870.605 211.5 877.93 235.426 894.531 258.863C933.594 308.18 956.055 369.703 956.055 438.062C956.055 506.422 936.035 569.898 894.531 617.262C877.441 640.211 870.605 664.137 887.207 683.668Z" fill="black" fill-opacity="0.85"/>
  <path d="M546.875 438.062C546.875 481.52 572.754 518.141 610.352 533.766L610.352 1109.45C610.352 1136.79 627.441 1155.84 651.855 1155.84C677.246 1155.84 692.871 1137.28 692.871 1109.45L692.871 533.766C730.469 518.141 756.836 481.031 756.836 438.062C756.836 379.469 710.449 332.594 651.855 332.594C593.262 332.594 546.875 379.469 546.875 438.062Z" fill="black" fill-opacity="0.85"/>
 </g>
</svg>
