<?xml version="1.0" encoding="UTF-8"?>
<!--Generator: Apple Native CoreSVG 341-->
<!DOCTYPE svg
PUBLIC "-//W3C//DTD SVG 1.1//EN"
       "http://www.w3.org/Graphics/SVG/1.1/DTD/svg11.dtd">
<svg version="1.1" xmlns="http://www.w3.org/2000/svg" xmlns:xlink="http://www.w3.org/1999/xlink" viewBox="0 0 1177.73 1307.13">
 <g>
  <rect height="1307.13" opacity="0" width="1177.73" x="0" y="0"/>
  <path d="M81.0547 1068.36L1096.19 1068.36C1146.97 1068.36 1177.73 1041.5 1177.73 1001.46C1177.73 937.988 1115.23 882.324 1062.01 826.66C1014.16 775.391 1006.84 670.898 998.535 581.543C990.234 358.887 926.27 201.66 763.672 146.484C742.188 62.9883 678.223 0 588.867 0C499.512 0 435.547 62.9883 414.062 146.484C251.465 201.66 187.5 358.887 179.199 581.543C170.898 670.898 163.574 775.391 115.723 826.66C62.0117 882.324 0 937.988 0 1001.46C0 1041.5 30.7617 1068.36 81.0547 1068.36ZM588.867 1307.13C692.871 1307.13 767.09 1231.93 777.344 1146L400.391 1146C410.156 1231.93 484.863 1307.13 588.867 1307.13Z" fill="black" fill-opacity="0.85"/>
 </g>
</svg>
