<?xml version="1.0" encoding="UTF-8"?>
<!--Generator: Apple Native CoreSVG 341-->
<!DOCTYPE svg
PUBLIC "-//W3C//DTD SVG 1.1//EN"
       "http://www.w3.org/Graphics/SVG/1.1/DTD/svg11.dtd">
<svg version="1.1" xmlns="http://www.w3.org/2000/svg" xmlns:xlink="http://www.w3.org/1999/xlink" viewBox="0 0 1373.05 1452.64">
 <g>
  <rect height="1452.64" opacity="0" width="1373.05" x="0" y="0"/>
  <path d="M83.9844 1123.54C83.9844 1162.11 95.2148 1192.38 116.211 1213.87L116.211 1369.14C116.211 1414.55 151.855 1450.68 198.242 1450.68L271.484 1450.68C317.871 1450.68 353.516 1415.04 353.516 1369.14L353.516 1268.55C455.566 1275.88 567.383 1279.79 686.035 1279.79C804.688 1279.79 916.992 1275.88 1019.53 1269.04L1019.53 1369.14C1019.53 1415.04 1055.18 1450.68 1101.56 1450.68L1174.8 1450.68C1221.19 1450.68 1256.84 1414.55 1256.84 1369.14L1256.84 1213.87C1277.83 1192.38 1289.06 1162.11 1289.06 1123.54L1289.06 156.25C1289.06 77.1484 1242.19 33.2031 1160.64 23.9258C1028.32 8.30078 857.422 0 686.035 0C514.648 0 343.75 8.30078 212.402 23.9258C130.371 33.2031 83.9844 77.1484 83.9844 156.25ZM686.035 1207.52C504.883 1207.52 348.633 1199.71 230.469 1185.55C175.781 1178.71 155.762 1152.34 155.762 1103.52L155.762 175.781C155.762 127.93 180.664 100.098 230.469 93.75C346.68 79.5898 511.23 71.7773 686.035 71.7773C857.422 72.2656 1021.97 79.5898 1142.09 93.75C1197.27 100.586 1217.29 127.441 1217.29 175.781L1217.29 1103.52C1217.29 1152.34 1197.27 1179.2 1142.09 1185.55C1020.02 1199.71 863.77 1207.52 686.035 1207.52ZM277.344 853.027C524.414 888.672 845.703 889.648 1095.7 853.027C1133.79 847.168 1152.83 825.195 1152.83 784.668L1152.83 231.445C1152.83 187.012 1131.84 162.109 1089.36 158.203C831.543 132.324 543.945 132.324 284.668 158.203C242.188 162.109 220.215 187.012 220.215 231.445L220.215 784.668C220.215 825.195 239.746 847.168 277.344 853.027ZM83.9844 587.891L83.9844 230.957L55.1758 230.957C21.9727 230.957 0 250.977 0 282.227L0 536.621C0 567.871 21.9727 587.891 55.1758 587.891ZM1289.06 587.891L1317.38 587.891C1351.07 587.891 1373.05 567.871 1373.05 536.621L1373.05 282.227C1373.05 250.977 1351.07 230.957 1317.38 230.957L1289.06 230.957ZM326.66 1103.03C368.164 1103.03 398.926 1072.27 398.926 1030.76C398.926 989.746 368.164 958.496 326.66 958.496C285.645 958.496 254.395 989.746 254.395 1030.76C254.395 1072.27 285.645 1103.03 326.66 1103.03ZM535.156 1082.03L835.449 1082.03C866.211 1082.03 887.695 1061.04 887.695 1029.79C887.695 999.023 866.211 978.516 835.449 978.516L535.156 978.516C504.395 978.516 482.91 999.023 482.91 1029.79C482.91 1061.04 504.395 1082.03 535.156 1082.03ZM1045.9 1103.03C1087.4 1103.03 1118.65 1072.27 1118.65 1030.76C1118.65 989.746 1087.4 958.496 1045.9 958.496C1004.88 958.496 973.633 989.746 973.633 1030.76C973.633 1072.27 1004.88 1103.03 1045.9 1103.03Z" fill="black" fill-opacity="0.85"/>
 </g>
</svg>
