<?xml version="1.0" encoding="UTF-8"?>
<!--Generator: Apple Native CoreSVG 341-->
<!DOCTYPE svg
PUBLIC "-//W3C//DTD SVG 1.1//EN"
       "http://www.w3.org/Graphics/SVG/1.1/DTD/svg11.dtd">
<svg version="1.1" xmlns="http://www.w3.org/2000/svg" xmlns:xlink="http://www.w3.org/1999/xlink" viewBox="0 0 1474.61 1157.71">
 <g>
  <rect height="1157.71" opacity="0" width="1474.61" x="0" y="0"/>
  <path d="M280.273 390.137C275.391 410.645 283.691 420.41 307.129 418.945C410.645 411.621 529.297 406.25 737.305 406.25C945.312 406.25 1063.96 411.621 1167.48 418.945C1190.92 420.41 1199.22 410.645 1194.82 390.137C1178.22 317.383 1149.9 232.91 1129.88 198.242C1112.79 168.457 1091.8 153.809 1054.69 148.438C1007.81 142.09 902.344 138.184 737.305 138.184C572.266 138.184 466.797 142.09 419.922 148.438C382.812 153.809 361.816 168.457 344.727 198.242C325.195 232.91 296.387 317.383 280.273 390.137ZM283.203 815.918C337.891 815.918 379.395 774.902 379.395 719.727C379.395 665.039 337.891 623.535 283.203 623.535C228.027 623.535 186.523 665.039 186.523 719.727C186.523 774.902 228.027 815.918 283.203 815.918ZM573.73 794.922L900.879 794.922C941.895 794.922 970.215 766.602 970.215 726.074C970.215 685.059 941.895 656.738 900.879 656.738L573.73 656.738C532.715 656.738 504.883 685.059 504.883 726.074C504.883 766.602 532.715 794.922 573.73 794.922ZM1191.89 815.918C1246.58 815.918 1288.09 774.902 1288.09 719.727C1288.09 665.039 1246.58 623.535 1191.89 623.535C1136.72 623.535 1095.21 665.039 1095.21 719.727C1095.21 774.902 1136.72 815.918 1191.89 815.918ZM737.305 987.305C946.289 987.305 1227.05 976.562 1346.19 962.891C1428.22 953.613 1474.61 909.668 1474.61 830.566L1474.61 719.727C1474.61 611.816 1451.66 554.199 1396 481.934L1342.29 412.109C1319.34 298.828 1277.34 179.199 1255.37 132.812C1222.17 62.0117 1157.23 22.4609 1077.15 11.7188C1034.67 5.85938 895.02 2.44141 737.305 2.44141C579.59 2.44141 439.941 6.34766 397.461 11.7188C317.383 21.4844 252.441 62.0117 219.238 132.812C197.266 179.199 155.762 298.828 132.324 412.109L78.6133 481.934C22.9492 554.199 0 611.816 0 719.727L0 830.566C0 909.668 46.3867 953.613 128.418 962.891C247.559 976.562 528.32 987.305 737.305 987.305ZM737.305 915.527C526.855 915.527 250.977 905.762 146.484 892.578C91.7969 886.23 71.7773 859.375 71.7773 811.035L71.7773 719.727C71.7773 632.324 85.9375 590.82 135.742 525.879L199.219 442.383C217.285 346.68 258.301 220.215 284.18 165.527C305.664 120.117 346.68 91.7969 406.25 84.4727C446.289 80.0781 575.195 74.2188 737.305 74.2188C899.414 74.2188 1030.27 80.0781 1067.38 84.4727C1128.42 92.2852 1168.95 120.605 1190.43 165.527C1216.8 220.215 1257.32 346.68 1275.39 442.383L1338.87 525.879C1388.67 590.82 1402.83 632.324 1402.83 719.727L1402.83 811.035C1402.83 859.375 1382.81 886.23 1328.12 892.578C1223.63 905.273 948.242 915.527 737.305 915.527ZM114.258 1157.71L187.5 1157.71C233.887 1157.71 269.531 1122.07 269.531 1076.17L269.531 934.082L32.2266 900.391L32.2266 1076.17C32.2266 1121.58 67.8711 1157.71 114.258 1157.71ZM1287.11 1157.71L1360.35 1157.71C1406.74 1157.71 1442.38 1122.07 1442.38 1076.17L1442.38 900.391L1205.08 934.082L1205.08 1076.17C1205.08 1122.07 1240.72 1157.71 1287.11 1157.71Z" fill="black" fill-opacity="0.85"/>
 </g>
</svg>
