<?xml version="1.0" encoding="UTF-8"?>
<!--Generator: Apple Native CoreSVG 341-->
<!DOCTYPE svg
PUBLIC "-//W3C//DTD SVG 1.1//EN"
       "http://www.w3.org/Graphics/SVG/1.1/DTD/svg11.dtd">
<svg version="1.1" xmlns="http://www.w3.org/2000/svg" xmlns:xlink="http://www.w3.org/1999/xlink" viewBox="0 0 988.283 1396.97">
 <g>
  <rect height="1396.97" opacity="0" width="988.283" x="0" y="0"/>
  <path d="M0.000798074 495.605C0.000798074 638.672 62.0125 769.043 160.645 859.375L161.134 1348.63C161.134 1381.35 178.223 1396.48 201.661 1396.48C222.169 1396.48 237.305 1383.79 252.93 1368.65L462.891 1159.67C476.563 1146.48 485.841 1142.09 494.63 1142.09C503.419 1142.09 512.696 1146.48 526.368 1159.67L735.841 1368.65C752.442 1385.25 768.067 1396.48 787.11 1396.48C811.524 1396.48 828.614 1381.35 828.614 1348.63L828.614 857.422C926.27 767.578 987.794 638.184 988.282 495.605C988.77 222.656 765.138 0 494.141 0C222.657 0 0.000798074 222.656 0.000798074 495.605ZM87.4031 495.605C87.4031 268.066 266.602 85.4492 494.63 85.4492C722.169 85.4492 900.88 268.066 901.368 495.605C901.856 722.656 722.169 906.25 494.63 905.762C266.602 905.273 87.4031 722.656 87.4031 495.605Z" fill="black" fill-opacity="0.85"/>
 </g>
</svg>
