<?xml version="1.0" encoding="UTF-8"?>
<!--Generator: Apple Native CoreSVG 341-->
<!DOCTYPE svg
PUBLIC "-//W3C//DTD SVG 1.1//EN"
       "http://www.w3.org/Graphics/SVG/1.1/DTD/svg11.dtd">
<svg version="1.1" xmlns="http://www.w3.org/2000/svg" xmlns:xlink="http://www.w3.org/1999/xlink" viewBox="0 0 1395.02 1154.79">
 <g>
  <rect height="1154.79" opacity="0" width="1395.02" x="0" y="0"/>
  <path d="M0 1111.82C0 1136.23 20.0195 1154.79 43.457 1154.79L1351.56 1154.79C1375 1154.79 1395.02 1136.23 1395.02 1111.82C1395.02 1087.4 1375 1068.85 1351.56 1068.85L43.457 1068.85C20.0195 1068.85 0 1087.4 0 1111.82Z" fill="black" fill-opacity="0.85"/>
  <path d="M1076.66 917.969C1076.66 951.66 1098.14 971.68 1133.3 971.68L1285.64 971.68C1319.82 971.68 1341.8 951.66 1341.8 917.969L1341.8 486.816C1341.8 453.613 1319.82 433.105 1285.64 433.105L1133.3 433.105C1098.14 433.105 1076.66 453.613 1076.66 486.816Z" fill="black" fill-opacity="0.85"/>
  <path d="M735.352 917.969C735.352 951.66 757.324 971.68 791.992 971.68L943.848 971.68C978.516 971.68 1000.49 951.66 1000.49 917.969L1000.49 199.219C1000.49 165.039 978.516 145.02 943.848 145.02L791.992 145.02C757.324 145.02 735.352 165.039 735.352 199.219Z" fill="black" fill-opacity="0.85"/>
  <path d="M394.043 917.969C394.043 951.66 416.016 971.68 450.195 971.68L602.539 971.68C637.207 971.68 659.18 951.66 659.18 917.969L659.18 53.7109C659.18 20.5078 637.207 0 602.539 0L450.195 0C416.016 0 394.043 20.5078 394.043 53.7109Z" fill="black" fill-opacity="0.85"/>
  <path d="M53.2227 917.969C53.2227 951.66 74.707 971.68 109.375 971.68L261.719 971.68C295.898 971.68 318.359 951.66 318.359 917.969L318.359 345.215C318.359 312.5 295.898 291.504 261.719 291.504L109.375 291.504C74.707 291.504 53.2227 312.5 53.2227 345.215Z" fill="black" fill-opacity="0.85"/>
 </g>
</svg>
