<?xml version="1.0" encoding="UTF-8"?>
<!--Generator: Apple Native CoreSVG 341-->
<!DOCTYPE svg
PUBLIC "-//W3C//DTD SVG 1.1//EN"
       "http://www.w3.org/Graphics/SVG/1.1/DTD/svg11.dtd">
<svg version="1.1" xmlns="http://www.w3.org/2000/svg" xmlns:xlink="http://www.w3.org/1999/xlink" viewBox="0 0 761.719 1065.92">
 <g>
  <rect height="1065.92" opacity="0" width="761.719" x="0" y="0"/>
  <path d="M0 532.715C0 546.387 5.37109 558.105 15.625 568.359L517.578 1051.27C526.855 1060.06 538.574 1065.43 552.246 1065.43C579.59 1065.43 601.074 1044.43 601.074 1016.6C601.074 1002.93 595.703 991.211 586.914 982.422L119.141 532.715L586.914 82.5195C595.703 73.7305 601.074 61.5234 601.074 48.3398C601.074 20.5078 579.59 0 552.246 0C538.574 0 526.855 4.88281 517.578 14.1602L15.625 497.07C5.37109 506.836 0 518.555 0 532.715Z" fill="black" fill-opacity="0.85"/>
 </g>
</svg>
