<?xml version="1.0" encoding="UTF-8"?>
<!--Generator: Apple Native CoreSVG 341-->
<!DOCTYPE svg
PUBLIC "-//W3C//DTD SVG 1.1//EN"
       "http://www.w3.org/Graphics/SVG/1.1/DTD/svg11.dtd">
<svg version="1.1" xmlns="http://www.w3.org/2000/svg" xmlns:xlink="http://www.w3.org/1999/xlink" viewBox="0 0 1271.97 1272.95">
 <g>
  <rect height="1272.95" opacity="0" width="1271.97" x="0" y="0"/>
  <path d="M635.742 1271.97C986.816 1271.97 1271.97 987.305 1271.97 636.23C1271.97 285.156 986.816 0 635.742 0C284.668 0 0 285.156 0 636.23C0 987.305 284.668 1271.97 635.742 1271.97ZM635.742 1181.15C334.473 1181.15 90.8203 937.5 90.8203 636.23C90.8203 334.961 334.473 91.3086 635.742 91.3086C937.012 91.3086 1180.66 334.961 1180.66 636.23C1180.66 937.5 937.012 1181.15 635.742 1181.15Z" fill="black" fill-opacity="0.85"/>
  <path d="M297.852 700.195L635.254 700.195C656.738 700.195 673.34 683.594 673.34 662.109L673.34 226.562C673.34 205.566 656.738 188.965 635.254 188.965C614.746 188.965 597.656 205.566 597.656 226.562L597.656 624.512L297.852 624.512C276.367 624.512 260.254 641.113 260.254 662.109C260.254 683.594 276.367 700.195 297.852 700.195Z" fill="black" fill-opacity="0.85"/>
 </g>
</svg>
