<?xml version="1.0" encoding="UTF-8"?>
<!--Generator: Apple Native CoreSVG 341-->
<!DOCTYPE svg
PUBLIC "-//W3C//DTD SVG 1.1//EN"
       "http://www.w3.org/Graphics/SVG/1.1/DTD/svg11.dtd">
<svg version="1.1" xmlns="http://www.w3.org/2000/svg" xmlns:xlink="http://www.w3.org/1999/xlink" viewBox="0 0 1514.75 1272.95">
 <g>
  <rect height="1272.95" opacity="0" width="1514.75" x="0" y="0"/>
  <path d="M40.0886 518.066C0.0495365 518.066-11.1809 545.41 11.7683 577.148L150.44 774.414C168.995 801.27 195.85 800.781 213.917 774.414L352.589 576.66C374.561 545.41 363.819 518.066 324.268 518.066ZM1393.12 636.23C1393.12 285.156 1108.45 0 757.374 0C406.3 0 122.12 284.668 121.632 636.719C122.12 662.109 142.139 681.641 166.553 681.641C191.456 681.641 212.452 661.621 212.452 636.23C212.452 334.961 456.104 91.3086 757.374 91.3086C1058.64 91.3086 1302.3 334.961 1302.3 636.23C1302.3 937.5 1058.64 1181.15 757.374 1181.15C570.362 1181.15 405.811 1086.43 309.132 943.848C293.018 921.875 267.628 915.039 245.167 928.711C223.682 941.406 217.335 972.168 234.913 996.094C349.659 1162.6 539.112 1271.97 757.374 1271.97C1108.45 1271.97 1393.12 987.305 1393.12 636.23Z" fill="black" fill-opacity="0.85"/>
  <path d="M757.374 273.438C731.983 273.438 711.475 293.457 711.475 319.336L711.475 674.316C711.475 689.453 715.87 700.684 725.635 713.867L878.468 915.039C898.487 940.918 926.319 944.336 948.78 927.734C968.8 913.086 971.729 885.742 953.663 861.816L755.909 593.262L803.272 739.258L803.272 319.336C803.272 293.457 782.764 273.438 757.374 273.438Z" fill="black" fill-opacity="0.85"/>
 </g>
</svg>
