<?xml version="1.0" standalone="no"?> <!DOCTYPE svg PUBLIC "-//W3C//DTD SVG 20010904//EN" "http://www.w3.org/TR/2001/REC-SVG-20010904/DTD/svg10.dtd"> <svg version="1.0" xmlns="http://www.w3.org/2000/svg" width="512.000000pt" height="512.000000pt" viewBox="0 0 512.000000 512.000000" preserveAspectRatio="xMidYMid meet"> <g transform="translate(0.000000,512.000000) scale(0.100000,-0.100000)" fill="#6b7280" stroke="none"> <path d="M1988 4805 c-187 -39 -381 -154 -492 -293 -141 -178 -206 -353 -206 -562 0 -368 229 -693 576 -819 222 -81 494 -62 697 47 212 114 373 315 439 547 33 115 33 335 0 450 -84 297 -318 531 -612 615 -97 28 -303 35 -402 15z"/> <path d="M925 4555 c-216 -58 -378 -215 -445 -430 -33 -104 -31 -253 4 -360 14 -44 38 -101 53 -127 93 -159 272 -281 446 -304 l49 -7 -31 62 c-84 165 -125 350 -125 556 -1 215 30 359 115 542 l38 83 -27 -1 c-15 0 -49 -6 -77 -14z"/> <path d="M3522 3209 c-271 -26 -529 -129 -751 -299 -71 -54 -191 -171 -254 -249 l-27 -33 -88 13 c-122 19 -393 17 -512 -5 -332 -59 -619 -208 -854 -441 -275 -272 -435 -620 -468 -1016 l-12 -146 28 -57 c32 -64 76 -99 146 -115 29 -7 357 -11 914 -11 l868 0 102 -103 c111 -113 208 -189 331 -258 800 -452 1814 -58 2101 817 202 617 -34 1302 -573 1660 -214 143 -444 223 -708 245 -122 10 -125 10 -243 -2z m393 -443 c156 -40 313 -122 426 -221 459 -406 482 -1097 50 -1525 -202 -201 -443 -300 -730 -300 -282 0 -529 101 -726 296 -199 197 -297 414 -312 695 -16 294 96 578 310 786 166 161 358 257 583 293 102 16 287 5 399 -24z"/> <path d="M3580 2364 c-96 -42 -130 -116 -130 -286 l0 -108 -100 0 c-54 0 -121 -5 -148 -10 -176 -38 -221 -271 -73 -375 42 -29 46 -30 182 -33 l139 -4 0 -111 c0 -123 9 -167 43 -218 72 -107 253 -111 330 -7 38 52 47 93 47 219 l0 117 139 4 c137 3 140 4 183 33 111 79 123 232 24 323 -53 49 -106 62 -246 62 l-100 0 0 113 c0 133 -10 175 -53 224 -59 67 -158 91 -237 57z"/> <path d="M957 2900 c-475 -53 -865 -426 -942 -901 -27 -170 -18 -244 41 -309 37 -41 106 -74 144 -68 18 2 29 21 60 108 172 479 503 867 945 1106 l90 48 -40 7 c-78 13 -221 17 -298 9z"/> </g> </svg>