<?xml version="1.0" encoding="UTF-8"?>
<!--Generator: Apple Native CoreSVG 341-->
<!DOCTYPE svg
PUBLIC "-//W3C//DTD SVG 1.1//EN"
       "http://www.w3.org/Graphics/SVG/1.1/DTD/svg11.dtd">
<svg version="1.1" xmlns="http://www.w3.org/2000/svg" xmlns:xlink="http://www.w3.org/1999/xlink" viewBox="0 0 1389.16 1148.93">
 <g>
  <rect height="1148.93" opacity="0" width="1389.16" x="0" y="0"/>
  <path d="M860.352 1148.93L1276.86 1148.93C1351.07 1148.93 1389.16 1112.79 1389.16 1035.16L1389.16 742.676C1389.16 665.039 1351.07 628.418 1276.86 628.418L860.352 628.418C785.645 628.418 748.047 665.039 748.047 742.676L748.047 1035.16C748.047 1112.79 785.645 1148.93 860.352 1148.93ZM861.816 1072.27C835.938 1072.27 824.707 1060.55 824.707 1034.67L824.707 743.164C824.707 717.285 835.938 705.078 861.816 705.078L1275.88 705.078C1300.78 705.078 1312.5 717.285 1312.5 743.164L1312.5 1034.67C1312.5 1060.55 1300.78 1072.27 1275.88 1072.27Z" fill="black" fill-opacity="0.85"/>
  <path d="M112.305 1148.93L528.809 1148.93C603.027 1148.93 641.113 1112.79 641.113 1035.16L641.113 742.676C641.113 665.039 603.027 628.418 528.809 628.418L112.305 628.418C38.0859 628.418 0 665.039 0 742.676L0 1035.16C0 1112.79 38.0859 1148.93 112.305 1148.93ZM113.281 1072.27C88.3789 1072.27 76.6602 1060.55 76.6602 1034.67L76.6602 743.164C76.6602 717.285 88.3789 705.078 113.281 705.078L527.344 705.078C552.246 705.078 564.453 717.285 564.453 743.164L564.453 1034.67C564.453 1060.55 552.246 1072.27 527.344 1072.27Z" fill="black" fill-opacity="0.85"/>
  <path d="M860.352 521.484L1276.86 521.484C1351.07 521.484 1389.16 485.352 1389.16 407.715L1389.16 115.234C1389.16 37.5977 1351.07 1.46484 1276.86 1.46484L860.352 1.46484C785.645 1.46484 748.047 37.5977 748.047 115.234L748.047 407.715C748.047 485.352 785.645 521.484 860.352 521.484ZM861.816 445.312C835.938 445.312 824.707 433.105 824.707 406.738L824.707 115.723C824.707 89.8438 835.938 78.125 861.816 78.125L1275.88 78.125C1300.78 78.125 1312.5 89.8438 1312.5 115.723L1312.5 406.738C1312.5 433.105 1300.78 445.312 1275.88 445.312Z" fill="black" fill-opacity="0.85"/>
  <path d="M112.305 521.484L528.809 521.484C603.027 521.484 641.113 485.352 641.113 407.715L641.113 115.234C641.113 37.5977 603.027 1.46484 528.809 1.46484L112.305 1.46484C38.0859 1.46484 0 37.5977 0 115.234L0 407.715C0 485.352 38.0859 521.484 112.305 521.484ZM113.281 445.312C88.3789 445.312 76.6602 433.105 76.6602 406.738L76.6602 115.723C76.6602 89.8438 88.3789 78.125 113.281 78.125L527.344 78.125C552.246 78.125 564.453 89.8438 564.453 115.723L564.453 406.738C564.453 433.105 552.246 445.312 527.344 445.312Z" fill="black" fill-opacity="0.85"/>
 </g>
</svg>
