<?xml version="1.0" encoding="UTF-8"?>
<!--Generator: Apple Native CoreSVG 341-->
<!DOCTYPE svg
PUBLIC "-//W3C//DTD SVG 1.1//EN"
       "http://www.w3.org/Graphics/SVG/1.1/DTD/svg11.dtd">
<svg version="1.1" xmlns="http://www.w3.org/2000/svg" xmlns:xlink="http://www.w3.org/1999/xlink" viewBox="0 0 1271.97 1272.95">
 <g>
  <rect height="1272.95" opacity="0" width="1271.97" x="0" y="0"/>
  <path d="M1271.97 636.23C1271.97 986.328 986.328 1271.97 635.742 1271.97C285.645 1271.97 0 986.328 0 636.23C0 285.645 285.645 0 635.742 0C986.328 0 1271.97 285.645 1271.97 636.23ZM616.211 293.945L616.211 349.609C523.438 356.934 442.383 412.109 442.383 502.93C442.383 596.191 521.484 631.836 600.586 650.879L616.211 654.785L616.211 857.422C556.641 853.027 512.695 826.172 495.117 769.531C487.793 751.465 478.516 744.141 462.891 744.141C445.801 744.141 432.129 755.371 432.129 774.414C432.129 780.273 433.105 786.621 435.059 792.969C456.543 871.582 537.109 908.691 616.211 914.062L616.211 972.168C616.211 982.91 625 991.699 635.742 991.699C646.484 991.699 655.273 982.91 655.273 972.168L655.273 914.062C754.395 908.691 839.844 858.887 839.844 756.836C839.844 662.598 763.672 625.488 675.781 604.98L655.273 600.098L655.273 407.227C710.449 411.621 751.953 439.941 766.602 491.211C771.973 508.789 783.203 517.578 798.828 517.578C813.965 517.578 830.078 507.812 830.078 488.281C830.078 414.551 743.164 356.934 655.273 349.609L655.273 293.945C655.273 283.691 646.484 274.902 635.742 274.902C625 274.902 616.211 283.691 616.211 293.945ZM664.062 666.016C722.656 680.176 775.391 701.66 775.391 761.719C775.391 828.125 717.773 853.516 655.273 857.91L655.273 664.062ZM616.211 591.309L610.84 589.844C557.129 576.66 506.836 552.734 506.836 498.047C506.836 441.406 561.035 413.086 616.211 407.227Z" fill="black" fill-opacity="0.85"/>
 </g>
</svg>
