<?xml version="1.0" encoding="UTF-8"?>
<!--Generator: Apple Native CoreSVG 341-->
<!DOCTYPE svg
PUBLIC "-//W3C//DTD SVG 1.1//EN"
       "http://www.w3.org/Graphics/SVG/1.1/DTD/svg11.dtd">
<svg version="1.1" xmlns="http://www.w3.org/2000/svg" xmlns:xlink="http://www.w3.org/1999/xlink" viewBox="0 0 1506.84 1072.75">
 <g>
  <rect height="1072.75" opacity="0" width="1506.84" x="0" y="0"/>
  <path d="M189.941 1072.75L1331.54 1072.75C1442.38 1072.75 1506.84 1008.79 1506.84 884.277L1506.84 188.477C1506.84 63.9648 1441.89 0.488281 1316.41 0.488281L175.293 0.488281C64.4531 0.488281 0 63.9648 0 188.477L0 884.277C0 1008.79 64.9414 1072.75 189.941 1072.75ZM187.988 990.234C120.605 990.234 82.5195 953.125 82.5195 883.789L82.5195 188.477C82.5195 120.117 120.605 83.0078 187.988 83.0078L1318.85 83.0078C1386.23 83.0078 1423.83 120.117 1423.83 188.965L1423.83 884.277C1423.83 953.125 1386.23 990.234 1318.85 990.234ZM752.93 695.312C791.992 695.312 828.613 680.664 863.77 648.926L1458.01 114.258L1401.37 57.6172L815.43 584.961C794.922 603.516 774.414 612.305 752.93 612.305C731.445 612.305 711.426 603.516 690.918 584.961L104.492 57.6172L47.8516 114.258L642.578 648.926C677.734 680.664 713.867 695.312 752.93 695.312ZM114.258 999.512L568.848 544.922L512.207 488.77L57.6172 942.383ZM1393.07 1000L1449.22 942.871L994.629 488.77L937.988 544.922Z" fill="black" fill-opacity="0.85"/>
 </g>
</svg>
