<?xml version="1.0" encoding="UTF-8"?>
<!--Generator: Apple Native CoreSVG 341-->
<!DOCTYPE svg
PUBLIC "-//W3C//DTD SVG 1.1//EN"
       "http://www.w3.org/Graphics/SVG/1.1/DTD/svg11.dtd">
<svg version="1.1" xmlns="http://www.w3.org/2000/svg" xmlns:xlink="http://www.w3.org/1999/xlink" viewBox="0 0 1702.64 1073.73">
 <g>
  <rect height="1073.73" opacity="0" width="1702.64" x="0" y="0"/>
  <path d="M851.562 1073.73C1353.03 1073.73 1702.64 664.551 1702.64 537.109C1702.64 409.668 1351.07 0.976562 851.562 0.976562C356.934 0.976562 0 409.668 0 537.109C0 664.551 355.469 1073.73 851.562 1073.73ZM851.562 987.305C428.223 987.305 95.2148 628.418 95.2148 537.109C95.2148 457.031 428.223 86.9141 851.562 86.9141C1274.41 86.9141 1607.42 457.031 1607.42 537.109C1607.42 628.418 1274.41 987.305 851.562 987.305ZM851.562 889.648C1046.88 889.648 1205.08 730.957 1205.08 536.133C1205.08 340.82 1046.88 182.617 851.562 182.617C656.738 182.617 498.047 340.82 498.047 536.133C498.047 730.957 656.738 889.648 851.562 889.648ZM851.562 650.879C788.086 650.879 737.305 599.609 737.305 536.621C737.305 473.145 788.086 421.875 851.562 421.875C915.039 421.875 966.309 473.145 966.309 536.621C966.309 599.609 915.039 650.879 851.562 650.879Z" fill="black" fill-opacity="0.85"/>
 </g>
</svg>
