<?xml version="1.0" encoding="UTF-8"?>
<!--Generator: Apple Native CoreSVG 341-->
<!DOCTYPE svg
PUBLIC "-//W3C//DTD SVG 1.1//EN"
       "http://www.w3.org/Graphics/SVG/1.1/DTD/svg11.dtd">
<svg version="1.1" xmlns="http://www.w3.org/2000/svg" xmlns:xlink="http://www.w3.org/1999/xlink" viewBox="0 0 1309.57 1310.06">
 <g>
  <rect height="1310.06" opacity="0" width="1309.57" x="0" y="0"/>
  <path d="M595.703 1310.06L713.867 1310.06C747.559 1310.06 770.996 1290.53 778.809 1256.84L811.035 1120.61C833.496 1112.79 855.957 1104 875.977 1094.73L995.117 1168.46C1023.44 1186.52 1054.69 1183.59 1077.64 1160.16L1160.64 1077.64C1184.08 1054.2 1187.5 1022.46 1168.46 993.652L1095.21 875.488C1104.49 854.492 1113.28 833.008 1120.12 811.523L1257.32 779.297C1291.02 771.484 1309.57 748.047 1309.57 714.355L1309.57 597.656C1309.57 564.453 1291.02 541.504 1257.32 533.203L1121.09 500.488C1113.28 477.051 1104 455.566 1096.19 436.523L1169.43 316.406C1187.5 287.598 1185.55 257.812 1161.62 233.887L1077.64 150.879C1053.71 128.906 1024.9 124.023 996.582 142.09L875.977 216.797C856.445 207.031 834.473 198.73 811.035 190.918L778.809 53.2227C770.996 19.5312 747.559 0 713.867 0L595.703 0C562.012 0 538.574 19.5312 530.762 53.2227L498.535 189.941C476.074 197.754 453.613 206.055 433.105 216.309L312.988 142.09C284.668 124.023 254.883 127.93 231.934 150.879L147.949 233.887C124.023 257.812 122.07 287.598 140.137 316.406L213.379 436.523C205.566 455.566 196.289 477.051 188.477 500.488L52.2461 533.203C19.043 541.504 0 564.453 0 597.656L0 714.355C0 748.047 19.043 771.484 52.2461 779.297L189.453 811.523C196.289 833.008 205.078 854.492 214.355 875.488L141.113 993.652C122.07 1022.46 125.488 1054.2 148.926 1077.64L231.934 1160.16C254.883 1183.59 286.133 1186.52 314.453 1168.46L433.594 1094.73C454.102 1104 476.074 1112.79 498.535 1120.61L530.762 1256.84C538.574 1290.53 562.012 1310.06 595.703 1310.06ZM654.785 878.906C531.25 878.906 430.664 778.32 430.664 654.785C430.664 531.25 531.25 430.664 654.785 430.664C778.32 430.664 878.906 531.25 878.906 654.785C878.906 778.32 778.32 878.906 654.785 878.906Z" fill="black" fill-opacity="0.85"/>
 </g>
</svg>
