<?xml version="1.0" encoding="UTF-8"?>
<!--Generator: Apple Native CoreSVG 341-->
<!DOCTYPE svg
PUBLIC "-//W3C//DTD SVG 1.1//EN"
       "http://www.w3.org/Graphics/SVG/1.1/DTD/svg11.dtd">
<svg version="1.1" xmlns="http://www.w3.org/2000/svg" xmlns:xlink="http://www.w3.org/1999/xlink" viewBox="0 0 1271.97 1272.95">
 <g>
  <rect height="1272.95" opacity="0" width="1271.97" x="0" y="0"/>
  <path d="M1271.97 636.23C1271.97 987.305 986.816 1271.97 635.742 1271.97C284.668 1271.97 0 987.305 0 636.23C0 285.156 284.668 0 635.742 0C986.816 0 1271.97 285.156 1271.97 636.23ZM610.259 31.9286C569.412 37.837 530.547 58.6285 495.348 91.9258C402.551 115.827 319.031 162.869 251.452 226.7C247.375 223.994 243.513 221.156 239.746 218.262C223.145 205.566 202.637 204.59 188.477 218.262C174.805 231.934 174.805 254.395 189.941 268.066C194.072 271.63 198.396 275.142 203.074 278.549C129.663 366.787 83.1118 478.091 75.757 600.098L64.9414 600.098C44.9219 600.098 28.8086 616.211 28.8086 636.23C28.8086 655.762 44.9219 671.875 64.9414 671.875L75.7341 671.875C83.0596 794.795 130.284 906.914 204.776 995.483C199.52 999.339 194.607 1003.3 189.941 1007.32C174.805 1021 174.805 1043.46 188.477 1057.13C202.637 1070.8 223.145 1069.82 239.746 1057.13C244.134 1053.76 248.649 1050.46 253.38 1047.3C320.176 1109.55 402.209 1155.64 493.246 1179.45C528.172 1213.11 566.748 1234.42 607.287 1241C613.786 1249.71 624.163 1255.37 635.742 1255.37C647.644 1255.37 658.165 1249.68 664.708 1240.93C705.183 1234.27 743.65 1212.98 778.461 1179.44C869.612 1155.63 951.715 1109.53 1018.55 1047.27C1023.3 1050.44 1027.83 1053.75 1032.23 1057.13C1048.34 1069.82 1069.34 1070.8 1083.01 1057.13C1096.68 1043.46 1097.17 1021 1082.03 1007.32C1077.36 1003.29 1072.44 999.326 1067.17 995.462C1141.69 906.897 1188.91 794.785 1196.24 671.875L1216.8 671.875C1236.82 671.875 1252.93 655.762 1252.93 636.23C1252.93 616.211 1236.82 600.098 1216.8 600.098L1196.22 600.098C1188.86 478.1 1142.31 366.804 1068.87 278.569C1073.56 275.155 1077.89 271.637 1082.03 268.066C1097.17 254.395 1096.68 231.934 1083.01 218.262C1069.34 204.59 1048.34 205.566 1032.23 218.262C1028.45 221.166 1024.57 224.013 1020.48 226.729C952.861 162.889 869.271 115.84 776.359 91.9335C741.272 58.7483 702.51 37.9832 661.719 31.9991C655.176 25.2007 645.969 20.9961 635.742 20.9961C625.799 20.9961 616.741 25.1724 610.259 31.9286Z" fill="black" fill-opacity="0.85"/>
  <path d="M600.098 1171.09L600.098 1219.73C600.098 1227.75 602.819 1235.2 607.411 1241.17C513.529 1225.53 429.978 1132.13 377.901 988.573C400.424 981.5 424.405 975.503 449.817 970.66C487.452 1074.5 541.193 1149.19 600.098 1171.09ZM893.75 988.48C841.843 1131.87 758.516 1225.25 664.572 1241.11C669.172 1235.15 671.875 1227.73 671.875 1219.73L671.875 1170.93C730.793 1148.87 784.352 1074.26 821.836 970.618C847.249 975.449 871.228 981.43 893.75 988.48ZM428.774 903.366C403.634 908.637 379.626 914.89 357.052 922.073C337.006 847.987 324.693 763.599 322.251 671.875L395.621 671.875C398.152 754.504 410.03 833.478 428.774 903.366ZM914.55 921.974C891.979 914.808 867.972 908.57 842.833 903.309C861.521 833.435 873.346 754.482 875.866 671.875L949.235 671.875C946.802 763.558 934.537 847.913 914.55 921.974ZM427.787 371.801C409.798 440.324 398.343 517.938 395.713 600.098L322.375 600.098C324.967 509.646 337.091 426.418 356.706 353.211C379.081 360.343 402.87 366.56 427.787 371.801ZM949.112 600.098L875.774 600.098C873.156 517.961 861.752 440.367 843.818 371.859C868.735 366.628 892.523 360.426 914.895 353.31C934.453 426.494 946.529 509.687 949.112 600.098ZM894.29 286.733C872.019 293.738 848.309 299.688 823.179 304.501C785.643 199.008 731.504 124.234 671.875 102.366L671.875 57.1289C671.875 47.2948 667.987 38.4033 661.643 31.9151C757.281 46.285 841.945 140.755 894.29 286.733ZM600.098 57.1289L600.098 102.209C540.483 123.916 486.159 198.766 448.472 304.458C423.344 299.632 399.631 293.667 377.36 286.64C429.874 140.503 514.761 46.0079 610.324 31.8569C604.008 38.352 600.098 47.2664 600.098 57.1289Z" fill="black" fill-opacity="0.85"/>
  <path d="M635.742 1255.37C655.762 1255.37 671.875 1239.26 671.875 1219.73L671.875 57.1289C671.875 37.1094 655.762 20.9961 635.742 20.9961C616.211 20.9961 600.098 37.1094 600.098 57.1289L600.098 1219.73C600.098 1239.26 616.211 1255.37 635.742 1255.37ZM239.746 1057.13C326.172 990.723 462.402 954.102 635.742 954.102C809.57 954.102 945.801 990.723 1032.23 1057.13C1048.34 1069.82 1069.34 1070.8 1083.01 1057.13C1096.68 1043.46 1097.17 1021 1082.03 1007.32C996.582 933.594 828.125 882.324 635.742 882.324C443.848 882.324 275.391 933.594 189.941 1007.32C174.805 1021 174.805 1043.46 188.477 1057.13C202.637 1070.8 223.145 1069.82 239.746 1057.13ZM64.9414 671.875L1216.8 671.875C1236.82 671.875 1252.93 655.762 1252.93 636.23C1252.93 616.211 1236.82 600.098 1216.8 600.098L64.9414 600.098C44.9219 600.098 28.8086 616.211 28.8086 636.23C28.8086 655.762 44.9219 671.875 64.9414 671.875ZM635.742 393.066C828.125 393.066 996.582 341.797 1082.03 268.066C1097.17 254.395 1096.68 231.934 1083.01 218.262C1069.34 204.59 1048.34 205.566 1032.23 218.262C945.801 284.668 809.57 321.289 635.742 321.289C462.402 321.289 326.172 284.668 239.746 218.262C223.145 205.566 202.637 204.59 188.477 218.262C174.805 231.934 174.805 254.395 189.941 268.066C275.391 341.797 443.848 393.066 635.742 393.066Z" fill="black" fill-opacity="0.85"/>
 </g>
</svg>
