<?xml version="1.0" encoding="UTF-8"?>
<!--Generator: Apple Native CoreSVG 341-->
<!DOCTYPE svg
PUBLIC "-//W3C//DTD SVG 1.1//EN"
       "http://www.w3.org/Graphics/SVG/1.1/DTD/svg11.dtd">
<svg version="1.1" xmlns="http://www.w3.org/2000/svg" xmlns:xlink="http://www.w3.org/1999/xlink" viewBox="0 0 1236.82 1370.61">
 <g>
  <rect height="1370.61" opacity="0" width="1236.82" x="0" y="0"/>
  <path d="M0 897.949C0 1096.19 128.906 1260.25 283.691 1260.25L479.004 1260.25C555.664 1300.29 648.926 1323.73 752.93 1323.73L834.473 1323.73C909.18 1323.73 971.68 1319.82 1013.67 1309.08C1092.77 1289.55 1142.09 1235.35 1142.09 1166.02C1142.09 1149.41 1139.16 1135.25 1134.28 1121.09C1175.78 1091.8 1199.22 1047.85 1199.22 998.535C1199.22 973.633 1194.34 948.73 1184.08 929.199C1212.89 903.32 1229 862.305 1229 818.848C1229 790.039 1221.68 759.766 1208.5 739.258C1226.56 716.309 1236.82 683.105 1236.82 646.973C1236.82 562.012 1170.41 494.629 1085.94 494.629L863.77 494.629C844.238 494.629 832.031 485.84 832.031 469.727C832.031 403.809 932.617 253.906 932.617 134.766C932.617 56.1523 878.418 0 802.734 0C747.07 0 709.961 29.2969 673.34 100.098C600.098 241.699 520.508 352.539 374.512 533.691L261.23 533.691C117.188 533.691 0 695.801 0 897.949ZM333.008 895.996C333.008 766.602 362.305 684.57 443.359 576.172C532.715 456.543 655.762 313.965 744.629 136.719C768.066 91.3086 782.715 80.0781 805.664 80.0781C833.984 80.0781 852.539 100.098 852.539 134.766C852.539 232.422 751.953 377.93 751.953 469.727C751.953 534.668 805.176 574.707 874.512 574.707L1085.94 574.707C1125.98 574.707 1156.74 605.957 1156.74 646.973C1156.74 675.293 1147.95 693.848 1126.46 715.332C1114.26 725.586 1112.79 739.746 1123.54 751.953C1141.11 776.367 1148.93 794.922 1148.93 818.848C1148.93 847.656 1135.25 872.07 1109.86 891.602C1094.24 902.832 1088.38 918.457 1097.66 937.012C1111.82 962.402 1119.14 976.562 1119.14 998.535C1119.14 1030.76 1098.63 1056.15 1057.13 1077.15C1042.97 1084.96 1039.06 1096.68 1046.39 1110.84C1059.57 1143.07 1061.52 1150.39 1061.52 1166.02C1061.52 1196.29 1039.55 1220.21 995.117 1231.45C959.961 1240.72 903.809 1244.14 834.961 1244.14L758.301 1244.14C503.906 1244.14 333.008 1098.63 333.008 895.996ZM80.0781 897.949C80.0781 740.234 166.016 613.77 261.23 613.77C281.738 613.77 301.758 613.77 322.266 613.77C273.438 700.195 252.93 787.109 252.93 894.531C252.93 1008.3 295.898 1106.93 373.047 1179.69C343.262 1179.69 313.477 1179.69 283.691 1179.69C175.293 1179.69 80.0781 1052.25 80.0781 897.949Z" fill="black" fill-opacity="0.85"/>
 </g>
</svg>
