<?xml version="1.0" encoding="UTF-8"?>
<!--Generator: Apple Native CoreSVG 341-->
<!DOCTYPE svg
PUBLIC "-//W3C//DTD SVG 1.1//EN"
       "http://www.w3.org/Graphics/SVG/1.1/DTD/svg11.dtd">
<svg version="1.1" xmlns="http://www.w3.org/2000/svg" xmlns:xlink="http://www.w3.org/1999/xlink" viewBox="0 0 1271.97 1272.95">
 <g>
  <rect height="1272.95" opacity="0" width="1271.97" x="0" y="0"/>
  <path d="M635.742 1271.97C986.816 1271.97 1271.97 987.305 1271.97 636.23C1271.97 285.156 986.816 0 635.742 0C284.668 0 0 285.156 0 636.23C0 987.305 284.668 1271.97 635.742 1271.97ZM635.742 1181.15C334.473 1181.15 90.8203 937.5 90.8203 636.23C90.8203 334.961 334.473 91.3086 635.742 91.3086C937.012 91.3086 1180.66 334.961 1180.66 636.23C1180.66 937.5 937.012 1181.15 635.742 1181.15Z" fill="black" fill-opacity="0.85"/>
  <path d="M523.926 985.84L781.25 985.84C803.711 985.84 821.289 969.238 821.289 947.266C821.289 925.781 803.711 908.691 781.25 908.691L695.312 908.691L695.312 567.383C695.312 539.062 680.664 519.531 653.32 519.531L533.203 519.531C510.742 519.531 493.164 536.133 493.164 557.617C493.164 579.59 510.742 596.191 533.203 596.191L609.863 596.191L609.863 908.691L523.926 908.691C501.465 908.691 484.375 925.781 484.375 947.266C484.375 969.238 501.465 985.84 523.926 985.84ZM631.348 408.203C672.852 408.203 705.078 375 705.078 334.473C705.078 292.969 672.852 259.766 631.348 259.766C590.332 259.766 557.617 292.969 557.617 334.473C557.617 375 590.332 408.203 631.348 408.203Z" fill="black" fill-opacity="0.85"/>
 </g>
</svg>
