<?xml version="1.0" encoding="UTF-8"?>
<!--Generator: Apple Native CoreSVG 341-->
<!DOCTYPE svg
PUBLIC "-//W3C//DTD SVG 1.1//EN"
       "http://www.w3.org/Graphics/SVG/1.1/DTD/svg11.dtd">
<svg version="1.1" xmlns="http://www.w3.org/2000/svg" xmlns:xlink="http://www.w3.org/1999/xlink" viewBox="0 0 1321.78 1182.13">
 <g>
  <rect height="1182.13" opacity="0" width="1321.78" x="0" y="0"/>
  <path d="M0 277.832C0 744.141 278.809 1049.8 708.496 1049.8C1007.32 1049.8 1217.77 856.934 1217.77 584.961C1217.77 323.73 1005.37 134.766 710.449 134.766C608.887 134.766 504.883 164.062 389.16 164.062C288.086 164.062 203.125 132.812 133.789 53.2227C99.6094 14.1602 34.668 11.2305 19.043 76.6602C3.90625 136.719 0 243.652 0 277.832ZM81.543 277.832C81.543 229.004 83.0078 180.664 89.3555 144.043C90.8203 134.277 96.6797 133.301 103.516 140.137C177.246 210.449 289.062 245.605 389.16 245.605C456.055 245.605 518.066 236.816 573.242 229.492C623.047 222.168 667.969 216.309 710.449 216.309C959.961 216.309 1136.23 369.629 1136.23 584.961C1136.23 811.035 961.426 968.262 708.496 968.262C324.707 968.262 81.543 699.219 81.543 277.832ZM365.234 423.828C403.32 539.062 514.16 589.844 678.711 630.371C881.348 679.199 978.516 724.121 1067.38 839.355C1132.32 920.898 1149.9 1016.11 1189.45 1142.09C1198.73 1171.39 1218.75 1182.13 1240.72 1182.13C1286.13 1182.13 1321.78 1140.14 1321.78 1087.89C1321.78 999.512 1221.68 849.609 1156.25 766.113C1067.38 656.25 924.805 593.262 706.055 555.664C574.219 530.762 472.656 499.023 401.367 406.25C384.277 383.301 357.422 398.926 365.234 423.828Z" fill="black" fill-opacity="0.85"/>
 </g>
</svg>
