<?xml version="1.0" encoding="UTF-8"?>
<!--Generator: Apple Native CoreSVG 341-->
<!DOCTYPE svg
PUBLIC "-//W3C//DTD SVG 1.1//EN"
       "http://www.w3.org/Graphics/SVG/1.1/DTD/svg11.dtd">
<svg version="1.1" xmlns="http://www.w3.org/2000/svg" xmlns:xlink="http://www.w3.org/1999/xlink" viewBox="0 0 1316.53 1329.71">
 <g>
  <rect height="1329.71" opacity="0" width="1316.53" x="0" y="0"/>
  <path d="M643.616 403.87L570.862 477.112C661.683 480.042 720.765 505.433 766.663 551.82C878.968 663.636 878.48 824.28 766.175 936.097L560.609 1141.66C447.816 1253.97 288.148 1254.94 176.331 1143.13C63.5383 1030.34 64.5148 870.179 176.82 758.362L315.491 619.202C301.331 585.999 297.425 545.472 304.261 508.851L110.902 702.21C-36.0711 849.183-38.0242 1058.17 111.39 1207.58C260.804 1357 470.277 1355.04 616.761 1208.07L832.093 992.737C979.066 845.277 981.019 636.292 831.605 486.878C787.171 442.933 731.995 413.636 643.616 403.87ZM672.913 915.101L745.179 841.859C654.847 838.929 595.765 813.538 549.866 767.152C437.562 655.335 438.05 494.691 550.355 382.874L755.921 177.308C868.714 65.0031 1028.38 64.0266 1140.2 175.843C1252.99 288.636 1252.01 448.792 1139.71 560.609L1001.04 699.769C1015.2 732.972 1019.1 773.499 1012.27 810.12L1205.63 616.761C1352.6 469.788 1354.07 260.804 1205.14 111.39C1055.24-38.0242 846.253-36.0711 699.769 110.902L484.437 326.234C337.464 473.206 335.511 682.679 484.925 832.093C529.359 876.038 584.046 905.335 672.913 915.101Z" fill="black" fill-opacity="0.85"/>
 </g>
</svg>
