<?xml version="1.0" encoding="UTF-8"?>
<!--Generator: Apple Native CoreSVG 341-->
<!DOCTYPE svg
PUBLIC "-//W3C//DTD SVG 1.1//EN"
       "http://www.w3.org/Graphics/SVG/1.1/DTD/svg11.dtd">
<svg version="1.1" xmlns="http://www.w3.org/2000/svg" xmlns:xlink="http://www.w3.org/1999/xlink" viewBox="0 0 856.934 1261.23">
 <g>
  <rect height="1261.23" opacity="0" width="856.934" x="0" y="0"/>
  <path d="M136.719 1227.54L720.215 1227.54C807.617 1227.54 856.934 1176.76 856.934 1083.01L856.934 638.672C856.934 545.41 807.617 494.629 720.215 494.629L136.719 494.629C48.8281 494.629 0 545.41 0 638.672L0 1083.01C0 1176.76 48.8281 1227.54 136.719 1227.54ZM111.816 536.133L197.754 536.133L197.754 336.426C197.754 173.828 300.781 81.543 428.223 81.543C555.664 81.543 659.668 173.828 659.668 336.426L659.668 536.133L745.605 536.133L745.605 346.68C745.605 119.141 597.168 0 428.223 0C259.766 0 111.816 119.141 111.816 346.68Z" fill="black" fill-opacity="0.85"/>
 </g>
</svg>
