<?xml version="1.0" encoding="UTF-8"?>
<!--Generator: Apple Native CoreSVG 341-->
<!DOCTYPE svg
PUBLIC "-//W3C//DTD SVG 1.1//EN"
       "http://www.w3.org/Graphics/SVG/1.1/DTD/svg11.dtd">
<svg version="1.1" xmlns="http://www.w3.org/2000/svg" xmlns:xlink="http://www.w3.org/1999/xlink" viewBox="0 0 1175.78 1556.15">
 <g>
  <rect height="1556.15" opacity="0" width="1175.78" x="0" y="0"/>
  <path d="M1175.78 1189.45C1175.78 1346.19 931.152 1455.57 588.379 1455.57C245.117 1455.57 0 1346.19 0 1189.45C0 1058.31 172.668 960.191 431.152 932.077L431.152 1010.74C431.152 1013.25 431.164 1015.75 431.305 1018.06C240.865 1041.4 107.91 1107.08 107.91 1189.45C107.91 1293.46 317.871 1370.61 587.891 1370.61C856.934 1370.61 1067.87 1292.48 1067.87 1189.45C1067.87 1107.77 934.018 1041.58 743.502 1018.08C743.641 1015.77 743.652 1013.26 743.652 1010.74L743.652 931.876C1002.68 959.751 1175.78 1058.02 1175.78 1189.45Z" fill="black" fill-opacity="0.85"/>
  <path d="M808.594 328.613C808.594 434.082 735.352 522.461 636.719 543.945L636.719 991.211C636.719 1150.39 609.375 1235.35 587.891 1235.35C566.406 1235.35 538.574 1149.41 538.574 991.211L538.574 543.945C439.453 521.973 366.699 434.082 366.699 328.613C366.699 206.543 464.844 106.934 587.891 106.934C710.449 106.934 808.594 206.543 808.594 328.613ZM447.266 263.184C447.266 304.199 482.91 339.355 522.949 339.355C564.453 339.355 598.633 304.199 598.633 263.184C598.633 222.168 564.453 187.5 522.949 187.5C482.91 187.5 447.266 222.168 447.266 263.184Z" fill="black" fill-opacity="0.85"/>
 </g>
</svg>
