<?xml version="1.0" encoding="UTF-8"?>
<!--Generator: Apple Native CoreSVG 341-->
<!DOCTYPE svg
PUBLIC "-//W3C//DTD SVG 1.1//EN"
       "http://www.w3.org/Graphics/SVG/1.1/DTD/svg11.dtd">
<svg version="1.1" xmlns="http://www.w3.org/2000/svg" xmlns:xlink="http://www.w3.org/1999/xlink" viewBox="0 0 1377.93 1321.78">
 <g>
  <rect height="1321.78" opacity="0" width="1377.93" x="0" y="0"/>
  <path d="M0 662.598C0 820.801 86.9141 906.25 251.465 906.25L476.074 906.25C695.801 930.664 935.547 1001.95 1121.09 1125.98L1121.09 1029.3C937.988 907.715 706.543 844.238 473.145 819.824L251.465 819.824C136.719 819.824 86.4258 772.461 86.4258 662.598L86.4258 564.453C86.4258 454.59 136.719 407.227 251.465 407.227L468.75 407.227C705.566 383.301 940.918 317.871 1121.09 197.754L1121.09 101.074C941.895 224.609 683.105 299.316 479.492 320.801L251.465 320.801C86.9141 320.801 0 405.762 0 564.453ZM574.707 898.438L492.676 898.438L545.898 1169.92C552.246 1203.61 535.645 1224.61 512.207 1232.91C487.305 1241.7 454.59 1234.38 437.5 1197.27L293.457 887.207L204.59 887.207L351.562 1212.4C401.367 1322.27 484.375 1330.08 544.434 1311.52C603.516 1293.46 640.625 1239.26 624.512 1156.74ZM402.832 362.793L402.832 864.746L489.746 864.746L489.746 362.793ZM1089.84 1080.08C1089.84 1166.5 1147.95 1223.63 1233.89 1223.63C1320.31 1223.63 1377.93 1166.5 1377.93 1080.08L1377.93 144.043C1377.93 57.6172 1320.31 0 1233.89 0C1147.95 0 1089.84 57.6172 1089.84 144.043ZM1176.76 1080.08L1176.76 144.043C1176.76 109.375 1199.22 86.4258 1233.89 86.4258C1268.55 86.4258 1291.5 109.375 1291.5 144.043L1291.5 1080.08C1291.5 1114.26 1268.55 1137.21 1233.89 1137.21C1199.22 1137.21 1176.76 1114.26 1176.76 1080.08Z" fill="black" fill-opacity="0.85"/>
 </g>
</svg>
