<?xml version="1.0" encoding="UTF-8"?>
<!--Generator: Apple Native CoreSVG 341-->
<!DOCTYPE svg
PUBLIC "-//W3C//DTD SVG 1.1//EN"
       "http://www.w3.org/Graphics/SVG/1.1/DTD/svg11.dtd">
<svg version="1.1" xmlns="http://www.w3.org/2000/svg" xmlns:xlink="http://www.w3.org/1999/xlink" viewBox="0 0 1250.98 1148.93">
 <g>
  <rect height="1148.93" opacity="0" width="1250.98" x="0" y="0"/>
  <path d="M189.941 1148.93L1060.55 1148.93C1187.01 1148.93 1250.98 1085.45 1250.98 960.938L1250.98 189.453C1250.98 64.9414 1187.01 1.46484 1060.55 1.46484L189.941 1.46484C63.9648 1.46484 0 64.4531 0 189.453L0 960.938C0 1085.94 63.9648 1148.93 189.941 1148.93ZM183.105 1062.5C120.605 1062.5 86.4258 1029.3 86.4258 964.844L86.4258 382.324C86.4258 317.383 120.605 284.668 183.105 284.668L1066.89 284.668C1128.91 284.668 1164.06 317.383 1164.06 382.324L1164.06 964.844C1164.06 1029.3 1128.91 1062.5 1066.89 1062.5ZM500.977 509.277L538.086 509.277C559.082 509.277 564.941 503.418 564.941 482.91L564.941 446.289C564.941 425.781 559.082 420.41 538.086 420.41L500.977 420.41C480.469 420.41 474.609 425.781 474.609 446.289L474.609 482.91C474.609 503.418 480.469 509.277 500.977 509.277ZM713.379 509.277L750.488 509.277C770.996 509.277 776.855 503.418 776.855 482.91L776.855 446.289C776.855 425.781 770.996 420.41 750.488 420.41L713.379 420.41C692.383 420.41 686.523 425.781 686.523 446.289L686.523 482.91C686.523 503.418 692.383 509.277 713.379 509.277ZM925.293 509.277L962.402 509.277C982.91 509.277 989.258 503.418 989.258 482.91L989.258 446.289C989.258 425.781 982.91 420.41 962.402 420.41L925.293 420.41C904.785 420.41 898.438 425.781 898.438 446.289L898.438 482.91C898.438 503.418 904.785 509.277 925.293 509.277ZM289.062 717.773L326.172 717.773C346.68 717.773 353.027 712.402 353.027 691.895L353.027 654.785C353.027 634.766 346.68 628.906 326.172 628.906L289.062 628.906C268.555 628.906 262.207 634.766 262.207 654.785L262.207 691.895C262.207 712.402 268.555 717.773 289.062 717.773ZM500.977 717.773L538.086 717.773C559.082 717.773 564.941 712.402 564.941 691.895L564.941 654.785C564.941 634.766 559.082 628.906 538.086 628.906L500.977 628.906C480.469 628.906 474.609 634.766 474.609 654.785L474.609 691.895C474.609 712.402 480.469 717.773 500.977 717.773ZM713.379 717.773L750.488 717.773C770.996 717.773 776.855 712.402 776.855 691.895L776.855 654.785C776.855 634.766 770.996 628.906 750.488 628.906L713.379 628.906C692.383 628.906 686.523 634.766 686.523 654.785L686.523 691.895C686.523 712.402 692.383 717.773 713.379 717.773ZM925.293 717.773L962.402 717.773C982.91 717.773 989.258 712.402 989.258 691.895L989.258 654.785C989.258 634.766 982.91 628.906 962.402 628.906L925.293 628.906C904.785 628.906 898.438 634.766 898.438 654.785L898.438 691.895C898.438 712.402 904.785 717.773 925.293 717.773ZM289.062 926.758L326.172 926.758C346.68 926.758 353.027 921.387 353.027 900.879L353.027 863.77C353.027 843.262 346.68 837.891 326.172 837.891L289.062 837.891C268.555 837.891 262.207 843.262 262.207 863.77L262.207 900.879C262.207 921.387 268.555 926.758 289.062 926.758ZM500.977 926.758L538.086 926.758C559.082 926.758 564.941 921.387 564.941 900.879L564.941 863.77C564.941 843.262 559.082 837.891 538.086 837.891L500.977 837.891C480.469 837.891 474.609 843.262 474.609 863.77L474.609 900.879C474.609 921.387 480.469 926.758 500.977 926.758ZM713.379 926.758L750.488 926.758C770.996 926.758 776.855 921.387 776.855 900.879L776.855 863.77C776.855 843.262 770.996 837.891 750.488 837.891L713.379 837.891C692.383 837.891 686.523 843.262 686.523 863.77L686.523 900.879C686.523 921.387 692.383 926.758 713.379 926.758Z" fill="black" fill-opacity="0.85"/>
 </g>
</svg>
