<?xml version="1.0" encoding="UTF-8"?>
<!--Generator: Apple Native CoreSVG 341-->
<!DOCTYPE svg
PUBLIC "-//W3C//DTD SVG 1.1//EN"
       "http://www.w3.org/Graphics/SVG/1.1/DTD/svg11.dtd">
<svg version="1.1" xmlns="http://www.w3.org/2000/svg" xmlns:xlink="http://www.w3.org/1999/xlink" viewBox="0 0 1369.63 1378.42">
 <g>
  <rect height="1378.42" opacity="0" width="1369.63" x="0" y="0"/>
  <path d="M781.25 1378.42C822.754 1378.42 852.051 1344.24 873.047 1288.57L1290.04 199.219C1299.8 173.828 1305.18 151.367 1305.18 132.812C1305.18 95.7031 1282.71 72.7539 1245.61 72.7539C1226.56 72.7539 1204.59 78.6133 1179.2 88.3789L84.9609 506.836C35.6445 525.879 0 555.176 0 597.168C0 648.438 38.0859 666.992 95.7031 684.57L558.105 819.824L692.871 1278.32C710.449 1337.89 729.004 1378.42 781.25 1378.42ZM582.52 737.793L135.742 603.516C120.117 598.633 116.699 595.215 116.699 589.844C116.699 583.984 120.117 579.102 132.812 574.707L1038.57 230.957C1081.54 214.355 1123.05 193.359 1161.62 175.781C1126.46 204.102 1079.59 240.723 1051.27 269.043ZM789.062 1262.7C783.203 1262.7 779.785 1257.81 774.902 1242.68L640.137 795.898L1109.38 326.66C1137.21 298.828 1174.8 251.465 1203.12 215.82C1185.55 254.395 1164.06 296.387 1147.46 339.355L803.711 1245.12C798.828 1258.3 794.922 1262.7 789.062 1262.7Z" fill="black" fill-opacity="0.85"/>
 </g>
</svg>
