<?xml version="1.0" encoding="UTF-8"?>
<!--Generator: Apple Native CoreSVG 341-->
<!DOCTYPE svg
PUBLIC "-//W3C//DTD SVG 1.1//EN"
       "http://www.w3.org/Graphics/SVG/1.1/DTD/svg11.dtd">
<svg version="1.1" xmlns="http://www.w3.org/2000/svg" xmlns:xlink="http://www.w3.org/1999/xlink" viewBox="0 0 2400.39 1311.04">
 <g>
  <rect height="1311.04" opacity="0" width="2400.39" x="0" y="0"/>
  <path d="M2400.39 1133.3C2400.39 1200.2 2360.84 1233.4 2280.76 1233.4L1796.31 1233.4C1812.24 1210.43 1820.94 1183.25 1823.06 1153.32L2292.97 1153.32C2312.01 1153.32 2319.82 1146.48 2319.82 1128.91C2319.82 964.844 2138.18 815.43 1926.27 815.43C1846.43 815.43 1770.82 836.639 1707.61 871.88C1689.72 851.829 1669.8 832.544 1647.93 814.382C1725.27 765.72 1820.97 735.84 1926.27 735.84C2194.34 735.84 2400.39 930.176 2400.39 1133.3ZM2159.18 404.785C2159.18 547.363 2055.66 661.133 1926.76 661.133C1798.34 661.133 1694.34 547.852 1694.34 405.762C1694.34 269.043 1799.32 155.273 1926.76 155.273C2055.66 155.273 2159.18 267.09 2159.18 404.785ZM1774.9 405.762C1774.9 503.418 1843.75 580.566 1926.76 580.566C2010.25 580.566 2079.1 503.418 2079.1 404.785C2079.1 311.035 2011.23 235.84 1926.76 235.84C1843.75 235.84 1774.9 312.5 1774.9 405.762Z" fill="black" fill-opacity="0.85"/>
  <path d="M752.464 814.382C730.619 832.519 710.73 851.775 692.86 871.796C629.691 836.607 554.086 815.43 474.121 815.43C262.207 815.43 80.5664 964.844 80.5664 1128.91C80.5664 1146.48 88.3789 1153.32 107.422 1153.32L577.331 1153.32C579.447 1183.25 588.155 1210.43 604.085 1233.4L119.629 1233.4C40.0391 1233.4 0 1200.2 0 1133.3C0 930.176 206.055 735.84 474.121 735.84C579.425 735.84 675.12 765.72 752.464 814.382ZM707.52 404.785C707.52 547.363 603.516 661.133 475.098 661.133C346.68 661.133 242.676 547.852 242.676 405.762C242.676 269.043 347.168 155.273 475.098 155.273C603.516 155.273 707.52 267.09 707.52 404.785ZM323.242 405.762C323.242 503.418 391.602 580.566 475.098 580.566C558.594 580.566 627.441 503.418 627.441 404.785C627.441 311.035 559.082 235.84 475.098 235.84C391.602 235.84 323.242 312.5 323.242 405.762Z" fill="black" fill-opacity="0.85"/>
  <path d="M1200.68 653.809C1348.63 653.809 1468.26 523.438 1468.26 361.816C1468.26 203.125 1348.63 77.1484 1200.68 77.1484C1053.71 77.1484 933.594 205.078 933.594 362.793C933.594 523.926 1052.73 653.809 1200.68 653.809ZM1200.68 572.266C1102.05 572.266 1020.02 480.469 1020.02 362.793C1020.02 248.535 1101.56 158.691 1200.68 158.691C1300.29 158.691 1381.84 247.07 1381.84 361.816C1381.84 479.492 1300.29 572.266 1200.68 572.266ZM797.363 1233.4L1603.03 1233.4C1699.71 1233.4 1746.09 1203.12 1746.09 1137.7C1746.09 973.145 1538.57 736.816 1200.2 736.816C861.816 736.816 654.785 973.145 654.785 1137.7C654.785 1203.12 700.684 1233.4 797.363 1233.4ZM773.926 1151.86C749.512 1151.86 741.211 1145.51 741.211 1127.93C741.211 1014.16 906.738 818.848 1200.2 818.848C1493.65 818.848 1659.18 1014.16 1659.18 1127.93C1659.18 1145.51 1650.88 1151.86 1626.46 1151.86Z" fill="black" fill-opacity="0.85"/>
 </g>
</svg>
