<?xml version="1.0" encoding="UTF-8"?>
<!--Generator: Apple Native CoreSVG 341-->
<!DOCTYPE svg
PUBLIC "-//W3C//DTD SVG 1.1//EN"
       "http://www.w3.org/Graphics/SVG/1.1/DTD/svg11.dtd">
<svg version="1.1" xmlns="http://www.w3.org/2000/svg" xmlns:xlink="http://www.w3.org/1999/xlink" viewBox="0 0 2371.09 1290.53">
 <g>
  <rect height="1290.53" opacity="0" width="2371.09" x="0" y="0"/>
  <path d="M741.312 826.579C638.464 915.994 580.566 1030.02 580.566 1131.84C580.566 1161.53 588.201 1189.27 602.868 1212.89L104.98 1212.89C30.7617 1212.89 0 1183.59 0 1126.95C0 951.66 176.758 744.141 459.961 744.141C571.828 744.141 667.086 776.52 741.312 826.579ZM678.223 406.25C678.223 542.48 578.613 647.461 460.449 647.461C342.285 647.461 242.676 542.48 242.676 407.227C242.676 274.902 343.262 171.387 460.449 171.387C577.637 171.387 678.223 272.949 678.223 406.25Z" fill="black" fill-opacity="0.85"/>
  <path d="M2371.09 1126.95C2371.09 1183.59 2340.33 1212.89 2266.6 1212.89L1770.56 1212.89C1785.28 1189.27 1792.97 1161.53 1792.97 1131.84C1792.97 1029.68 1734.68 915.231 1631.15 825.673C1705.17 776.127 1799.95 744.141 1911.13 744.141C2194.34 744.141 2371.09 951.66 2371.09 1126.95ZM2129.39 406.25C2129.39 542.48 2030.27 647.461 1912.11 647.461C1793.95 647.461 1693.85 542.48 1693.85 407.227C1693.85 274.902 1794.43 171.387 1912.11 171.387C2029.3 171.387 2129.39 272.949 2129.39 406.25Z" fill="black" fill-opacity="0.85"/>
  <path d="M1187.01 633.301C1323.24 633.301 1437.5 512.695 1437.5 355.957C1437.5 203.125 1322.27 86.4258 1187.01 86.4258C1052.25 86.4258 937.012 205.078 937.012 356.934C937.012 512.695 1051.27 633.301 1187.01 633.301ZM761.23 1212.89L1612.3 1212.89C1675.78 1212.89 1714.84 1182.13 1714.84 1131.84C1714.84 969.727 1512.21 746.094 1186.52 746.094C860.84 746.094 658.203 969.727 658.203 1131.84C658.203 1182.13 697.266 1212.89 761.23 1212.89Z" fill="black" fill-opacity="0.85"/>
 </g>
</svg>
