<?xml version="1.0" encoding="UTF-8"?>
<!--Generator: Apple Native CoreSVG 341-->
<!DOCTYPE svg
PUBLIC "-//W3C//DTD SVG 1.1//EN"
       "http://www.w3.org/Graphics/SVG/1.1/DTD/svg11.dtd">
<svg version="1.1" xmlns="http://www.w3.org/2000/svg" xmlns:xlink="http://www.w3.org/1999/xlink" viewBox="0 0 954.102 1496.58">
 <g>
  <rect height="1496.58" opacity="0" width="954.102" x="0" y="0"/>
  <path d="M477.051 1496.58C491.211 1496.58 525.879 1424.32 525.879 1339.36L525.879 977.051L428.223 977.051L428.223 1339.36C428.223 1424.32 463.379 1496.58 477.051 1496.58ZM85.9375 1020.51L868.652 1020.51C920.898 1020.51 954.102 988.281 954.102 939.941C954.102 755.371 752.93 573.73 477.051 573.73C201.66 573.73 0 755.371 0 939.941C0 988.281 33.6914 1020.51 85.9375 1020.51ZM105.469 938.965C90.8203 938.965 83.4961 930.664 85.4492 913.574C96.1914 788.574 250 652.832 477.051 652.832C704.59 652.832 857.91 788.574 868.652 913.574C870.605 930.664 863.281 938.965 848.633 938.965ZM84.9609 105.957C84.9609 123.047 92.2852 142.578 106.934 162.598C139.16 206.543 215.82 265.625 290.527 314.453L268.066 644.043L354.004 644.043L376.465 276.367C377.441 267.578 375.977 264.648 370.605 261.719C280.273 214.844 201.172 150.879 197.266 134.277C193.359 125.977 198.242 120.605 206.055 120.605L748.047 120.605C755.859 120.605 760.742 125.977 756.836 134.277C752.93 150.879 673.828 214.844 583.496 261.719C578.125 264.648 576.66 267.578 577.637 276.367L600.586 644.043L686.523 644.043L663.574 314.453C738.281 265.625 814.941 206.543 847.168 162.598C862.305 142.578 869.141 123.047 869.141 105.957C869.141 70.3125 842.285 43.9453 800.781 43.9453L153.809 43.9453C112.305 43.9453 84.9609 70.3125 84.9609 105.957Z" fill="black" fill-opacity="0.85"/>
 </g>
</svg>
