<?xml version="1.0" encoding="UTF-8"?>
<!--Generator: Apple Native CoreSVG 341-->
<!DOCTYPE svg
PUBLIC "-//W3C//DTD SVG 1.1//EN"
       "http://www.w3.org/Graphics/SVG/1.1/DTD/svg11.dtd">
<svg version="1.1" xmlns="http://www.w3.org/2000/svg" xmlns:xlink="http://www.w3.org/1999/xlink" viewBox="0 0 1027.83 1028.81">
 <g>
  <rect height="1028.81" opacity="0" width="1027.83" x="0" y="0"/>
  <path d="M561.523 979.98L561.523 47.8516C561.523 21.9727 540.039 0 513.672 0C487.793 0 466.309 21.9727 466.309 47.8516L466.309 979.98C466.309 1005.86 487.793 1027.83 513.672 1027.83C540.039 1027.83 561.523 1005.86 561.523 979.98ZM47.8516 561.523L979.98 561.523C1005.86 561.523 1027.83 540.039 1027.83 514.16C1027.83 487.793 1005.86 466.309 979.98 466.309L47.8516 466.309C21.9727 466.309 0 487.793 0 514.16C0 540.039 21.9727 561.523 47.8516 561.523Z" fill="black" fill-opacity="0.85"/>
 </g>
</svg>
