<?xml version="1.0" encoding="UTF-8"?>
<!--Generator: Apple Native CoreSVG 341-->
<!DOCTYPE svg
PUBLIC "-//W3C//DTD SVG 1.1//EN"
       "http://www.w3.org/Graphics/SVG/1.1/DTD/svg11.dtd">
<svg version="1.1" xmlns="http://www.w3.org/2000/svg" xmlns:xlink="http://www.w3.org/1999/xlink" viewBox="0 0 1145.51 1145.02">
 <g>
  <rect height="1145.02" opacity="0" width="1145.51" x="0" y="0"/>
  <path d="M1057.62 87.4023C1115.72 145.02 1145.51 230.469 1145.51 340.82L1145.51 804.199C1145.51 914.551 1115.23 1000.49 1057.62 1057.62C1001.46 1113.77 915.527 1145.02 804.688 1145.02L340.82 1145.02C229.98 1145.02 144.531 1114.26 87.8906 1057.62C29.7852 1000 0 914.551 0 804.199L0 340.82C0 230.469 30.2734 144.531 87.8906 87.4023C144.043 31.25 229.98 0 340.82 0L804.688 0C915.527 0 1000.98 30.2734 1057.62 87.4023ZM525.391 323.242L525.391 524.902L323.73 524.902C295.898 524.902 276.367 543.945 276.367 572.266C276.367 599.121 296.387 617.676 323.73 617.676L525.391 617.676L525.391 819.824C525.391 847.168 544.434 867.188 571.289 867.188C599.121 867.188 618.652 847.656 618.652 819.824L618.652 617.676L820.801 617.676C848.145 617.676 868.164 599.121 868.164 572.266C868.164 543.945 848.145 524.902 820.801 524.902L618.652 524.902L618.652 323.242C618.652 294.922 599.121 275.391 571.289 275.391C544.434 275.391 525.391 295.41 525.391 323.242Z" fill="black" fill-opacity="0.85"/>
 </g>
</svg>
