<?xml version="1.0" encoding="UTF-8"?>
<!--Generator: Apple Native CoreSVG 341-->
<!DOCTYPE svg
PUBLIC "-//W3C//DTD SVG 1.1//EN"
       "http://www.w3.org/Graphics/SVG/1.1/DTD/svg11.dtd">
<svg version="1.1" xmlns="http://www.w3.org/2000/svg" xmlns:xlink="http://www.w3.org/1999/xlink" viewBox="0 0 1404.79 1358.89">
 <g>
  <rect height="1358.89" opacity="0" width="1404.79" x="0" y="0"/>
  <path d="M1157.23 183.105L1157.23 225.586L1072.75 225.586L1072.75 177.734C1072.75 120.605 1046.39 94.2383 989.258 94.2383L415.527 94.2383C358.398 94.2383 332.031 120.605 332.031 177.734L332.031 225.586L247.559 225.586L247.559 183.105C247.559 66.8945 309.57 15.1367 416.504 15.1367L988.281 15.1367C1100.1 15.1367 1157.23 66.8945 1157.23 183.105Z" fill="black" fill-opacity="0.85"/>
  <path d="M1404.79 402.832L1404.79 993.652C1404.79 1111.33 1343.26 1170.9 1225.1 1170.9L1153.81 1170.9L1153.81 1089.36L1226.07 1089.36C1287.6 1089.36 1317.38 1058.59 1317.38 997.559L1317.38 398.926C1317.38 337.891 1287.6 307.617 1226.07 307.617L178.711 307.617C117.188 307.617 86.9141 337.891 86.9141 398.926L86.9141 997.559C86.9141 1058.59 117.188 1089.36 178.711 1089.36L250.977 1089.36L250.977 1170.9L179.688 1170.9C61.5234 1170.9 0 1111.33 0 993.652L0 402.832C0 285.156 66.8945 225.586 179.688 225.586L1225.1 225.586C1343.26 225.586 1404.79 285.156 1404.79 402.832ZM1157.23 460.449C1157.23 502.441 1122.56 537.109 1081.05 537.109C1038.57 537.109 1003.91 503.418 1003.91 460.449C1003.91 418.945 1038.57 383.789 1081.05 383.789C1122.56 383.789 1157.23 418.945 1157.23 460.449Z" fill="black" fill-opacity="0.85"/>
  <path d="M374.512 1358.89L1030.27 1358.89C1112.79 1358.89 1153.81 1321.29 1153.81 1235.84L1153.81 730.957C1153.81 645.508 1112.79 607.91 1030.27 607.91L374.512 607.91C294.922 607.91 250.977 645.508 250.977 730.957L250.977 1235.84C250.977 1321.29 291.992 1358.89 374.512 1358.89ZM399.414 1277.34C356.934 1277.34 338.379 1258.79 338.379 1215.82L338.379 750C338.379 708.008 356.934 689.453 399.414 689.453L1005.86 689.453C1048.34 689.453 1066.41 708.008 1066.41 750L1066.41 1215.82C1066.41 1258.79 1048.34 1277.34 1005.86 1277.34ZM474.121 906.738L931.641 906.738C951.172 906.738 965.82 891.602 965.82 872.559C965.82 854.004 951.172 839.355 931.641 839.355L474.121 839.355C454.102 839.355 439.453 854.004 439.453 872.559C439.453 891.602 454.102 906.738 474.121 906.738ZM474.121 1127.44L931.641 1127.44C951.172 1127.44 965.82 1112.79 965.82 1094.24C965.82 1074.71 951.172 1059.57 931.641 1059.57L474.121 1059.57C454.102 1059.57 439.453 1074.71 439.453 1094.24C439.453 1112.79 454.102 1127.44 474.121 1127.44Z" fill="black" fill-opacity="0.85"/>
 </g>
</svg>
