<?xml version="1.0" standalone="no"?> <!DOCTYPE svg PUBLIC "-//W3C//DTD SVG 20010904//EN" "http://www.w3.org/TR/2001/REC-SVG-20010904/DTD/svg10.dtd"> <svg version="1.0" xmlns="http://www.w3.org/2000/svg" width="600.000000pt" height="600.000000pt" viewBox="0 0 600.000000 600.000000" preserveAspectRatio="xMidYMid meet"> <g transform="translate(0.000000,600.000000) scale(0.050000,-0.050000)" fill="#6b7280" stroke="none"> <path d="M4540 11735 c-152 -67 -219 -95 -231 -95 -7 0 -41 -13 -76 -29 -66 -31 -455 -189 -972 -396 -505 -202 -535 -271 -321 -745 20 -44 42 -102 50 -130 8 -27 23 -60 32 -72 9 -11 39 -79 66 -150 27 -70 62 -155 78 -188 189 -384 194 -477 35 -597 -71 -53 -434 -418 -576 -579 -38 -42 -84 -74 -109 -74 -36 0 -552 196 -766 291 -64 28 -305 124 -445 177 -140 52 -271 43 -349 -26 -60 -52 -196 -329 -196 -398 0 -13 -8 -24 -18 -24 -9 0 -22 -20 -28 -45 -6 -25 -51 -139 -100 -255 -449 -1049 -447 -1043 -362 -1175 51 -80 37 -73 968 -448 385 -155 414 -171 425 -221 8 -37 6 -1049 -3 -1101 -2 -16 -199 -110 -322 -155 -38 -14 -117 -47 -174 -73 -57 -26 -112 -47 -121 -47 -10 0 -140 -53 -288 -117 -148 -64 -293 -123 -322 -130 -158 -40 -246 -223 -186 -388 36 -100 94 -228 111 -245 6 -5 10 -19 10 -30 0 -18 233 -583 332 -805 21 -46 38 -91 38 -100 0 -8 15 -42 32 -75 18 -33 55 -118 82 -190 75 -199 139 -250 307 -249 75 1 148 11 163 24 15 12 117 58 227 101 288 113 751 304 809 334 111 57 198 55 256 -6 281 -296 435 -449 554 -551 217 -186 217 -186 123 -399 -26 -57 -59 -135 -73 -174 -15 -38 -33 -79 -42 -90 -8 -11 -37 -78 -64 -150 -27 -71 -99 -248 -161 -392 -172 -398 -155 -518 86 -621 61 -27 129 -56 151 -66 22 -10 121 -51 220 -91 99 -40 220 -91 268 -113 49 -22 130 -54 180 -71 50 -17 148 -57 217 -88 69 -32 131 -58 137 -58 5 0 48 -17 94 -38 423 -193 558 -156 693 188 48 121 117 288 332 797 146 344 152 349 422 316 236 -29 433 -29 638 1 236 34 244 26 428 -408 81 -190 151 -364 157 -386 6 -22 22 -58 35 -80 14 -22 63 -133 110 -246 143 -348 217 -366 695 -172 151 61 387 156 524 211 138 55 287 117 331 139 45 21 88 38 96 38 59 0 405 172 453 226 76 83 80 204 12 357 -26 59 -82 188 -123 287 -41 99 -126 302 -189 450 -163 388 -166 394 -153 446 7 26 73 101 148 165 167 145 319 297 480 478 141 158 196 172 366 95 49 -22 148 -64 219 -93 72 -30 158 -66 193 -82 35 -16 70 -29 78 -29 8 0 52 -17 97 -39 677 -320 761 -304 964 180 62 148 158 377 213 509 55 132 105 249 112 260 7 11 27 61 45 110 37 100 126 316 169 413 91 199 11 317 -301 447 -110 45 -263 109 -340 141 -77 33 -149 59 -160 59 -11 0 -55 18 -97 41 -42 23 -123 59 -180 81 -57 21 -121 47 -143 56 -22 9 -64 27 -94 39 -97 38 -124 126 -98 312 27 198 28 387 2 616 -17 143 -15 186 8 232 32 61 39 65 335 183 114 45 243 98 287 118 44 20 188 79 320 130 545 213 570 260 380 723 -63 153 -126 302 -140 329 -14 28 -60 136 -101 240 -41 105 -91 226 -110 271 -20 44 -78 179 -130 300 -117 275 -187 349 -332 349 -50 0 -938 -347 -1232 -481 -141 -65 -189 -49 -328 111 -143 165 -339 355 -481 469 -178 141 -186 248 -39 513 28 51 163 376 163 393 0 14 87 214 122 280 10 19 18 43 18 54 0 11 22 69 50 129 69 150 66 252 -8 337 -62 70 -117 98 -462 235 -115 46 -259 105 -320 130 -60 25 -182 75 -270 110 -88 35 -218 88 -290 119 -145 62 -327 132 -394 151 -131 37 -276 -66 -347 -246 -25 -63 -63 -154 -85 -204 -118 -265 -354 -832 -354 -850 -1 -11 -17 -41 -37 -68 l-37 -47 -565 0 c-455 0 -569 5 -590 27 -28 29 -63 108 -281 628 -73 176 -150 356 -169 400 -20 44 -47 110 -61 146 -70 180 -245 268 -400 199z m1830 -3385 c55 -7 123 -20 150 -30 28 -10 108 -33 178 -51 469 -117 974 -463 1254 -859 70 -99 134 -189 143 -200 32 -44 167 -322 174 -361 4 -23 21 -75 39 -116 145 -350 131 -1179 -27 -1512 -8 -17 -29 -62 -45 -101 -50 -116 -94 -208 -121 -250 -221 -349 -347 -497 -586 -685 -56 -44 -131 -97 -167 -118 -36 -20 -89 -51 -119 -68 -29 -16 -94 -55 -145 -85 -50 -30 -102 -54 -115 -54 -13 0 -62 -17 -108 -38 -143 -63 -202 -81 -275 -85 -38 -2 -79 -11 -90 -18 -83 -60 -845 -63 -939 -3 -11 7 -43 15 -71 17 -70 6 -233 55 -347 105 -53 23 -109 42 -125 42 -15 0 -28 7 -28 16 0 10 -43 38 -95 63 -150 73 -288 163 -382 251 -47 44 -103 89 -123 100 -72 40 -361 401 -435 544 -23 45 -51 99 -62 120 -18 35 -57 123 -100 226 -44 107 -81 239 -87 310 -2 22 -11 50 -20 62 -54 73 -56 807 -2 894 6 11 13 34 15 52 4 43 48 193 85 292 71 187 67 178 174 378 48 90 55 100 180 257 51 63 93 121 93 130 3 27 337 311 425 360 46 26 87 56 91 66 3 11 18 19 33 19 15 0 30 8 33 17 14 34 311 162 497 213 105 29 208 61 230 71 111 50 505 64 820 29z"/> </g> </svg>