<?xml version="1.0" encoding="UTF-8"?>
<!--Generator: Apple Native CoreSVG 341-->
<!DOCTYPE svg
PUBLIC "-//W3C//DTD SVG 1.1//EN"
       "http://www.w3.org/Graphics/SVG/1.1/DTD/svg11.dtd">
<svg version="1.1" xmlns="http://www.w3.org/2000/svg" xmlns:xlink="http://www.w3.org/1999/xlink" viewBox="0 0 1263.67 1366.58">
 <g>
  <rect height="1366.58" opacity="0" width="1263.67" x="0" y="0"/>
  <path d="M81.543 1071.23L582.031 1352.48C616.211 1371.03 647.461 1371.52 681.641 1352.48L1182.13 1071.23C1236.82 1040.47 1263.67 1008.73 1263.67 928.162L1263.67 415.467C1263.67 358.826 1241.7 323.182 1194.82 296.815L733.398 36.0724C665.527-2.50185 598.145-2.50185 529.785 36.0724L68.8477 296.815C21.9727 323.182 0 358.826 0 415.467L0 928.162C0 1008.73 26.8555 1040.47 81.543 1071.23ZM131.836 1001.4C93.75 980.408 83.0078 959.9 83.0078 924.744L83.0078 434.022L589.355 719.666L589.355 1258.24ZM1131.84 1001.4L674.316 1258.24L674.316 719.666L1180.66 434.022L1180.66 924.744C1180.66 959.9 1169.92 980.408 1131.84 1001.4ZM631.836 643.983L126.953 361.268L338.867 241.15L844.727 525.33ZM931.152 476.502L423.828 192.811L568.359 111.756C611.328 87.3419 652.344 86.8536 695.312 111.756L1136.72 361.268Z" fill="black" fill-opacity="0.85"/>
 </g>
</svg>
