<?xml version="1.0" encoding="UTF-8"?>
<!--Generator: Apple Native CoreSVG 341-->
<!DOCTYPE svg
PUBLIC "-//W3C//DTD SVG 1.1//EN"
       "http://www.w3.org/Graphics/SVG/1.1/DTD/svg11.dtd">
<svg version="1.1" xmlns="http://www.w3.org/2000/svg" xmlns:xlink="http://www.w3.org/1999/xlink" viewBox="0 0 1255.86 1063.96">
 <g>
  <rect height="1063.96" opacity="0" width="1255.86" x="0" y="0"/>
  <path d="M715.332 918.457C715.332 933.401 717.611 947.836 721.844 961.426L43.457 961.426C19.043 961.426 0 942.383 0 918.457C0 894.043 19.043 875 43.457 875L722.086 875C717.693 888.733 715.332 903.34 715.332 918.457ZM1255.86 918.457C1255.86 942.383 1236.82 961.426 1214.36 961.426L999.344 961.426C1003.58 947.836 1005.86 933.401 1005.86 918.457C1005.86 903.34 1003.5 888.733 999.102 875L1214.36 875C1236.82 875 1255.86 894.043 1255.86 918.457Z" fill="black" fill-opacity="0.85"/>
  <path d="M1005.86 918.457C1005.86 998.535 940.43 1063.96 860.352 1063.96C780.762 1063.96 715.332 998.535 715.332 918.457C715.332 838.867 780.762 773.438 860.352 773.438C940.43 773.438 1005.86 838.867 1005.86 918.457ZM784.668 918.457C784.668 960.938 817.871 994.629 860.352 994.629C903.32 994.629 936.523 960.938 936.523 918.457C936.523 875.488 903.32 842.285 860.352 842.285C817.871 842.285 784.668 875.488 784.668 918.457Z" fill="black" fill-opacity="0.85"/>
  <path d="M262.695 533.691C262.695 548.652 264.979 563.084 269.219 576.66L43.457 576.66C19.043 576.66 0 557.617 0 533.203C0 509.277 19.043 490.234 43.457 490.234L269.366 490.234C265.029 503.965 262.695 518.567 262.695 533.691ZM1255.86 533.203C1255.86 557.617 1236.82 576.66 1214.36 576.66L546.696 576.66C550.939 563.084 553.223 548.652 553.223 533.691C553.223 518.567 550.889 503.965 546.549 490.234L1214.36 490.234C1236.82 490.234 1255.86 509.277 1255.86 533.203Z" fill="black" fill-opacity="0.85"/>
  <path d="M553.223 533.691C553.223 613.77 487.793 678.711 407.715 678.711C328.125 678.711 262.695 613.77 262.695 533.691C262.695 453.613 328.125 388.184 407.715 388.184C487.793 388.184 553.223 453.613 553.223 533.691ZM332.031 533.203C332.031 575.684 365.234 609.863 407.715 609.863C450.684 609.863 483.887 575.684 483.887 533.203C483.887 490.234 450.684 457.031 407.715 457.031C365.234 457.031 332.031 490.234 332.031 533.203Z" fill="black" fill-opacity="0.85"/>
  <path d="M715.332 147.461C715.332 162.768 717.723 177.54 722.182 191.406L43.457 191.406C19.043 191.406 0 172.363 0 148.438C0 124.023 19.043 104.98 43.457 104.98L721.776 104.98C717.582 118.43 715.332 132.702 715.332 147.461ZM1255.86 148.438C1255.86 172.363 1236.82 191.406 1214.36 191.406L999.006 191.406C1003.47 177.54 1005.86 162.768 1005.86 147.461C1005.86 132.702 1003.61 118.43 999.412 104.98L1214.36 104.98C1236.82 104.98 1255.86 124.023 1255.86 148.438Z" fill="black" fill-opacity="0.85"/>
  <path d="M860.352 292.969C940.43 292.969 1005.86 227.539 1005.86 147.461C1005.86 67.8711 940.43 2.44141 860.352 2.44141C780.762 2.44141 715.332 67.8711 715.332 147.461C715.332 227.539 780.762 292.969 860.352 292.969ZM860.352 223.633C817.871 223.633 784.668 189.941 784.668 147.461C784.668 104.492 817.871 71.2891 860.352 71.2891C903.32 71.2891 936.523 104.492 936.523 147.461C936.523 189.941 903.32 223.633 860.352 223.633Z" fill="black" fill-opacity="0.85"/>
 </g>
</svg>
