<?xml version="1.0" encoding="UTF-8"?>
<!--Generator: Apple Native CoreSVG 341-->
<!DOCTYPE svg
PUBLIC "-//W3C//DTD SVG 1.1//EN"
       "http://www.w3.org/Graphics/SVG/1.1/DTD/svg11.dtd">
<svg version="1.1" xmlns="http://www.w3.org/2000/svg" xmlns:xlink="http://www.w3.org/1999/xlink" viewBox="0 0 1521.49 1476.38">
 <g>
  <rect height="1476.38" opacity="0" width="1521.49" x="0" y="0"/>
  <path d="M1120.12 214.394L1039.98 294.588L469.972 294.588C359.132 294.588 296.632 357.088 296.632 467.928L296.632 1049.47C296.632 1160.8 359.132 1223.3 469.972 1223.3L1051.51 1223.3C1162.35 1223.3 1224.85 1160.8 1224.85 1049.47L1224.85 483.433L1305.63 402.546C1309.44 422.895 1311.28 444.926 1311.28 468.416L1311.28 1049.47C1311.28 1216.46 1218.51 1309.73 1051.51 1309.73L469.972 1309.73C302.979 1309.73 210.206 1216.46 210.206 1049.47L210.206 468.416C210.206 301.424 302.979 208.163 469.972 208.163L1051.51 208.163C1076.08 208.163 1099.03 210.18 1120.12 214.394Z" fill="black" fill-opacity="0.85"/>
  <path d="M640.382 895.663L753.663 845.37L1341.07 257.967L1263.43 180.819L676.515 768.221L623.292 878.084C618.409 887.362 630.128 900.057 640.382 895.663ZM1385.5 214.51L1427.98 170.565C1448.49 149.569 1448.98 122.713 1428.96 102.694L1416.75 90.4867C1398.19 71.932 1370.36 74.3734 1350.83 93.9047L1307.86 136.385Z" fill="black" fill-opacity="0.85"/>
 </g>
</svg>
