<?xml version="1.0" encoding="UTF-8"?>
<!--Generator: Apple Native CoreSVG 341-->
<!DOCTYPE svg
PUBLIC "-//W3C//DTD SVG 1.1//EN"
       "http://www.w3.org/Graphics/SVG/1.1/DTD/svg11.dtd">
<svg version="1.1" xmlns="http://www.w3.org/2000/svg" xmlns:xlink="http://www.w3.org/1999/xlink" viewBox="0 0 1048.34 1346.19">
 <g>
  <rect height="1346.19" opacity="0" width="1048.34" x="0" y="0"/>
  <path d="M187.988 1346.19L860.352 1346.19C985.352 1346.19 1048.34 1281.74 1048.34 1156.25L1048.34 571.777C1048.34 499.023 1039.55 467.285 994.141 421.387L632.324 54.6875C589.355 10.2539 554.199 0.488281 489.258 0.488281L187.988 0.488281C63.9648 0.488281 0 64.4531 0 190.43L0 1156.25C0 1282.23 62.9883 1346.19 187.988 1346.19ZM192.383 1259.77C122.559 1259.77 86.4258 1222.66 86.4258 1154.3L86.4258 192.383C86.4258 125.488 122.559 86.9141 192.871 86.9141L481.934 86.9141L481.934 460.938C481.934 535.645 519.531 571.777 592.773 571.777L961.914 571.777L961.914 1154.3C961.914 1222.66 925.781 1259.77 855.469 1259.77ZM602.051 490.234C574.707 490.234 563.477 479.492 563.477 451.66L563.477 104.004L944.824 490.234Z" fill="black" fill-opacity="0.85"/>
  <path d="M763.184 762.207L274.902 762.207C254.883 762.207 240.234 776.855 240.234 795.41C240.234 814.453 254.883 829.59 274.902 829.59L763.184 829.59C782.715 829.59 797.363 814.453 797.363 795.41C797.363 776.855 782.715 762.207 763.184 762.207Z" fill="black" fill-opacity="0.85"/>
  <path d="M763.184 982.422L274.902 982.422C254.883 982.422 240.234 997.559 240.234 1017.09C240.234 1035.64 254.883 1050.29 274.902 1050.29L763.184 1050.29C782.715 1050.29 797.363 1035.64 797.363 1017.09C797.363 997.559 782.715 982.422 763.184 982.422Z" fill="black" fill-opacity="0.85"/>
 </g>
</svg>
