<?xml version="1.0" encoding="UTF-8"?>
<!--Generator: Apple Native CoreSVG 341-->
<!DOCTYPE svg
PUBLIC "-//W3C//DTD SVG 1.1//EN"
       "http://www.w3.org/Graphics/SVG/1.1/DTD/svg11.dtd">
<svg version="1.1" xmlns="http://www.w3.org/2000/svg" xmlns:xlink="http://www.w3.org/1999/xlink" viewBox="0 0 1375.49 1363.77">
 <g>
  <rect height="1363.77" opacity="0" width="1375.49" x="0" y="0"/>
  <path d="M371.094 1363.77C397.949 1363.77 416.504 1349.61 448.242 1321.29L668.457 1127.44L1100.1 1127.44C1276.86 1127.44 1375.49 1026.37 1375.49 852.539L1375.49 354.492C1375.49 180.176 1276.86 79.1016 1100.1 79.1016L275.391 79.1016C98.1445 79.1016 0 179.688 0 354.492L0 852.539C0 1027.34 98.1445 1127.44 275.391 1127.44L312.012 1127.44L312.012 1295.41C312.012 1336.91 333.496 1363.77 371.094 1363.77ZM392.578 1265.62L392.578 1082.03C392.578 1052.25 381.348 1041.02 352.051 1041.02L275.879 1041.02C149.902 1041.02 86.4258 973.633 86.4258 851.562L86.4258 354.98C86.4258 232.91 149.902 165.527 275.879 165.527L1099.61 165.527C1224.12 165.527 1289.06 232.91 1289.06 354.98L1289.06 851.562C1289.06 973.633 1224.12 1041.02 1099.61 1041.02L666.504 1041.02C635.742 1041.02 619.629 1045.9 598.145 1067.87Z" fill="black" fill-opacity="0.85"/>
  <path d="M356.445 423.828L1003.91 423.828C1021.48 423.828 1035.64 409.668 1035.64 391.602C1035.64 374.023 1021.48 359.863 1003.91 359.863L356.445 359.863C338.867 359.863 324.707 374.023 324.707 391.602C324.707 409.668 338.867 423.828 356.445 423.828Z" fill="black" fill-opacity="0.85"/>
  <path d="M356.445 628.906L1003.91 628.906C1021.48 628.906 1035.64 614.746 1035.64 596.68C1035.64 579.102 1021.48 564.453 1003.91 564.453L356.445 564.453C338.867 564.453 324.707 579.102 324.707 596.68C324.707 614.746 338.867 628.906 356.445 628.906Z" fill="black" fill-opacity="0.85"/>
  <path d="M356.445 834.473L779.785 834.473C797.363 834.473 811.523 820.312 811.523 802.246C811.523 784.18 797.363 770.02 779.785 770.02L356.445 770.02C338.867 770.02 324.707 784.18 324.707 802.246C324.707 820.312 338.867 834.473 356.445 834.473Z" fill="black" fill-opacity="0.85"/>
 </g>
</svg>
