<?xml version="1.0" encoding="UTF-8"?>
<!--Generator: Apple Native CoreSVG 341-->
<!DOCTYPE svg
PUBLIC "-//W3C//DTD SVG 1.1//EN"
       "http://www.w3.org/Graphics/SVG/1.1/DTD/svg11.dtd">
<svg version="1.1" xmlns="http://www.w3.org/2000/svg" xmlns:xlink="http://www.w3.org/1999/xlink" viewBox="0 0 1210.45 1501.46">
 <g>
  <rect height="1501.46" opacity="0" width="1210.45" x="0" y="0"/>
  <path d="M417.48 1196.78C438.477 1196.78 452.148 1183.11 451.66 1164.06L431.641 475.098C431.152 456.055 416.992 443.359 397.461 443.359C376.465 443.359 362.793 456.543 363.281 476.074L383.301 1164.06C383.789 1183.59 397.461 1196.78 417.48 1196.78ZM605.469 1196.78C625.977 1196.78 640.625 1183.11 640.625 1164.06L640.625 476.074C640.625 456.543 625.977 443.359 605.469 443.359C584.961 443.359 570.312 456.543 570.312 476.074L570.312 1164.06C570.312 1183.11 584.961 1196.78 605.469 1196.78ZM792.969 1196.78C812.988 1196.78 826.66 1184.08 827.148 1164.55L847.168 476.074C847.656 456.543 833.984 443.848 813.477 443.848C793.945 443.848 779.785 456.055 779.297 475.586L759.277 1164.06C758.789 1183.11 771.973 1196.78 792.969 1196.78ZM333.496 279.297L418.945 279.297L418.945 145.02C418.945 105.957 445.801 80.5664 487.793 80.5664L721.68 80.5664C763.672 80.5664 790.527 105.957 790.527 145.02L790.527 279.297L875.977 279.297L875.977 140.137C875.977 53.2227 819.824 0 726.562 0L482.91 0C390.137 0 333.496 53.2227 333.496 140.137ZM40.5273 321.777L1169.92 321.777C1192.38 321.777 1210.45 303.223 1210.45 281.25C1210.45 258.789 1192.38 240.234 1169.92 240.234L40.5273 240.234C19.043 240.234 0 259.277 0 281.25C0 303.711 19.043 321.777 40.5273 321.777ZM318.848 1394.53L892.578 1394.53C976.562 1394.53 1035.64 1337.4 1040.04 1253.42L1086.43 310.547L999.023 310.547L955.078 1244.63C953.125 1284.18 923.34 1312.99 884.277 1312.99L325.684 1312.99C287.598 1312.99 257.324 1283.69 255.371 1244.63L208.984 311.035L124.512 311.035L170.898 1253.91C175.293 1337.89 233.398 1394.53 318.848 1394.53Z" fill="black" fill-opacity="0.85"/>
 </g>
</svg>
