<?xml version="1.0" standalone="no"?> <!DOCTYPE svg PUBLIC "-//W3C//DTD SVG 20010904//EN" "http://www.w3.org/TR/2001/REC-SVG-20010904/DTD/svg10.dtd"> <svg version="1.0" xmlns="http://www.w3.org/2000/svg" width="512.000000pt" height="512.000000pt" viewBox="0 0 512.000000 512.000000" preserveAspectRatio="xMidYMid meet"> <g transform="translate(0.000000,512.000000) scale(0.100000,-0.100000)" fill="#6b7280" stroke="none"> <path d="M1510 4431 c-385 -85 -679 -367 -774 -743 -90 -352 9 -711 265 -967 388 -389 1013 -401 1408 -26 100 95 164 181 221 300 84 173 113 334 98 534 -27 348 -241 659 -563 816 -153 75 -245 97 -425 101 -115 3 -163 0 -230 -15z m671 -1439 c-40 -78 -137 -150 -261 -194 -79 -28 -262 -36 -354 -14 -82 19 -177 63 -227 105 -35 29 -99 115 -99 133 0 4 216 8 480 8 l480 0 -19 -38z"/> <path d="M3601 4439 c-284 -56 -531 -273 -616 -541 -94 -298 -20 -605 199 -824 175 -175 399 -255 651 -232 359 34 652 310 716 673 13 76 7 254 -11 320 -42 151 -116 280 -222 384 -110 110 -250 185 -400 215 -82 17 -244 19 -317 5z m539 -1112 c0 -24 -57 -94 -102 -125 -85 -58 -151 -76 -278 -76 -137 -1 -199 15 -289 75 -52 35 -111 105 -111 132 0 4 176 7 390 7 321 0 390 -2 390 -13z"/> <path d="M2950 2747 c-41 -13 -106 -40 -145 -60 -82 -43 -190 -126 -178 -137 4 -4 37 -13 73 -19 265 -50 533 -220 704 -448 122 -162 202 -354 227 -547 l14 -99 255 6 c261 7 383 16 575 42 236 33 467 90 566 141 79 40 82 52 76 298 -5 227 -13 274 -67 392 -61 135 -183 273 -307 348 -81 48 -209 95 -283 103 -53 5 -61 3 -103 -26 -69 -47 -192 -106 -282 -134 -126 -39 -219 -50 -373 -44 -201 8 -340 50 -513 153 -102 62 -124 65 -239 31z"/> <path d="M746 2319 c-92 -23 -237 -89 -324 -148 -182 -123 -332 -340 -394 -568 -18 -67 -21 -115 -25 -334 -5 -243 -4 -258 15 -296 25 -48 43 -61 147 -101 339 -130 893 -202 1555 -202 651 0 1151 64 1530 195 117 41 164 76 180 135 13 45 13 337 0 460 -29 278 -162 517 -383 687 -121 93 -309 173 -446 189 -59 6 -63 5 -115 -29 -170 -113 -379 -193 -577 -223 -321 -47 -675 33 -944 215 -70 48 -97 50 -219 20z"/> </g> </svg>