<?xml version="1.0" encoding="UTF-8"?>
<!--Generator: Apple Native CoreSVG 341-->
<!DOCTYPE svg
PUBLIC "-//W3C//DTD SVG 1.1//EN"
       "http://www.w3.org/Graphics/SVG/1.1/DTD/svg11.dtd">
<svg version="1.1" xmlns="http://www.w3.org/2000/svg" xmlns:xlink="http://www.w3.org/1999/xlink" viewBox="0 0 1271.97 1272.95">
 <g>
  <rect height="1272.95" opacity="0" width="1271.97" x="0" y="0"/>
  <path d="M1271.97 636.23C1271.97 986.328 986.328 1271.97 635.742 1271.97C285.645 1271.97 0 986.328 0 636.23C0 285.645 285.645 0 635.742 0C986.328 0 1271.97 285.645 1271.97 636.23ZM783.203 357.422L642.09 566.895L639.16 566.895L496.094 356.934C483.887 339.355 472.656 332.52 453.613 332.52C430.176 332.52 410.156 351.074 410.156 374.023C410.156 386.23 413.574 394.043 422.363 405.762L580.566 628.906L414.551 862.793C407.227 873.535 404.297 880.371 404.297 892.09C404.297 914.062 422.363 930.664 445.801 930.664C463.867 930.664 473.145 923.828 487.305 904.785L632.324 695.801L634.766 695.801L778.809 904.785C792.969 923.828 802.734 930.664 820.801 930.664C845.703 930.664 864.258 914.062 864.258 890.137C864.258 878.418 860.84 870.117 853.516 860.352L689.941 631.348L854.98 401.367C862.793 391.113 866.211 381.836 866.211 372.07C866.211 349.609 847.656 332.52 823.73 332.52C806.152 332.52 795.41 339.355 783.203 357.422Z" fill="black" fill-opacity="0.85"/>
 </g>
</svg>
